<svg xmlns="http://www.w3.org/2000/svg" xmlns:xlink="http://www.w3.org/1999/xlink" viewBox="0 0 692 471.21"><defs><style>.cls-1{isolation:isolate;}.cls-2,.cls-25{opacity:0.5;}.cls-2{mix-blend-mode:multiply;fill:url(#linear-gradient);}.cls-3{fill:url(#linear-gradient-2);}.cls-4{fill:#e8f5e9;}.cls-5{fill:#01579b;}.cls-6{fill:#d3d3d3;}.cls-7{fill:#9d7c39;}.cls-8{fill:#eecd89;}.cls-9{fill:url(#linear-gradient-3);}.cls-10{fill:url(#linear-gradient-4);}.cls-11{fill:url(#linear-gradient-5);}.cls-12{fill:url(#linear-gradient-6);}.cls-13{fill:#ead3a7;}.cls-14{fill:url(#linear-gradient-7);}.cls-15{fill:url(#linear-gradient-8);}.cls-16{fill:url(#linear-gradient-9);}.cls-17{fill:#ffd54f;}.cls-18{fill:#fff;}.cls-19{fill:url(#linear-gradient-10);}.cls-20{fill:url(#linear-gradient-11);}.cls-21{fill:url(#linear-gradient-12);}.cls-22{fill:url(#linear-gradient-13);}.cls-23{fill:#756a53;}.cls-24{fill:url(#linear-gradient-14);}.cls-26{fill:silver;}.cls-27{fill:#c1c1c1;}.cls-28{fill:#b09f7d;}.cls-29{fill:#b0790b;}.cls-30{fill:#ffd553;}.cls-31{fill:url(#linear-gradient-15);}.cls-32{fill:url(#linear-gradient-16);}.cls-33{fill:#3a352a;}.cls-34{fill:#ffb300;}.cls-35{fill:#ffca28;}.cls-36{fill:#ff8f00;}.cls-37{fill:#ffa000;}.cls-38{fill:#fff8e1;}.cls-39{fill:#37474f;}.cls-40{fill:url(#linear-gradient-17);}.cls-41{fill:url(#linear-gradient-18);}.cls-42{fill:url(#linear-gradient-19);}.cls-43{fill:#ffeaa9;}.cls-44{fill:#696969;}.cls-45{fill:#b0bec5;}.cls-46{fill:#263238;}.cls-47{fill:url(#linear-gradient-20);}.cls-48{fill:#3b3d3f;}.cls-49{fill:#ffccbc;}.cls-50{fill:#0d47a1;}.cls-51{fill:#212121;}.cls-52{fill:#262b38;}.cls-53{fill:#ffab91;}.cls-54{fill:#1e212b;}.cls-55{fill:#f57c00;}.cls-56{fill:#eceff1;}</style><linearGradient id="linear-gradient" x1="287.47" y1="231.42" x2="267.18" y2="165.73" gradientUnits="userSpaceOnUse"><stop offset="0" stop-color="#fff"/><stop offset="1" stop-color="#42a5f5"/></linearGradient><linearGradient id="linear-gradient-2" x1="268.53" y1="203.39" x2="299.23" y2="203.39" gradientUnits="userSpaceOnUse"><stop offset="0.39" stop-color="#eab449"/><stop offset="0.55" stop-color="#b08737"/></linearGradient><linearGradient id="linear-gradient-3" x1="268.53" y1="153.83" x2="299.23" y2="153.83" xlink:href="#linear-gradient-2"/><linearGradient id="linear-gradient-4" x1="234.21" y1="220.49" x2="264.91" y2="220.49" xlink:href="#linear-gradient-2"/><linearGradient id="linear-gradient-5" x1="234.21" y1="170.93" x2="264.91" y2="170.93" xlink:href="#linear-gradient-2"/><linearGradient id="linear-gradient-6" x1="138.75" y1="266.29" x2="214.64" y2="266.29" gradientUnits="userSpaceOnUse"><stop offset="0.39" stop-color="#eab449"/><stop offset="0.47" stop-color="#cd9d40"/><stop offset="0.56" stop-color="#b88d39"/><stop offset="0.61" stop-color="#b08737"/></linearGradient><linearGradient id="linear-gradient-7" x1="138.75" y1="244.03" x2="214.64" y2="244.03" xlink:href="#linear-gradient-6"/><linearGradient id="linear-gradient-8" x1="138.75" y1="221.76" x2="214.64" y2="221.76" xlink:href="#linear-gradient-6"/><linearGradient id="linear-gradient-9" x1="138.75" y1="199.5" x2="214.64" y2="199.5" xlink:href="#linear-gradient-6"/><linearGradient id="linear-gradient-10" x1="83.5" y1="297.01" x2="159.38" y2="297.01" xlink:href="#linear-gradient-6"/><linearGradient id="linear-gradient-11" x1="83.5" y1="274.75" x2="159.38" y2="274.75" xlink:href="#linear-gradient-6"/><linearGradient id="linear-gradient-12" x1="83.5" y1="252.49" x2="159.38" y2="252.49" xlink:href="#linear-gradient-6"/><linearGradient id="linear-gradient-13" x1="83.5" y1="230.22" x2="159.38" y2="230.22" xlink:href="#linear-gradient-6"/><linearGradient id="linear-gradient-14" x1="422.69" y1="21.43" x2="591.18" y2="313.26" gradientUnits="userSpaceOnUse"><stop offset="0" stop-color="#3a301b"/><stop offset="1" stop-color="#ffb200"/></linearGradient><linearGradient id="linear-gradient-15" x1="376.93" y1="295.2" x2="440.28" y2="295.2" gradientUnits="userSpaceOnUse"><stop offset="0" stop-color="#fff"/><stop offset="0.11" stop-color="#fff5d7"/><stop offset="0.28" stop-color="#ffe8a2"/><stop offset="0.44" stop-color="#ffdd76"/><stop offset="0.6" stop-color="#ffd554"/><stop offset="0.75" stop-color="#ffcf3c"/><stop offset="0.89" stop-color="#ffcb2d"/><stop offset="1" stop-color="#ffca28"/></linearGradient><linearGradient id="linear-gradient-16" x1="371.27" y1="215.3" x2="459.47" y2="215.3" gradientUnits="userSpaceOnUse"><stop offset="0.02" stop-color="#ffd553"/><stop offset="1" stop-color="#ffca28"/></linearGradient><linearGradient id="linear-gradient-17" x1="78.15" y1="403.36" x2="295.27" y2="403.36" gradientUnits="userSpaceOnUse"><stop offset="0" stop-color="#ffca28"/><stop offset="0.1" stop-color="#ffcc32"/><stop offset="0.26" stop-color="#ffd34d"/><stop offset="0.48" stop-color="#ffde7a"/><stop offset="0.73" stop-color="#ffedb7"/><stop offset="1" stop-color="#fff"/></linearGradient><linearGradient id="linear-gradient-18" x1="478.84" y1="383.76" x2="610.04" y2="383.76" xlink:href="#linear-gradient-15"/><linearGradient id="linear-gradient-19" x1="10.31" y1="407.68" x2="104.84" y2="407.68" gradientUnits="userSpaceOnUse"><stop offset="0" stop-color="#fff"/><stop offset="0.06" stop-color="#fff8e4"/><stop offset="0.19" stop-color="#ffecb3"/><stop offset="0.32" stop-color="#ffe288"/><stop offset="0.45" stop-color="#ffd965"/><stop offset="0.58" stop-color="#ffd24a"/><stop offset="0.72" stop-color="#ffce37"/><stop offset="0.86" stop-color="#ffcb2c"/><stop offset="1" stop-color="#ffca28"/></linearGradient><linearGradient id="linear-gradient-20" x1="582.12" y1="390.9" x2="678.1" y2="390.9" gradientUnits="userSpaceOnUse"><stop offset="0" stop-color="#ffe79f"/><stop offset="0.05" stop-color="#ffe28a"/><stop offset="0.15" stop-color="#ffdb6c"/><stop offset="0.25" stop-color="#ffd453"/><stop offset="0.37" stop-color="#ffd040"/><stop offset="0.51" stop-color="#ffcc32"/><stop offset="0.68" stop-color="#ffcb2a"/><stop offset="1" stop-color="#ffca28"/></linearGradient></defs><title>banner-hero</title><g class="cls-1"><g id="Layer_1" data-name="Layer 1"><polygon class="cls-2" points="238.05 199.96 283.74 250.09 325.54 226.11 298.32 212.33 238.05 199.96"/><path class="cls-3" d="M242.68,168.88l0,44.15a3.57,3.57,0,0,0,1.86,3.09c6.74,3.77,30,16.77,38.14,21.3a3.93,3.93,0,0,0,3.79,0L301.64,229a3.55,3.55,0,0,0,1.86-3.09c0-8.86,0-41.81,0-44.08Z" transform="translate(-4.63 -14.39)"/><path class="cls-4" d="M253.37,202.89a17.05,17.05,0,0,0,1.07,2.94,4.28,4.28,0,0,0,4.46-.56l-.26-.14a9,9,0,0,1-1.79-1.32,13.13,13.13,0,0,1-3.66-6.36A10.67,10.67,0,0,0,253.37,202.89Z" transform="translate(-4.63 -14.39)"/><path class="cls-4" d="M257.18,195.62c-1,2.56-3.77,1.89-4,1.83a14,14,0,0,0,2.12,1.45,9.1,9.1,0,0,0,2.75,1,5.58,5.58,0,0,0,2.16,0,15,15,0,0,0-2.74-6.39A5.44,5.44,0,0,1,257.18,195.62Z" transform="translate(-4.63 -14.39)"/><path class="cls-4" d="M248.32,195a5.71,5.71,0,0,0-2.15,0,14.93,14.93,0,0,0,2.74,6.39,5.28,5.28,0,0,1,.3-2.09c1-2.55,3.76-1.88,4-1.83a14,14,0,0,0-2.11-1.45A9.62,9.62,0,0,0,248.32,195Z" transform="translate(-4.63 -14.39)"/><path class="cls-4" d="M253,192a17.17,17.17,0,0,0-1.07-3,4.27,4.27,0,0,0-4.46.57l.25.13a9,9,0,0,1,1.8,1.32,13.06,13.06,0,0,1,3.65,6.36A10.58,10.58,0,0,0,253,192Z" transform="translate(-4.63 -14.39)"/><path class="cls-5" d="M257.48,193.54a13.65,13.65,0,0,0-4.26-3.9,10.64,10.64,0,0,0-1.27-.57,17.17,17.17,0,0,1,1.07,3,10.58,10.58,0,0,1,.17,5.43c.22.06,3,.73,4-1.83A5.44,5.44,0,0,0,257.48,193.54Z" transform="translate(-4.63 -14.39)"/><path class="cls-5" d="M249.54,191.09a9,9,0,0,0-1.8-1.32l-.25-.13h0a4.36,4.36,0,0,0-1.26,2.32h0v.62s0,0,0,.06v1h0a9,9,0,0,0,.11,1.36,5.71,5.71,0,0,1,2.15,0,9.62,9.62,0,0,1,2.76,1,14,14,0,0,1,2.11,1.45A13.06,13.06,0,0,0,249.54,191.09Z" transform="translate(-4.63 -14.39)"/><path class="cls-5" d="M253.37,202.89a10.67,10.67,0,0,1-.18-5.44c-.22,0-3-.72-4,1.83a5.28,5.28,0,0,0-.3,2.09h0a15.23,15.23,0,0,0,2.22,2.44h0l.12.1,0,0,0,0,0,0h0l.05,0h0l.06,0h0l.06.05h0l.13.11h0c.19.14.38.28.58.41h0l.21.14h0l.14.09h0l.07,0h0l.14.09h0l.07,0h0l.06,0h0l.07,0h0l.07,0,.08,0h0a8.61,8.61,0,0,0,1.19.52A17.05,17.05,0,0,1,253.37,202.89Z" transform="translate(-4.63 -14.39)"/><path class="cls-5" d="M260.33,201.29h0a10.52,10.52,0,0,0-.11-1.35,5.58,5.58,0,0,1-2.16,0,9.1,9.1,0,0,1-2.75-1,14,14,0,0,1-2.12-1.45,13.13,13.13,0,0,0,3.66,6.36,9,9,0,0,0,1.79,1.32l.26.14h0a4.41,4.41,0,0,0,1.25-2.27h0s0,0,0-.06v-.61h0v-.07h0v-.06h0v-.07h0V202h0v-.07h0v-.07h0v-.07h0v-.16h0v-.15h0v-.16Z" transform="translate(-4.63 -14.39)"/><path class="cls-6" d="M271.54,213.1A17.06,17.06,0,0,0,272.6,216a4.27,4.27,0,0,0,4.47-.56l-.26-.14A9.19,9.19,0,0,1,275,214a13.12,13.12,0,0,1-3.65-6.37A10.55,10.55,0,0,0,271.54,213.1Z" transform="translate(-4.63 -14.39)"/><path class="cls-6" d="M275.34,205.83c-1,2.56-3.76,1.89-4,1.83a14,14,0,0,0,2.12,1.45,9.1,9.1,0,0,0,2.75,1,5.53,5.53,0,0,0,2.15,0,14.8,14.8,0,0,0-2.73-6.39A5.27,5.27,0,0,1,275.34,205.83Z" transform="translate(-4.63 -14.39)"/><path class="cls-6" d="M266.49,205.19a5.71,5.71,0,0,0-2.15,0,14.88,14.88,0,0,0,2.74,6.39,5.31,5.31,0,0,1,.3-2.09c1-2.55,3.76-1.88,4-1.83a14.06,14.06,0,0,0-2.12-1.44A9.28,9.28,0,0,0,266.49,205.19Z" transform="translate(-4.63 -14.39)"/><path class="cls-6" d="M271.19,202.23a17.93,17.93,0,0,0-1.07-2.94,4.25,4.25,0,0,0-4.46.56l.25.14a8.91,8.91,0,0,1,1.8,1.31,13.15,13.15,0,0,1,3.65,6.36A10.58,10.58,0,0,0,271.19,202.23Z" transform="translate(-4.63 -14.39)"/><path class="cls-7" d="M275.65,203.75a13.42,13.42,0,0,0-4.27-3.89,7.7,7.7,0,0,0-1.26-.57,17.93,17.93,0,0,1,1.07,2.94,10.58,10.58,0,0,1,.17,5.43c.22.06,3,.73,4-1.83A5.27,5.27,0,0,0,275.65,203.75Z" transform="translate(-4.63 -14.39)"/><path class="cls-7" d="M267.71,201.3a8.91,8.91,0,0,0-1.8-1.31l-.25-.14h0a4.43,4.43,0,0,0-1.26,2.32v1.66h0a9,9,0,0,0,.11,1.36,5.71,5.71,0,0,1,2.15,0,9.28,9.28,0,0,1,2.75,1,14.06,14.06,0,0,1,2.12,1.44A13.15,13.15,0,0,0,267.71,201.3Z" transform="translate(-4.63 -14.39)"/><path class="cls-7" d="M271.54,213.1a10.55,10.55,0,0,1-.18-5.44c-.22,0-3-.72-4,1.83a5.31,5.31,0,0,0-.3,2.09h0A14.89,14.89,0,0,0,269.3,214h0a.52.52,0,0,1,.11.1l0,0,0,0,0,.05h0l.06.05h0l.05.05h0l.07.06h0l.14.11h0l.57.42h0l.22.14h0l.14.09h0l.07,0h0l.13.09h0l.07,0h0l.06,0h0l.07,0h0l.07,0,.07,0h0a8.51,8.51,0,0,0,1.18.52A17.06,17.06,0,0,1,271.54,213.1Z" transform="translate(-4.63 -14.39)"/><path class="cls-7" d="M278.49,211.51v0a9,9,0,0,0-.11-1.35,5.53,5.53,0,0,1-2.15,0,9.1,9.1,0,0,1-2.75-1,14,14,0,0,1-2.12-1.45A13.12,13.12,0,0,0,275,214a9.19,9.19,0,0,0,1.8,1.31l.26.14h0a4.41,4.41,0,0,0,1.25-2.27h0v-.59h0v-.07h0v-.07h0v-.06h0v-.15h0v-.07h0v-.07h0V212h0v-.16h0v-.06h0v-.24Z" transform="translate(-4.63 -14.39)"/><path class="cls-8" d="M243.14,168.42l18-9.91a1,1,0,0,1,.9,0l41,22.57a.84.84,0,0,1,0,1.48L285.87,192a2.64,2.64,0,0,1-2.53,0l-40.2-22.12A.83.83,0,0,1,243.14,168.42Z" transform="translate(-4.63 -14.39)"/><path class="cls-9" d="M242.68,119.32l0,44.15a3.57,3.57,0,0,0,1.86,3.09c6.74,3.77,30,16.77,38.14,21.3a3.93,3.93,0,0,0,3.79,0l15.15-8.43a3.55,3.55,0,0,0,1.86-3.09c0-8.86,0-41.81,0-44.08Z" transform="translate(-4.63 -14.39)"/><path class="cls-4" d="M253.37,153.33a17.05,17.05,0,0,0,1.07,2.94,4.25,4.25,0,0,0,4.46-.57l-.26-.13a9,9,0,0,1-1.79-1.32,13.13,13.13,0,0,1-3.66-6.36A10.67,10.67,0,0,0,253.37,153.33Z" transform="translate(-4.63 -14.39)"/><path class="cls-4" d="M257.18,146.06c-1,2.56-3.77,1.89-4,1.83a14,14,0,0,0,2.12,1.45,9.1,9.1,0,0,0,2.75,1,5.58,5.58,0,0,0,2.16,0,15,15,0,0,0-2.74-6.39A5.44,5.44,0,0,1,257.18,146.06Z" transform="translate(-4.63 -14.39)"/><path class="cls-4" d="M248.32,145.42a5.71,5.71,0,0,0-2.15,0,14.84,14.84,0,0,0,2.74,6.38,5.26,5.26,0,0,1,.3-2.08c1-2.56,3.76-1.89,4-1.83a14,14,0,0,0-2.11-1.45A9.62,9.62,0,0,0,248.32,145.42Z" transform="translate(-4.63 -14.39)"/><path class="cls-4" d="M253,142.46a17.17,17.17,0,0,0-1.07-3,4.27,4.27,0,0,0-4.46.57l.25.13a9,9,0,0,1,1.8,1.32,13.06,13.06,0,0,1,3.65,6.36A10.58,10.58,0,0,0,253,142.46Z" transform="translate(-4.63 -14.39)"/><path class="cls-5" d="M257.48,144a13.65,13.65,0,0,0-4.26-3.9,10.64,10.64,0,0,0-1.27-.57,17.17,17.17,0,0,1,1.07,3,10.58,10.58,0,0,1,.17,5.43c.22.06,3,.73,4-1.83A5.44,5.44,0,0,0,257.48,144Z" transform="translate(-4.63 -14.39)"/><path class="cls-5" d="M249.54,141.53a9,9,0,0,0-1.8-1.32l-.25-.13h0a4.37,4.37,0,0,0-1.26,2.31V143s0,0,0,.06v1h0a9,9,0,0,0,.11,1.36,5.71,5.71,0,0,1,2.15,0,9.62,9.62,0,0,1,2.76,1,14,14,0,0,1,2.11,1.45A13.06,13.06,0,0,0,249.54,141.53Z" transform="translate(-4.63 -14.39)"/><path class="cls-5" d="M253.37,153.33a10.67,10.67,0,0,1-.18-5.44c-.22-.06-3-.73-4,1.83a5.26,5.26,0,0,0-.3,2.08h0a15.23,15.23,0,0,0,2.22,2.44h0l.12.09,0,0,0,0,0,0h0l.05,0h0l.06,0h0l.06.05h0l.13.11h0c.19.14.38.28.58.41h0l.21.15h0l.14.09h0l.07,0h0l.14.09h0l.07,0h0l.06,0h0l.07,0h0l.07,0,.08,0h0a7.64,7.64,0,0,0,1.19.53A17.05,17.05,0,0,1,253.37,153.33Z" transform="translate(-4.63 -14.39)"/><path class="cls-5" d="M260.33,151.73h0a10.52,10.52,0,0,0-.11-1.35,5.58,5.58,0,0,1-2.16,0,9.1,9.1,0,0,1-2.75-1,14,14,0,0,1-2.12-1.45,13.13,13.13,0,0,0,3.66,6.36,9,9,0,0,0,1.79,1.32l.26.13h0a4.41,4.41,0,0,0,1.25-2.27h0a.64.64,0,0,0,0-.07h0v-.67h0v-.06h0v-.07h0v-.07h0v-.07h0v-.07h0v-.07h0v-.16h0v-.15h0v-.16Z" transform="translate(-4.63 -14.39)"/><path class="cls-6" d="M271.54,163.54a17.06,17.06,0,0,0,1.06,2.94,4.27,4.27,0,0,0,4.47-.56l-.26-.14a9.19,9.19,0,0,1-1.8-1.31,13.12,13.12,0,0,1-3.65-6.37A10.55,10.55,0,0,0,271.54,163.54Z" transform="translate(-4.63 -14.39)"/><path class="cls-6" d="M275.34,156.27c-1,2.56-3.76,1.89-4,1.83a14,14,0,0,0,2.12,1.45,9.1,9.1,0,0,0,2.75,1,5.53,5.53,0,0,0,2.15,0,14.8,14.8,0,0,0-2.73-6.39A5.27,5.27,0,0,1,275.34,156.27Z" transform="translate(-4.63 -14.39)"/><path class="cls-6" d="M266.49,155.63a5.71,5.71,0,0,0-2.15,0,14.88,14.88,0,0,0,2.74,6.39,5.28,5.28,0,0,1,.3-2.09c1-2.55,3.76-1.88,4-1.83a14.06,14.06,0,0,0-2.12-1.44A9.28,9.28,0,0,0,266.49,155.63Z" transform="translate(-4.63 -14.39)"/><path class="cls-6" d="M271.19,152.67a18.05,18.05,0,0,0-1.07-2.95,4.27,4.27,0,0,0-4.46.57l.25.14a8.91,8.91,0,0,1,1.8,1.31,13.15,13.15,0,0,1,3.65,6.36A10.58,10.58,0,0,0,271.19,152.67Z" transform="translate(-4.63 -14.39)"/><path class="cls-7" d="M275.65,154.19a13.42,13.42,0,0,0-4.27-3.89,8.74,8.74,0,0,0-1.26-.58,18.05,18.05,0,0,1,1.07,2.95,10.58,10.58,0,0,1,.17,5.43c.22.06,3,.73,4-1.83A5.27,5.27,0,0,0,275.65,154.19Z" transform="translate(-4.63 -14.39)"/><path class="cls-7" d="M267.71,151.74a8.91,8.91,0,0,0-1.8-1.31l-.25-.14h0a4.43,4.43,0,0,0-1.26,2.32h0v1.65h0a9,9,0,0,0,.11,1.36,5.71,5.71,0,0,1,2.15,0,9.28,9.28,0,0,1,2.75,1,14.06,14.06,0,0,1,2.12,1.44A13.15,13.15,0,0,0,267.71,151.74Z" transform="translate(-4.63 -14.39)"/><path class="cls-7" d="M271.54,163.54a10.55,10.55,0,0,1-.18-5.44c-.22,0-3-.72-4,1.83a5.28,5.28,0,0,0-.3,2.09h0a14.89,14.89,0,0,0,2.22,2.45h0a.52.52,0,0,1,.11.1l0,0,0,0,0,0h0l.06.05h0l.05,0h0l.07.06h0l.14.11h0l.57.41h0l.22.14h0l.14.09h0l.07,0h0l.13.09h0l.07,0h0l.06,0h0l.07,0h0l.07,0,.07,0h0a8.51,8.51,0,0,0,1.18.52A17.06,17.06,0,0,1,271.54,163.54Z" transform="translate(-4.63 -14.39)"/><path class="cls-7" d="M278.49,162v0a9,9,0,0,0-.11-1.35,5.53,5.53,0,0,1-2.15,0,9.1,9.1,0,0,1-2.75-1,14,14,0,0,1-2.12-1.45,13.12,13.12,0,0,0,3.65,6.37,9.19,9.19,0,0,0,1.8,1.31l.26.14h0a4.41,4.41,0,0,0,1.25-2.27h0v-.59h0V163h0v-.07h0v-.06h0v-.07h0v-.07h0v-.07h0v-.07h0v-.07h0v-.16h0v-.15h0V162Z" transform="translate(-4.63 -14.39)"/><path class="cls-8" d="M243.14,118.86l18-9.91a1,1,0,0,1,.9,0l41,22.57a.84.84,0,0,1,0,1.48l-17.2,9.46a2.64,2.64,0,0,1-2.53,0l-40.2-22.12A.83.83,0,0,1,243.14,118.86Z" transform="translate(-4.63 -14.39)"/><path class="cls-10" d="M208.36,186l0,44.15a3.58,3.58,0,0,0,1.85,3.09c6.75,3.77,30,16.77,38.15,21.3a3.93,3.93,0,0,0,3.79,0l15.15-8.43a3.55,3.55,0,0,0,1.86-3.09c0-8.86,0-41.81,0-44.08Z" transform="translate(-4.63 -14.39)"/><path class="cls-6" d="M219.05,220a17.06,17.06,0,0,0,1.06,2.94,4.29,4.29,0,0,0,4.47-.56l-.26-.14a9.63,9.63,0,0,1-1.8-1.31,13.12,13.12,0,0,1-3.65-6.37A10.55,10.55,0,0,0,219.05,220Z" transform="translate(-4.63 -14.39)"/><path class="cls-6" d="M222.85,212.72c-1,2.56-3.76,1.89-4,1.83A14,14,0,0,0,221,216a9.1,9.1,0,0,0,2.75,1,5.53,5.53,0,0,0,2.15,0,14.8,14.8,0,0,0-2.73-6.39A5.27,5.27,0,0,1,222.85,212.72Z" transform="translate(-4.63 -14.39)"/><path class="cls-6" d="M214,212.08a5.71,5.71,0,0,0-2.15,0,14.93,14.93,0,0,0,2.74,6.39,5.28,5.28,0,0,1,.3-2.09c1-2.55,3.76-1.88,4-1.83a14.74,14.74,0,0,0-2.12-1.45A9.56,9.56,0,0,0,214,212.08Z" transform="translate(-4.63 -14.39)"/><path class="cls-6" d="M218.7,209.12a18.05,18.05,0,0,0-1.07-3,4.27,4.27,0,0,0-4.46.57l.25.13a9,9,0,0,1,1.8,1.32,13.15,13.15,0,0,1,3.65,6.36A10.58,10.58,0,0,0,218.7,209.12Z" transform="translate(-4.63 -14.39)"/><path class="cls-7" d="M223.16,210.64a13.57,13.57,0,0,0-4.27-3.9,9.87,9.87,0,0,0-1.26-.57,18.05,18.05,0,0,1,1.07,3,10.58,10.58,0,0,1,.17,5.43c.22.06,3,.73,4-1.83A5.27,5.27,0,0,0,223.16,210.64Z" transform="translate(-4.63 -14.39)"/><path class="cls-7" d="M215.22,208.19a9,9,0,0,0-1.8-1.32l-.25-.13h0a4.43,4.43,0,0,0-1.26,2.32h0v1.65h0a9,9,0,0,0,.11,1.36,5.71,5.71,0,0,1,2.15,0,9.56,9.56,0,0,1,2.75,1,14.74,14.74,0,0,1,2.12,1.45A13.15,13.15,0,0,0,215.22,208.19Z" transform="translate(-4.63 -14.39)"/><path class="cls-7" d="M219.05,220a10.55,10.55,0,0,1-.18-5.44c-.22-.05-3-.72-4,1.83a5.28,5.28,0,0,0-.3,2.09h0a15.75,15.75,0,0,0,2.22,2.45h0a.52.52,0,0,1,.11.1l0,0,0,0,.05.05h0l.06,0h0l0,0h0l.07.05h0l.14.11h0l.57.41h0a1.64,1.64,0,0,1,.22.14h0l.14.09h0l.07,0h0l.13.09h0l.06,0h0l.06,0h0l.07,0h0l.07,0,.07,0h0a8.51,8.51,0,0,0,1.18.52A17.06,17.06,0,0,1,219.05,220Z" transform="translate(-4.63 -14.39)"/><path class="cls-7" d="M226,218.39h0a9,9,0,0,0-.11-1.35,5.53,5.53,0,0,1-2.15,0,9.1,9.1,0,0,1-2.75-1,14,14,0,0,1-2.12-1.45,13.12,13.12,0,0,0,3.65,6.37,9.63,9.63,0,0,0,1.8,1.31l.26.14h0a4.41,4.41,0,0,0,1.25-2.27h0v-.67h0v-.07h0v-.06h0v-.07h0v-.07h0V219h0V219h0v-.07h0v-.16h0v-.15h0v-.16Z" transform="translate(-4.63 -14.39)"/><path class="cls-6" d="M237.21,230.2a17.05,17.05,0,0,0,1.07,2.94,4.25,4.25,0,0,0,4.46-.56l-.25-.14a8.91,8.91,0,0,1-1.8-1.31,13.12,13.12,0,0,1-3.65-6.37A10.62,10.62,0,0,0,237.21,230.2Z" transform="translate(-4.63 -14.39)"/><path class="cls-6" d="M241,222.93c-1,2.56-3.76,1.89-4,1.83a14.29,14.29,0,0,0,2.11,1.45,9.17,9.17,0,0,0,2.76,1,5.53,5.53,0,0,0,2.15,0,14.83,14.83,0,0,0-2.74-6.39A5.08,5.08,0,0,1,241,222.93Z" transform="translate(-4.63 -14.39)"/><path class="cls-6" d="M232.17,222.29a5.76,5.76,0,0,0-2.16,0,15,15,0,0,0,2.74,6.39,5.29,5.29,0,0,1,.31-2.09c1-2.55,3.76-1.88,4-1.83a14.06,14.06,0,0,0-2.12-1.44A9.39,9.39,0,0,0,232.17,222.29Z" transform="translate(-4.63 -14.39)"/><path class="cls-6" d="M236.86,219.33a16.26,16.26,0,0,0-1.07-2.94,4.25,4.25,0,0,0-4.46.56l.26.14a8.87,8.87,0,0,1,1.79,1.31,13.12,13.12,0,0,1,3.66,6.36A10.51,10.51,0,0,0,236.86,219.33Z" transform="translate(-4.63 -14.39)"/><path class="cls-7" d="M241.32,220.85a13.39,13.39,0,0,0-4.26-3.89,7.42,7.42,0,0,0-1.27-.57,16.26,16.26,0,0,1,1.07,2.94,10.51,10.51,0,0,1,.18,5.43c.22.06,3,.73,4-1.83A5.08,5.08,0,0,0,241.32,220.85Z" transform="translate(-4.63 -14.39)"/><path class="cls-7" d="M233.38,218.4a8.87,8.87,0,0,0-1.79-1.31l-.26-.14h0a4.36,4.36,0,0,0-1.26,2.32v1.49a.19.19,0,0,0,0,.08v.09h0a12.67,12.67,0,0,0,.11,1.36,5.76,5.76,0,0,1,2.16,0,9.39,9.39,0,0,1,2.75,1,14.06,14.06,0,0,1,2.12,1.44A13.12,13.12,0,0,0,233.38,218.4Z" transform="translate(-4.63 -14.39)"/><path class="cls-7" d="M237.21,230.2a10.62,10.62,0,0,1-.17-5.44c-.22,0-3-.72-4,1.83a5.29,5.29,0,0,0-.31,2.09h0a15.4,15.4,0,0,0,2.23,2.45h0l.11.1,0,0,0,0,0,0,0,0,.06,0h0l.05.05h0l.07.06h0l.14.11h0l.57.42h0l.22.14h0l.14.09h0l.07,0h0l.14.09h0l.07,0h0l.07,0h0l.06,0h0l.06,0,.08,0h0a8,8,0,0,0,1.18.52A17.05,17.05,0,0,1,237.21,230.2Z" transform="translate(-4.63 -14.39)"/><path class="cls-7" d="M244.17,228.61v0a9,9,0,0,0-.11-1.35,5.53,5.53,0,0,1-2.15,0,9.17,9.17,0,0,1-2.76-1,14.29,14.29,0,0,1-2.11-1.45,13.12,13.12,0,0,0,3.65,6.37,8.91,8.91,0,0,0,1.8,1.31l.25.14h0a4.34,4.34,0,0,0,1.25-2.27h0l0-.06v-.53h0v-.07h0a.15.15,0,0,0,0-.07h0v-.06h0s0,0,0-.06v-.09h0v-.07h0v-.07h0v-.07h0v-.16h0v-.06h0v-.24Z" transform="translate(-4.63 -14.39)"/><path class="cls-8" d="M208.82,185.52l18-9.91a.94.94,0,0,1,.89,0l41,22.57a.83.83,0,0,1,0,1.48l-17.2,9.46a2.64,2.64,0,0,1-2.53,0L208.82,187A.83.83,0,0,1,208.82,185.52Z" transform="translate(-4.63 -14.39)"/><path class="cls-11" d="M208.36,136.42l0,44.15a3.58,3.58,0,0,0,1.85,3.09c6.75,3.77,30,16.77,38.15,21.3a3.93,3.93,0,0,0,3.79,0l15.15-8.43a3.55,3.55,0,0,0,1.86-3.09c0-8.86,0-41.81,0-44.08Z" transform="translate(-4.63 -14.39)"/><path class="cls-6" d="M219.05,170.43a17.06,17.06,0,0,0,1.06,2.94,4.27,4.27,0,0,0,4.47-.57l-.26-.13a9.28,9.28,0,0,1-1.8-1.32,13.07,13.07,0,0,1-3.65-6.36A10.55,10.55,0,0,0,219.05,170.43Z" transform="translate(-4.63 -14.39)"/><path class="cls-6" d="M222.85,163.16c-1,2.56-3.76,1.89-4,1.83a14,14,0,0,0,2.12,1.45,9.1,9.1,0,0,0,2.75,1,5.53,5.53,0,0,0,2.15,0,14.8,14.8,0,0,0-2.73-6.39A5.27,5.27,0,0,1,222.85,163.16Z" transform="translate(-4.63 -14.39)"/><path class="cls-6" d="M214,162.52a5.71,5.71,0,0,0-2.15,0,14.84,14.84,0,0,0,2.74,6.38,5.26,5.26,0,0,1,.3-2.08c1-2.56,3.76-1.89,4-1.83a14.74,14.74,0,0,0-2.12-1.45A9.56,9.56,0,0,0,214,162.52Z" transform="translate(-4.63 -14.39)"/><path class="cls-6" d="M218.7,159.56a18.05,18.05,0,0,0-1.07-2.95,4.27,4.27,0,0,0-4.46.57l.25.13a9,9,0,0,1,1.8,1.32,13.15,13.15,0,0,1,3.65,6.36A10.58,10.58,0,0,0,218.7,159.56Z" transform="translate(-4.63 -14.39)"/><path class="cls-7" d="M223.16,161.08a13.57,13.57,0,0,0-4.27-3.9,9.87,9.87,0,0,0-1.26-.57,18.05,18.05,0,0,1,1.07,2.95,10.58,10.58,0,0,1,.17,5.43c.22.06,3,.73,4-1.83A5.27,5.27,0,0,0,223.16,161.08Z" transform="translate(-4.63 -14.39)"/><path class="cls-7" d="M215.22,158.63a9,9,0,0,0-1.8-1.32l-.25-.13h0a4.43,4.43,0,0,0-1.26,2.31v1.66h0a9.12,9.12,0,0,0,.11,1.36,5.71,5.71,0,0,1,2.15,0,9.56,9.56,0,0,1,2.75,1,14.74,14.74,0,0,1,2.12,1.45A13.15,13.15,0,0,0,215.22,158.63Z" transform="translate(-4.63 -14.39)"/><path class="cls-7" d="M219.05,170.43a10.55,10.55,0,0,1-.18-5.44c-.22-.06-3-.73-4,1.83a5.26,5.26,0,0,0-.3,2.08h0a15.23,15.23,0,0,0,2.22,2.44h0l.11.09,0,0,0,0,.05.05h0l.06.05h0l0,0h0l.07.05h0l.14.11h0l.57.41h0l.22.15h0l.14.09h0l.07,0h0l.13.09h0l.06,0h0l.06,0h0l.07,0h0l.07,0,.07,0h0a8.61,8.61,0,0,0,1.18.53A17.06,17.06,0,0,1,219.05,170.43Z" transform="translate(-4.63 -14.39)"/><path class="cls-7" d="M226,168.83h0a8.88,8.88,0,0,0-.11-1.35,5.53,5.53,0,0,1-2.15,0,9.1,9.1,0,0,1-2.75-1,14,14,0,0,1-2.12-1.45,13.07,13.07,0,0,0,3.65,6.36,9.28,9.28,0,0,0,1.8,1.32l.26.13h0a4.41,4.41,0,0,0,1.25-2.27h0v-.07h0v-.67h0v-.06h0v-.07h0v-.07h0v-.07h0v-.07h0v-.07h0v-.15h0V169h0v-.16Z" transform="translate(-4.63 -14.39)"/><path class="cls-6" d="M237.21,180.64a17.05,17.05,0,0,0,1.07,2.94,4.25,4.25,0,0,0,4.46-.56l-.25-.14a8.91,8.91,0,0,1-1.8-1.31A13.12,13.12,0,0,1,237,175.2,10.62,10.62,0,0,0,237.21,180.64Z" transform="translate(-4.63 -14.39)"/><path class="cls-6" d="M241,173.37c-1,2.56-3.76,1.89-4,1.83a14.29,14.29,0,0,0,2.11,1.45,9.17,9.17,0,0,0,2.76,1,5.53,5.53,0,0,0,2.15,0,14.83,14.83,0,0,0-2.74-6.39A5.08,5.08,0,0,1,241,173.37Z" transform="translate(-4.63 -14.39)"/><path class="cls-6" d="M232.17,172.73a5.76,5.76,0,0,0-2.16,0,15,15,0,0,0,2.74,6.39,5.29,5.29,0,0,1,.31-2.09c1-2.55,3.76-1.88,4-1.83a14.06,14.06,0,0,0-2.12-1.44A9.39,9.39,0,0,0,232.17,172.73Z" transform="translate(-4.63 -14.39)"/><path class="cls-6" d="M236.86,169.77a16.37,16.37,0,0,0-1.07-3,4.28,4.28,0,0,0-4.46.57l.26.13a9.36,9.36,0,0,1,1.79,1.32A13.12,13.12,0,0,1,237,175.2,10.51,10.51,0,0,0,236.86,169.77Z" transform="translate(-4.63 -14.39)"/><path class="cls-7" d="M241.32,171.29a13.39,13.39,0,0,0-4.26-3.89,8.37,8.37,0,0,0-1.27-.58,16.37,16.37,0,0,1,1.07,3,10.51,10.51,0,0,1,.18,5.43c.22.06,3,.73,4-1.83A5.08,5.08,0,0,0,241.32,171.29Z" transform="translate(-4.63 -14.39)"/><path class="cls-7" d="M233.38,168.84a9.36,9.36,0,0,0-1.79-1.32l-.26-.13h0a4.36,4.36,0,0,0-1.26,2.32h0v1.48a.19.19,0,0,0,0,.08v.09h0a12.67,12.67,0,0,0,.11,1.36,5.76,5.76,0,0,1,2.16,0,9.39,9.39,0,0,1,2.75,1A14.06,14.06,0,0,1,237,175.2,13.12,13.12,0,0,0,233.38,168.84Z" transform="translate(-4.63 -14.39)"/><path class="cls-7" d="M237.21,180.64a10.62,10.62,0,0,1-.17-5.44c-.22,0-3-.72-4,1.83a5.29,5.29,0,0,0-.31,2.09h0a15.4,15.4,0,0,0,2.23,2.45h0l.11.1,0,0,0,0,0,0h0l.06,0h0l.05,0h0l.07.05h0l.14.11h0l.57.41h0l.22.14h0l.14.09h0l.07,0h0l.14.09h0l.07,0h0l.07,0h0l.06,0h0l.06,0,.08,0h0a8,8,0,0,0,1.18.52A17.05,17.05,0,0,1,237.21,180.64Z" transform="translate(-4.63 -14.39)"/><path class="cls-7" d="M244.17,179.05v0a9,9,0,0,0-.11-1.35,5.53,5.53,0,0,1-2.15,0,9.17,9.17,0,0,1-2.76-1A14.29,14.29,0,0,1,237,175.2a13.12,13.12,0,0,0,3.65,6.37,8.91,8.91,0,0,0,1.8,1.31l.25.14h0a4.34,4.34,0,0,0,1.25-2.27h0l0-.06v-.53h0v-.07h0V180h0v-.06h0s0,0,0-.07h0v-.07h0v-.07h0v-.07h0v-.07h0v-.16h0v-.15h0v-.15Z" transform="translate(-4.63 -14.39)"/><path class="cls-8" d="M208.82,136l18-9.91a.94.94,0,0,1,.89,0l41,22.57a.83.83,0,0,1,0,1.48l-17.2,9.46a2.64,2.64,0,0,1-2.53,0l-40.19-22.12A.83.83,0,0,1,208.82,136Z" transform="translate(-4.63 -14.39)"/><path class="cls-12" d="M138.75,248.64q0,6.48,0,13a4.15,4.15,0,0,0,2.19,3.6l32.59,18a6.4,6.4,0,0,0,6.15,0L212.46,265a4.16,4.16,0,0,0,2.18-3.64q-.06-6.37-.1-12.74Z" transform="translate(-4.63 -14.39)"/><path class="cls-13" d="M139.56,247.3l34.81-19.14a4.77,4.77,0,0,1,4.55,0l34.81,19.14a1.51,1.51,0,0,1,0,2.67l-34.81,19.15a4.77,4.77,0,0,1-4.55,0L139.56,250A1.51,1.51,0,0,1,139.56,247.3Z" transform="translate(-4.63 -14.39)"/><path class="cls-14" d="M138.75,226.38q0,6.48,0,13a4.12,4.12,0,0,0,2.19,3.6l32.59,18a6.42,6.42,0,0,0,6.15,0l32.74-18.14a4.14,4.14,0,0,0,2.18-3.64q-.06-6.36-.1-12.73Z" transform="translate(-4.63 -14.39)"/><path class="cls-13" d="M139.56,225l34.81-19.14a4.72,4.72,0,0,1,4.55,0L213.73,225a1.51,1.51,0,0,1,0,2.67l-34.81,19.15a4.77,4.77,0,0,1-4.55,0l-34.81-19.15A1.51,1.51,0,0,1,139.56,225Z" transform="translate(-4.63 -14.39)"/><path class="cls-15" d="M138.75,204.11q0,6.48,0,13a4.14,4.14,0,0,0,2.19,3.6l32.59,17.95a6.37,6.37,0,0,0,6.15,0l32.74-18.13a4.14,4.14,0,0,0,2.18-3.64q-.06-6.37-.1-12.74Z" transform="translate(-4.63 -14.39)"/><path class="cls-13" d="M139.56,202.78l34.81-19.15a4.77,4.77,0,0,1,4.55,0l34.81,19.15a1.51,1.51,0,0,1,0,2.67l-34.81,19.14a4.72,4.72,0,0,1-4.55,0l-34.81-19.14A1.51,1.51,0,0,1,139.56,202.78Z" transform="translate(-4.63 -14.39)"/><path class="cls-16" d="M138.75,181.85q0,6.48,0,13a4.15,4.15,0,0,0,2.19,3.6l32.59,18a6.4,6.4,0,0,0,6.15,0l32.74-18.13a4.16,4.16,0,0,0,2.18-3.64q-.06-6.37-.1-12.74Z" transform="translate(-4.63 -14.39)"/><path class="cls-13" d="M139.56,180.51l34.81-19.14a4.77,4.77,0,0,1,4.55,0l34.81,19.14a1.51,1.51,0,0,1,0,2.67l-34.81,19.15a4.77,4.77,0,0,1-4.55,0l-34.81-19.15A1.51,1.51,0,0,1,139.56,180.51Z" transform="translate(-4.63 -14.39)"/><polygon class="cls-17" points="184.24 233.9 184.25 236.03 186.65 234.71 186.64 232.58 184.24 233.9"/><polygon class="cls-17" points="202.36 223.94 199.97 225.26 199.97 227.38 202.37 226.06 202.36 223.94"/><polygon class="cls-17" points="196.04 205.15 196.04 207.28 198.44 205.96 198.43 203.84 196.04 205.15"/><polygon class="cls-17" points="177.87 192.88 177.88 195 180.28 193.68 180.27 191.56 177.87 192.88"/><polygon class="cls-18" points="177.87 259.67 177.88 261.79 180.28 260.47 180.27 258.35 177.87 259.67"/><polygon class="cls-18" points="184.24 256.17 184.25 258.29 186.65 256.97 186.64 254.85 184.24 256.17"/><polygon class="cls-18" points="188.17 254 188.18 256.13 190.57 254.81 190.57 252.69 188.17 254"/><polygon class="cls-18" points="196.04 249.68 196.04 251.8 198.44 250.49 198.43 248.36 196.04 249.68"/><polygon class="cls-18" points="199.97 247.52 199.97 249.64 202.37 248.32 202.36 246.2 199.97 247.52"/><polygon class="cls-18" points="203.9 245.36 203.9 247.48 206.3 246.16 206.29 244.04 203.9 245.36"/><polygon class="cls-18" points="177.87 237.41 177.88 239.53 180.28 238.21 180.27 236.09 177.87 237.41"/><polygon class="cls-18" points="188.17 231.74 188.18 233.86 190.57 232.55 190.57 230.43 188.17 231.74"/><polygon class="cls-18" points="196.04 227.42 196.04 229.54 198.44 228.22 198.43 226.1 196.04 227.42"/><polygon class="cls-18" points="203.9 223.09 203.9 225.22 206.3 223.9 206.29 221.78 203.9 223.09"/><polygon class="cls-18" points="177.87 215.14 177.88 217.26 180.28 215.95 180.27 213.83 177.87 215.14"/><polygon class="cls-18" points="184.24 211.64 184.25 213.76 186.65 212.44 186.64 210.32 184.24 211.64"/><polygon class="cls-18" points="188.17 209.48 188.18 211.6 190.57 210.28 190.57 208.16 188.17 209.48"/><polygon class="cls-18" points="199.97 202.99 199.97 205.12 202.37 203.8 202.36 201.68 199.97 202.99"/><polygon class="cls-18" points="203.9 200.83 203.9 202.95 206.3 201.64 206.29 199.51 203.9 200.83"/><polygon class="cls-18" points="184.24 189.38 184.25 191.5 186.65 190.18 186.64 188.06 184.24 189.38"/><polygon class="cls-18" points="188.17 187.22 188.18 189.34 190.57 188.02 190.57 185.9 188.17 187.22"/><polygon class="cls-18" points="196.04 182.89 196.04 185.01 198.44 183.7 198.43 181.57 196.04 182.89"/><polygon class="cls-18" points="199.97 180.73 199.97 182.85 202.37 181.53 202.36 179.41 199.97 180.73"/><polygon class="cls-18" points="206.3 179.37 206.29 177.25 203.9 178.57 203.9 180.69 206.3 179.37"/><path class="cls-19" d="M83.5,279.36l0,13a4.17,4.17,0,0,0,2.19,3.6l32.59,17.95a6.39,6.39,0,0,0,6.16,0l32.73-18.13a4.15,4.15,0,0,0,2.18-3.64q0-6.37-.1-12.74Z" transform="translate(-4.63 -14.39)"/><path class="cls-13" d="M84.31,278l34.81-19.14a4.75,4.75,0,0,1,4.54,0L158.48,278a1.51,1.51,0,0,1,0,2.68l-34.82,19.14a4.75,4.75,0,0,1-4.54,0L84.31,280.7A1.51,1.51,0,0,1,84.31,278Z" transform="translate(-4.63 -14.39)"/><path class="cls-20" d="M83.5,257.1l0,13a4.14,4.14,0,0,0,2.19,3.6l32.59,18a6.42,6.42,0,0,0,6.16,0l32.73-18.14a4.13,4.13,0,0,0,2.18-3.63q0-6.37-.1-12.74Z" transform="translate(-4.63 -14.39)"/><path class="cls-13" d="M84.31,255.76l34.81-19.14a4.7,4.7,0,0,1,4.54,0l34.82,19.14a1.51,1.51,0,0,1,0,2.67l-34.82,19.15a4.75,4.75,0,0,1-4.54,0L84.31,258.43A1.51,1.51,0,0,1,84.31,255.76Z" transform="translate(-4.63 -14.39)"/><path class="cls-21" d="M83.5,234.83l0,13a4.14,4.14,0,0,0,2.19,3.6l32.59,18a6.42,6.42,0,0,0,6.16,0l32.73-18.14a4.14,4.14,0,0,0,2.18-3.64q0-6.36-.1-12.74Z" transform="translate(-4.63 -14.39)"/><path class="cls-13" d="M84.31,233.5l34.81-19.15a4.75,4.75,0,0,1,4.54,0l34.82,19.15a1.51,1.51,0,0,1,0,2.67l-34.82,19.14a4.7,4.7,0,0,1-4.54,0L84.31,236.17A1.51,1.51,0,0,1,84.31,233.5Z" transform="translate(-4.63 -14.39)"/><path class="cls-22" d="M83.5,212.57l0,13a4.17,4.17,0,0,0,2.19,3.6l32.59,18a6.39,6.39,0,0,0,6.16,0L157.2,229a4.15,4.15,0,0,0,2.18-3.64q0-6.37-.1-12.74Z" transform="translate(-4.63 -14.39)"/><path class="cls-13" d="M84.31,211.23l34.81-19.14a4.75,4.75,0,0,1,4.54,0l34.82,19.14a1.51,1.51,0,0,1,0,2.68l-34.82,19.14a4.75,4.75,0,0,1-4.54,0L84.31,213.91A1.51,1.51,0,0,1,84.31,211.23Z" transform="translate(-4.63 -14.39)"/><polygon class="cls-17" points="140.78 280.4 140.79 282.52 143.18 281.21 143.18 279.08 140.78 280.4"/><polygon class="cls-17" points="128.99 264.63 128.99 266.75 131.39 265.43 131.38 263.31 128.99 264.63"/><polygon class="cls-17" points="140.78 258.14 140.79 260.26 143.18 258.94 143.18 256.82 140.78 258.14"/><polygon class="cls-17" points="128.99 242.36 128.99 244.48 131.39 243.16 131.38 241.04 128.99 242.36"/><polygon class="cls-17" points="132.92 217.94 132.93 220.06 135.32 218.74 135.31 216.62 132.92 217.94"/><polygon class="cls-18" points="122.62 290.39 122.63 292.51 125.02 291.2 125.01 289.07 122.62 290.39"/><polygon class="cls-18" points="128.99 286.89 128.99 289.01 131.39 287.69 131.38 285.57 128.99 286.89"/><polygon class="cls-18" points="132.92 284.73 132.93 286.85 135.32 285.53 135.31 283.41 132.92 284.73"/><polygon class="cls-18" points="144.71 278.24 144.72 280.36 147.11 279.05 147.11 276.92 144.71 278.24"/><polygon class="cls-18" points="148.64 276.08 148.65 278.2 151.04 276.88 151.04 274.76 148.64 276.08"/><polygon class="cls-18" points="122.62 268.13 122.63 270.25 125.02 268.93 125.01 266.81 122.62 268.13"/><polygon class="cls-18" points="132.92 262.46 132.93 264.58 135.32 263.27 135.31 261.15 132.92 262.46"/><polygon class="cls-18" points="144.71 255.98 144.72 258.1 147.11 256.78 147.11 254.66 144.71 255.98"/><polygon class="cls-18" points="148.64 253.82 148.65 255.94 151.04 254.62 151.04 252.5 148.64 253.82"/><polygon class="cls-18" points="122.62 245.86 122.63 247.99 125.02 246.67 125.01 244.55 122.62 245.86"/><polygon class="cls-18" points="132.92 240.2 132.93 242.32 135.32 241 135.31 238.88 132.92 240.2"/><polygon class="cls-18" points="140.78 235.88 140.79 238 143.18 236.68 143.18 234.56 140.78 235.88"/><polygon class="cls-18" points="144.71 233.72 144.72 235.84 147.11 234.52 147.11 232.4 144.71 233.72"/><polygon class="cls-18" points="148.64 231.55 148.65 233.68 151.04 232.36 151.04 230.24 148.64 231.55"/><polygon class="cls-18" points="122.62 223.6 122.63 225.72 125.02 224.41 125.01 222.28 122.62 223.6"/><polygon class="cls-18" points="128.99 220.1 128.99 222.22 131.39 220.9 131.38 218.78 128.99 220.1"/><polygon class="cls-18" points="140.78 213.61 140.79 215.73 143.18 214.42 143.18 212.29 140.78 213.61"/><polygon class="cls-18" points="144.71 211.45 144.72 213.57 147.11 212.25 147.11 210.13 144.71 211.45"/><polygon class="cls-18" points="148.64 209.29 148.65 211.41 151.04 210.09 151.04 207.97 148.64 209.29"/><path d="M402.23,14.39a8.92,8.92,0,0,1,4.27,1.09l8.14,4.46L631.46,138.68a10.26,10.26,0,0,1,5.45,9l-1.18,151.36h0a10.42,10.42,0,0,1-1.57,5.38L633,306.32a18.79,18.79,0,0,1-6.75,6.41l-1.65.93a3.61,3.61,0,0,1-3.41.06l-34.1-17.6L395,67q-2.69-23.16-5.38-46.31C393.4,18.3,400.56,14.39,402.23,14.39Z" transform="translate(-4.63 -14.39)"/><path class="cls-23" d="M625.94,311V154.09a10.31,10.31,0,0,0-5.45-9L393.87,20.48a4,4,0,0,0-5.94,3.26V180.6a10.3,10.3,0,0,0,5.45,9L620,314.22A4,4,0,0,0,625.94,311Z" transform="translate(-4.63 -14.39)"/><path class="cls-24" d="M614.91,297.64V155.32a9.34,9.34,0,0,0-4.95-8.15L404.35,34.09a3.6,3.6,0,0,0-5.39,3V179.37a9.35,9.35,0,0,0,5,8.16L609.52,300.6A3.6,3.6,0,0,0,614.91,297.64Z" transform="translate(-4.63 -14.39)"/><g class="cls-25"><path class="cls-26" d="M432.44,152.2c-1.05.85-2.66.87-4.47-.12a11.92,11.92,0,0,1-5.71-9.43c0-3.47,2.58-4.87,5.75-3.12a8.92,8.92,0,0,1,1.57,1.1l.67-2.2a13.67,13.67,0,0,0-2.23-1.57c-4.51-2.48-8.18-.48-8.19,4.45s3.63,10.95,8.14,13.43c2.56,1.41,4.86,1.38,6.36.17Z" transform="translate(-4.63 -14.39)"/><path class="cls-26" d="M457.7,162.8l-2.43-1.22v.27c0,3.47-2.58,4.87-5.75,3.13a11.9,11.9,0,0,1-5.72-9.43c0-3.47,2.59-4.87,5.76-3.13a11.83,11.83,0,0,1,4.58,5l1.94-.53a16.74,16.74,0,0,0-6.52-7.17c-4.5-2.48-8.17-.49-8.19,4.45s3.63,10.95,8.14,13.43,8.18.48,8.19-4.45Z" transform="translate(-4.63 -14.39)"/><path class="cls-18" d="M430.79,138.6l-.67,2.19a11.92,11.92,0,0,1,4.14,8.33,4,4,0,0,1-1.28,3.24l1.88,2.71a5.71,5.71,0,0,0,1.84-4.62C436.71,146.37,434.21,141.54,430.79,138.6Z" transform="translate(-4.63 -14.39)"/><path class="cls-18" d="M456.59,156.93l-1.95.52a10.23,10.23,0,0,1,1.12,4.13l2.43,1.22A14.6,14.6,0,0,0,456.59,156.93Z" transform="translate(-4.63 -14.39)"/><polygon class="cls-18" points="527.55 213.24 508.29 202.64 508.28 203.75 527.54 214.34 527.55 213.24"/><polygon class="cls-18" points="508.26 210.67 519.52 216.86 519.53 215.76 508.26 209.57 508.26 210.67"/><polygon class="cls-18" points="525.17 207.3 508.3 198.03 508.3 199.13 525.16 208.41 525.17 207.3"/><polygon class="cls-18" points="519.57 199.88 508.31 193.69 508.31 194.79 519.57 200.99 519.57 199.88"/><polygon class="cls-18" points="533.82 217.79 544.17 223.48 544.17 222.38 533.82 216.69 533.82 217.79"/><polygon class="cls-18" points="541.7 224.44 544.16 225.79 544.17 224.69 541.7 223.33 541.7 224.44"/><polygon class="cls-18" points="526.99 220.97 543.72 230.17 543.72 229.06 526.99 219.86 526.99 220.97"/><polygon class="cls-18" points="508.29 201.44 544.18 221.18 544.18 220.07 508.29 200.34 508.29 201.44"/><polygon class="cls-18" points="508.27 208.36 544.16 228.1 544.16 227 508.27 207.26 508.27 208.36"/><polygon class="cls-18" points="534.54 203.49 508.33 189.07 508.32 190.18 534.53 204.59 534.54 203.49"/><polygon class="cls-18" points="568.65 224.56 555.55 217.36 555.55 218.46 568.65 225.66 568.65 224.56"/><polygon class="cls-18" points="578.61 225.41 555.57 212.74 555.56 213.84 578.61 226.52 578.61 225.41"/><polygon class="cls-18" points="571.5 216.88 555.58 208.12 555.58 209.23 571.5 217.99 571.5 216.88"/><polygon class="cls-18" points="571.46 232.76 555.53 224 555.53 225.11 571.45 233.86 571.46 232.76"/><polygon class="cls-18" points="527.59 197.36 508.33 186.77 508.33 187.87 527.59 198.46 527.59 197.36"/><polygon class="cls-18" points="578.56 241.29 555.52 228.62 555.51 229.72 578.56 242.39 578.56 241.29"/><polygon class="cls-18" points="525.22 191.43 508.35 182.15 508.34 183.26 525.21 192.53 525.22 191.43"/><polygon class="cls-18" points="568.6 240.44 555.5 233.23 555.5 234.34 568.6 241.54 568.6 240.44"/><polygon class="cls-18" points="534.49 219.36 508.28 204.95 508.28 206.06 534.49 220.47 534.49 219.36"/><polygon class="cls-18" points="575.99 229.7 591.25 238.09 591.26 236.99 576 228.6 575.99 229.7"/><polygon class="cls-18" points="579.14 238.09 591.23 244.74 591.24 243.63 579.14 236.99 579.14 238.09"/><polygon class="cls-18" points="555.54 220.77 591.25 240.4 591.25 239.3 555.54 219.66 555.54 220.77"/><polygon class="cls-18" points="529.85 210.99 544.18 218.87 544.19 217.76 529.85 209.88 529.85 210.99"/><polygon class="cls-18" points="579.19 221.11 579.19 222.22 591.28 228.87 591.28 227.76 579.19 221.11"/><polygon class="cls-18" points="586.59 246.81 591.22 249.35 591.22 248.25 586.59 245.71 586.59 246.81"/><polygon class="cls-18" points="559.99 213.97 591.27 231.17 591.28 230.07 559.99 212.87 559.99 213.97"/><polygon class="cls-18" points="586.64 230.93 591.27 233.48 591.27 232.38 586.64 229.83 586.64 230.93"/><polygon class="cls-18" points="558.28 217.65 591.26 235.79 591.26 234.68 558.28 216.55 558.28 217.65"/><polygon class="cls-18" points="559.94 229.84 591.23 247.05 591.23 245.94 559.95 228.74 559.94 229.84"/><polygon class="cls-18" points="541.75 208.56 544.21 209.92 544.22 208.81 541.75 207.45 541.75 208.56"/><polygon class="cls-18" points="508.32 192.49 544.21 212.22 544.21 211.12 508.32 191.38 508.32 192.49"/><polygon class="cls-18" points="543.77 213.19 527.04 203.99 527.03 205.09 543.76 214.29 543.77 213.19"/><polygon class="cls-18" points="533.86 201.91 544.22 207.6 544.22 206.5 533.87 200.81 533.86 201.91"/><polygon class="cls-18" points="529.9 195.11 544.23 202.99 544.24 201.89 529.9 194 529.9 195.11"/><polygon class="cls-18" points="575.95 245.58 591.21 253.97 591.21 252.87 575.95 244.48 575.95 245.58"/><polygon class="cls-18" points="508.34 185.56 544.23 205.3 544.23 204.2 508.34 184.46 508.34 185.56"/><polygon class="cls-18" points="555.49 236.64 591.2 256.28 591.2 255.17 555.5 235.54 555.49 236.64"/><polygon class="cls-18" points="558.23 233.53 591.21 251.66 591.22 250.56 558.24 232.42 558.23 233.53"/><polygon class="cls-18" points="442.9 104.2 419.9 91.55 419.89 92.87 442.89 105.52 442.9 104.2"/><polygon class="cls-18" points="419.87 101.14 433.32 108.53 433.32 107.22 419.87 99.82 419.87 101.14"/><polygon class="cls-18" points="440.06 97.12 419.91 86.04 419.91 87.36 440.05 98.44 440.06 97.12"/><polygon class="cls-18" points="433.38 88.26 419.93 80.86 419.93 82.18 433.37 89.57 433.38 88.26"/><polygon class="cls-18" points="461.23 114.28 450.39 108.32 450.39 109.64 461.23 115.6 461.23 114.28"/><polygon class="cls-18" points="461.23 122.56 442.23 112.12 442.23 113.43 461.23 123.88 461.23 122.56"/><polygon class="cls-18" points="461.23 111.53 419.9 88.8 419.9 90.12 461.23 112.84 461.23 111.53"/><polygon class="cls-18" points="461.23 119.81 419.88 97.07 419.88 98.38 461.23 121.13 461.23 119.81"/><polygon class="cls-18" points="451.25 92.56 419.94 75.35 419.94 76.67 451.25 93.88 451.25 92.56"/><polygon class="cls-18" points="442.96 85.24 419.95 72.59 419.95 73.91 442.95 86.56 442.96 85.24"/><polygon class="cls-18" points="440.12 78.16 419.97 67.08 419.97 68.4 440.11 79.48 440.12 78.16"/><polygon class="cls-18" points="451.19 111.52 419.89 94.31 419.88 95.63 451.19 112.84 451.19 111.52"/><polygon class="cls-18" points="461.23 108.76 445.65 100.19 445.65 101.52 461.23 110.08 461.23 108.76"/><polygon class="cls-18" points="461.23 100.81 419.94 78.11 419.93 79.42 461.23 102.13 461.23 100.81"/><polygon class="cls-18" points="461.23 103.57 442.29 93.16 442.29 94.47 461.23 104.89 461.23 103.57"/><polygon class="cls-18" points="461.23 95.29 450.45 89.36 450.44 90.68 461.23 96.61 461.23 95.29"/><polygon class="cls-18" points="461.23 89.77 445.71 81.23 445.71 82.56 461.23 91.09 461.23 89.77"/><polygon class="cls-18" points="461.23 92.53 419.96 69.84 419.96 71.16 461.23 93.85 461.23 92.53"/><path d="M483.22,105.5l-.56-.31-.14,46.39.56-.85Z" transform="translate(-4.63 -14.39)"/><path d="M483.45,152.16l-.16.11-.18-.27c-.09.14-.18.29-.28.43l113.25,62.28v-.62Z" transform="translate(-4.63 -14.39)"/><path d="M521.28,161.64c-.42-.23-.84-.49-1.27-.78a19.14,19.14,0,0,1-4.8-5.07,25.83,25.83,0,0,0-5.35-5.81,21.26,21.26,0,0,0-2.87-1.9c-6.84-3.76-14.63-2.78-23.22,2.93l-.66,1,.18.27.16-.11c8.77-6.08,16.67-7.24,23.54-3.46a20.83,20.83,0,0,1,2.75,1.83,24.51,24.51,0,0,1,5.13,5.57,20.06,20.06,0,0,0,5.07,5.33c.44.3.88.57,1.3.81,4.26,2.33,7.89,1.4,11.28-.5-.15-.2-.29-.42-.43-.63C528.76,163,525.33,163.87,521.28,161.64Z" transform="translate(-4.63 -14.39)"/><path d="M590.94,185.64a22.73,22.73,0,0,1-13.52-2.87,29.31,29.31,0,0,1-2.67-1.66,33.86,33.86,0,0,1-7.18-6.91l-.37.27a34.76,34.76,0,0,0,7.47,7.21,31.38,31.38,0,0,0,2.76,1.72,23.23,23.23,0,0,0,13.8,2.93Z" transform="translate(-4.63 -14.39)"/><path d="M552.91,155.13l-.54-.31c-6.27-3.45-11.15,0-15.89,3.4-1.34.95-2.66,1.88-4,2.67l.42.63c1.36-.8,2.68-1.73,4-2.66,4.67-3.31,9.5-6.7,15.53-3.39l.45.26c4,2.4,6.37,6.37,9.16,11a83.56,83.56,0,0,0,4.7,7.18l.37-.27a81,81,0,0,1-4.67-7.13C559.69,161.94,557.1,157.66,552.91,155.13Z" transform="translate(-4.63 -14.39)"/><path class="cls-18" d="M579.9,159.55q-6.45,9.4-12.79,14l-.37.27c-6.84,4.86-13.55,5.53-20,2l-.43-.25c-5.29-3.06-9.49-8.37-13.36-14.06l-.42-.63c-1-1.47-2-2.95-2.91-4.42-4.93-7.58-10-15.42-17-19.27l-.12-.06c-9.85-5.34-19.72-.76-29.36,13.59l-.56.85-.26.39.5.57.07-.11c.1-.14.19-.29.28-.43l.66-1c9.47-14,19.11-18.43,28.68-13.25l.11.06c6.78,3.73,11.57,11.1,16.64,18.89.95,1.47,1.91,2.95,2.89,4.4.14.21.28.43.43.63,4,5.83,8.25,11.27,13.73,14.45l.44.26c6.67,3.66,13.53,3,20.51-2l.37-.27q6.36-4.66,12.83-14.08Z" transform="translate(-4.63 -14.39)"/><path class="cls-27" d="M483.87,190.37c-1.77,1.09-4.23.88-6.76-.51a14,14,0,0,1-2.3-1.59l-10.15-8.45a14.31,14.31,0,0,0-2.32-1.59,9.13,9.13,0,0,0-3.65-1.19l-10.64-.84a9.21,9.21,0,0,1-3.66-1.18,17.62,17.62,0,0,1-5.41-4.9l-.38-.51a17.65,17.65,0,0,0-5.42-4.91,7.89,7.89,0,0,0-5.22-1.1l-16.69,3.28v.51l20.09,5.42a11.12,11.12,0,0,1,2.5,1q.54.3,1.08.66l3.68,2.45q.54.36,1.08.66c2.65,1.46,5.21,1.72,7.12.71l1.24-.66c1.93-1,4.51-.73,7.12.71a17.24,17.24,0,0,1,3.75,2.85l18.16,18a17.23,17.23,0,0,0,3.75,2.85,12,12,0,0,0,1.85.83l13.93,2.61.07-23Z" transform="translate(-4.63 -14.39)"/><path class="cls-18" d="M482.69,202.87a12,12,0,0,1-1.85-.83,17.23,17.23,0,0,1-3.75-2.85l-18.16-18a17.24,17.24,0,0,0-3.75-2.85c-2.61-1.44-5.19-1.74-7.12-.71l-1.24.66c-1.91,1-4.47.75-7.12-.71q-.54-.3-1.08-.66l-3.68-2.45q-.54-.36-1.08-.66a11.12,11.12,0,0,0-2.5-1l-20.09-5.42v3.23l85.32,46.92,0-12.06Z" transform="translate(-4.63 -14.39)"/></g><path d="M125.56,338.91l.16,15.23a16.25,16.25,0,0,0,8.58,14L332,477.06a23.74,23.74,0,0,0,22.86,0c87.38-48.4,175.19-97.06,199.65-110.53a12.71,12.71,0,0,0,6.71-11l.09-16.54Z" transform="translate(-4.63 -14.39)"/><path class="cls-28" d="M130.22,331.23,330.37,221.16a27.31,27.31,0,0,1,26.14,0L556.66,331.23a8.66,8.66,0,0,1,0,15.36L356.51,456.66a27.26,27.26,0,0,1-26.14,0L130.22,346.59A8.66,8.66,0,0,1,130.22,331.23Z" transform="translate(-4.63 -14.39)"/><path class="cls-29" d="M149.17,331.91,331.53,231.63a24.87,24.87,0,0,1,23.82,0L537.71,331.91a7.89,7.89,0,0,1,0,14L355.35,446.19a24.81,24.81,0,0,1-23.82,0L149.17,345.91A7.9,7.9,0,0,1,149.17,331.91Z" transform="translate(-4.63 -14.39)"/><path class="cls-30" d="M373.08,436.43q-3.72,2.07-7.47,4.12a60.91,60.91,0,0,1-19.18-6.7c-8.53-4.76-7.58-7.11-14.43-10.78-11.55-6.16-17.58-1.26-32.94-7.79-1.2-.51-2.67-1-4.27-1.75a23.57,23.57,0,0,1-7-4.65l0,0c-2.92-2.89-4.36-6.08-6.29-9.5a34.77,34.77,0,0,0-4.14-6A38.31,38.31,0,0,0,274,390c-3.4-2.92-24.75-14.87-54.52-30.22L288,330.26c10.91,24.52,15,37.44,16.64,44.76,1.77,8,3.05,11.34,6.48,17.69a54,54,0,0,0,5.82,9c8.06,9.8,13.62,6.72,29.45,21.05a52,52,0,0,0,13.81,9.73A49.22,49.22,0,0,0,373.08,436.43Z" transform="translate(-4.63 -14.39)"/><path class="cls-23" d="M294.51,319.2q-13.1,22.13-26.17,44.28l-9-.67-1.2-.09-38.75-2.9L183.5,329.76l7.26-25.19,2-.7,15-5.17.35-.12,10.74-31.86L228.25,256h0l2.59-3h9.06l7.24,26.52,31.15,4.35c.15.33.3.67.46,1Q286.64,302,294.51,319.2Z" transform="translate(-4.63 -14.39)"/><path class="cls-30" d="M509.27,361.55l-7.29,4-8.21,4.52-7.42,4.07-7.51,4.14-35.11,19.3a62.81,62.81,0,0,1-17.47-8c-8.34-5.67-22.33-18.43-22.33-18.43s-12.8-37.57-13.78-38.66c-.29-.31-2.43-.63-5.78-1.11-2.07-.29-4.6-.64-7.44-1.07-6.75-1-27.22-5.91-31.24-7.27-14.45-4.87-32.81-34.23-44.81-74.55l22-12.46c10.86,43,22.77,53.56,32.07,54.61s19.85-7,32.9-1.94c2.95,1.14,8,3.09,10.79,7.8,2.51,4.26,1.23,7.45,3.86,9.89,3.83,3.53,11.52,1.37,13.65.86,27.52-6.48,83.35,38.17,83.35,38.17h0a13.26,13.26,0,0,0,1.9,10.7A14.3,14.3,0,0,0,509.27,361.55Z" transform="translate(-4.63 -14.39)"/><path class="cls-31" d="M439.67,260.66a3.87,3.87,0,0,0-5.2-1l-46.64,29.07-9.21,5.74a3.52,3.52,0,0,0-1.69,3V330.3c2.84.43,5.37.78,7.44,1.07a3.2,3.2,0,0,0,.07-.7V299.35l4.61-2.88,49.52-30.86A3.48,3.48,0,0,0,439.67,260.66Z" transform="translate(-4.63 -14.39)"/><path class="cls-32" d="M457.84,252.4c-3.15-4.52-47.24-26.4-51-28.27L399,219.79a1.18,1.18,0,0,1-.15-2l14.77-11.45a1.17,1.17,0,0,0-.13-2l-31.45-18.68a1.05,1.05,0,0,1,0-1.84l5.85-3.29v-9.09l-16,12.74a1.75,1.75,0,0,0,.17,2.89l27.77,17.36a1.17,1.17,0,0,1,.09,1.95l-15.66,11.83a1.18,1.18,0,0,0,.15,2l69.61,38.33a4.09,4.09,0,0,0,1.88.48,3.79,3.79,0,0,0,3.25-1.79C460.18,255.7,458.18,252.88,457.84,252.4Z" transform="translate(-4.63 -14.39)"/><polygon class="cls-23" points="494.85 331.02 459.13 356.75 439.09 373.18 438.65 373.55 399.29 356.75 382.46 331.02 387.68 315.71 392.23 313.42 405.64 306.64 405.64 292 416.75 274.69 416.75 209.44 416.78 209.4 426.11 194.04 431.44 186.28 444.74 194.66 446.63 195.84 451.33 228.07 453.29 241.53 453.75 244.68 476.98 256.95 477.17 257.71 480.87 273.07 494.85 331.02"/><path class="cls-33" d="M294.51,319.2q-13.1,22.13-26.17,44.28l-9-.67-1.2-.09.61-.64L270.41,350l5.75-20.41-2.88-12.8q-2.4-5.22-4.79-10.44L258,310.51l-10.32-1.68L236.19,313a27.83,27.83,0,0,1,8-12.29c5.46-4.81,15.69-9.9,25-6.4a18.77,18.77,0,0,1,7,4.8l-2.23-7.48,4.83-6.74Q286.64,302,294.51,319.2Z" transform="translate(-4.63 -14.39)"/><polygon class="cls-33" points="223.62 241.56 223.02 245.07 223.02 257.19 215.75 266.95 214.23 276.24 205.01 292.52 203.14 284.3 203.49 284.18 214.23 252.32 223.62 241.56"/><path class="cls-33" d="M259.38,362.81l-1.2-.09-38.75-2.9L183.5,329.76l7.26-25.19,2-.7-.52,15.93,22.26,13.11V346l8.84-1.53,8.07-15.84,10-3.42L250,336.56V351.8l3.48,4.57,5.34,5.71Z" transform="translate(-4.63 -14.39)"/><polygon class="cls-33" points="494.85 331.02 459.13 356.75 439.09 373.18 445.64 357.6 475.01 310.63 480.87 273.07 494.85 331.02"/><polygon class="cls-33" points="419.34 273.3 422.92 292.86 413.99 300.79 411.61 313.84 413.99 326.69 409.22 346.16 399.11 331.42 394.05 314.69 392.23 313.42 405.64 306.64 405.64 292 416.75 274.69 416.75 209.44 416.78 209.4 422.92 230.2 419.34 273.3"/><path class="cls-33" d="M481.8,272.11l-2.46,4.24L482.55,304l-22-9.73-18.16-15.73q-4.53-10-9-20l24.53-2.68.46,3.14Z" transform="translate(-4.63 -14.39)"/><polygon class="cls-33" points="444.65 224.25 444.65 209.22 441.67 201.42 444.74 194.66 446.63 195.84 451.33 228.07 444.65 224.25"/><path class="cls-34" d="M284.65,302.37a29.84,29.84,0,0,1-5.36,4.77l-3.58-3.39-5.53-5.24-3.31-3.15-5.76,5-1.27,1.11-2.92,2.56-.49.42a27.72,27.72,0,0,1-4.53-8.13,41.56,41.56,0,0,1-2-7.66c-.08-.47-.15-.95-.22-1.42-.24-1.81-.38-3.65-.44-5.51a58.64,58.64,0,0,1,.38-8.55c.07-.65.15-1.31.25-2s.19-1.19.31-1.78A61,61,0,0,1,256,251.92a45.71,45.71,0,0,1,6.47-9.47,25.82,25.82,0,0,1,11-7.61l-1-1.66h0l2.33.31,4.27.59a12.87,12.87,0,0,1,2.48.33c5.69,1.28,10.64,6,13.61,14.05C301.36,265,296.63,289.15,284.65,302.37Z" transform="translate(-4.63 -14.39)"/><path class="cls-35" d="M288.54,247.56c-3-8-8-12.79-13.67-14.07a13.89,13.89,0,0,0-2.33-.31h0c-5.45-.3-11.36,2.43-16.74,8.38-7.86,8.7-12.61,22.1-13.19,35-.08,1.73-.08,3.46,0,5.17s.23,3.42.47,5.08a41.78,41.78,0,0,0,2.16,8.68,26.72,26.72,0,0,0,5.45,9.2h.71l0,.16c0-.05,0-.11,0-.16h4.83l.21-.18.49-.42,2.92-2.56,1.27-1.11-.83-.2-.47-.14a.11.11,0,0,1-.07,0l-.14,0-.26-.1-.48-.19a9,9,0,0,1-.83-.4l-.39-.22a4.36,4.36,0,0,1-.41-.24,4.13,4.13,0,0,1-.38-.25,3.48,3.48,0,0,1-.39-.28c-.42-.31-.83-.66-1.24-1a15.9,15.9,0,0,1-2.39-2.87l-.27-.41a21.41,21.41,0,0,1-1.22-2.24c-.1-.22-.21-.44-.31-.67-.2-.45-.39-.93-.57-1.42a3.28,3.28,0,0,1-.17-.5q-.34-.93-.6-1.89a34.58,34.58,0,0,1-1.09-6.13c-.92-9.95,1.86-21.26,7.4-29.23a30.59,30.59,0,0,1,2.46-3.11c4.1-4.53,8.6-6.6,12.75-6.36l.37,0c.32,0,.63.07.94.12s.64.13,1,.22l.31.09a2.13,2.13,0,0,1,.33.11,4.68,4.68,0,0,1,.48.18,11.66,11.66,0,0,1,2.6,1.43l.31.23c.24.19.48.39.73.61h0a18.06,18.06,0,0,1,4.25,5.94c.07.16.14.3.21.45.2.48.41,1,.6,1.49,4.64,12.54,1.05,30.84-8,40.87a22.62,22.62,0,0,1-5.1,4.28l5.53,5.24c.77-.7,1.51-1.45,2.26-2.27C289.93,288.25,294.66,264.11,288.54,247.56Z" transform="translate(-4.63 -14.39)"/><path class="cls-36" d="M275.28,294.23a22.62,22.62,0,0,1-5.1,4.28l-3.31-3.15-5.76,5-.83-.2-.47-.14-.07,0-.14-.05-.26-.1-.48-.19a9,9,0,0,1-.83-.4l-.39-.22-.41-.24a4.13,4.13,0,0,1-.38-.25c-.14-.09-.26-.18-.39-.28-.42-.31-.83-.66-1.24-1a15.9,15.9,0,0,1-2.39-2.87l-.27-.41a21.41,21.41,0,0,1-1.22-2.24c-.1-.22-.21-.44-.31-.67-.2-.45-.39-.93-.57-1.42a3.28,3.28,0,0,1-.17-.5q-.34-.93-.6-1.89a34.58,34.58,0,0,1-1.09-6.13c-.92-9.95,1.86-21.26,7.4-29.23a30.59,30.59,0,0,1,2.46-3.11c4.1-4.53,8.6-6.6,12.75-6.36l.37,0c.32,0,.63.07.94.12s.64.13,1,.22l.31.09a2.13,2.13,0,0,1,.33.11,4.68,4.68,0,0,1,.48.18,11.66,11.66,0,0,1,2.6,1.43l.31.23c.24.19.48.39.73.61h0a18.06,18.06,0,0,1,4.25,5.94c.07.16.14.3.21.45.2.48.41,1,.6,1.49C287.94,265.9,284.35,284.2,275.28,294.23Z" transform="translate(-4.63 -14.39)"/><path class="cls-34" d="M275.28,294.23a22.62,22.62,0,0,1-5.1,4.28l-3.31-3.15-5.76,5-.83-.2-.47-.14-.07,0-.14-.05-.26-.1-.48-.19a9,9,0,0,1-.83-.4l-.39-.22-.41-.24a4.13,4.13,0,0,1-.38-.25c-.14-.09-.26-.18-.39-.28a13.58,13.58,0,0,1-1.4-1.43,20.58,20.58,0,0,1-3.52-6.06c0-.12-.1-.25-.14-.38a33.57,33.57,0,0,1-1.84-8.38,44.34,44.34,0,0,1,.07-8.84c.07-.65.15-1.31.25-2s.19-1.19.31-1.78c1.41-7.54,4.6-14.79,9.22-19.9,6.23-6.9,13.42-8.09,18.82-4.1h0a18.06,18.06,0,0,1,4.25,5.94c.07.16.14.3.21.45.2.48.41,1,.6,1.49C287.94,265.9,284.35,284.2,275.28,294.23Z" transform="translate(-4.63 -14.39)"/><path class="cls-37" d="M278.15,267.59l4.12-4.56c-.35-.94-.7-1.89-1-2.83l-1.83-.6q-1.08,2.49-2.13,5l0-.12,0-.12-.6-1.63-.25-.67,4-4.38-1.05-2.83-1.83-.6-2.13,5-.69-1.86c-.49-1.35-1-2.69-1.49-4l-1.83-.6a8.56,8.56,0,0,0,.24,1.64c.39,1.63,1,2.14,1,3,0,.68-.27,1.66-1.85,2.9l-10,11c-1.86,2.06-2.32,2.27-3.16.74a10.34,10.34,0,0,1-.52-1l-1.84-.61c1,2.54,2,5.07,3.07,7.6q-2.35,3.27-4.69,6.55l1.82.6,2.78-3.07,1.13-1.25.52,1.39c.14.39.29.76.45,1.12-1.49,2.1-3,4.2-4.49,6.31a.6.6,0,0,0-.09.13h0l.25.12,1.45.62,3.51-3.88.71-.79a8.09,8.09,0,0,0,1.86,2l.11.07c1.58,1.06,3.57.75,5.16-1,2.23-2.46,2.71-6,2.13-9.87-.06-.44-.14-.9-.24-1.36a5.66,5.66,0,0,0,1.49,1.62,3,3,0,0,0,4.25-.67,8.94,8.94,0,0,0,2.09-5.42,12.59,12.59,0,0,0,0-1.45A13,13,0,0,0,278.15,267.59Zm-15.5,15a3.7,3.7,0,0,1-.74-1.21,1.12,1.12,0,0,1-.05-.13,4.71,4.71,0,0,1,.94-5.3l3.09-3.43,1.14-1.26.48,1.27c1.5,4.05,1.14,7-1,9.33C265,283.56,263.57,283.54,262.65,282.59Zm8.3-10.06a7.73,7.73,0,0,1-1.2-2.28l-.52-1.41,4-4.47.15-.17c.46-.51.65-.77.95-.54a3.77,3.77,0,0,1,.8,1.51,6.85,6.85,0,0,1-1.14,7C272.89,273.41,271.88,273.66,271,272.53Z" transform="translate(-4.63 -14.39)"/><path class="cls-38" d="M280.45,262.43l-1.05-2.83-2.82,3.11L275.43,264a2.41,2.41,0,0,0-.08-.25l-.85-2.29,4-4.38-1-2.83-2.82,3.12-1.14,1.26-2.18-5.88-1,1.07c.83,2.71.76,3.44-1.43,5.87l-10,11a14.08,14.08,0,0,1-1.32,1.34c-1.05.86-1.42.3-2.36-1.62l-1,1.08,2.19,5.92-3.9,4.31,1.05,2.84,3.9-4.31.52,1.38a3.14,3.14,0,0,0,.18.46l.26.66-3.93,4.35.52,1.38.53,1.45.13-.14h0l.1-.12h0l4-4.41a8.94,8.94,0,0,0,1.12,1.39,6.15,6.15,0,0,0,.74.64,3.48,3.48,0,0,0,1.94.68,4.28,4.28,0,0,0,3.33-1.6c2.48-2.75,2.8-6.88,1.89-11.23a5.05,5.05,0,0,0,2.07,2,2.86,2.86,0,0,0,1.25.26,3.36,3.36,0,0,0,2.43-1.27,9,9,0,0,0,2.08-5.42,13.43,13.43,0,0,0-.31-3.7Zm-20.37,18.35a.69.69,0,0,1-.05-.13,4.7,4.7,0,0,1,.94-5.3l4.24-4.69.47,1.27.21.59c1.25,3.74.82,6.48-1.22,8.73a4,4,0,0,1-2,1.34C261.5,282.83,260.57,282.05,260.08,280.78Zm7.84-11.13-.52-1.42,4.19-4.63c.46-.51.65-.77,1-.53a3.45,3.45,0,0,1,.72,1.3,1.18,1.18,0,0,1,.07.2,6.85,6.85,0,0,1-1.14,7,3.7,3.7,0,0,1-1.25,1C269.84,273,268.86,272.17,267.92,269.65Z" transform="translate(-4.63 -14.39)"/><path class="cls-34" d="M259.84,301.51l-2.92,2.56-.49.42-.21.18h-4.83c0,.05,0,.11,0,.16l0-.16h-7.69l-1.28,1.42-.91,1h0v0l0,.11-.13,0-1.93,2.15-.31.34-.12.13c-.34-.14-.68-.28-1-.44a40.28,40.28,0,0,1-7.41-4.44l-.74-.57c-.5-.38-1-.78-1.47-1.18l-.71-.63a41.44,41.44,0,0,1-7.76-9.08,28.62,28.62,0,0,1-3.11-6.73,15.19,15.19,0,0,1-.43-8.43l-1.31-.09,1-1.11,1.85-2a9,9,0,0,1,1.06-1.16c2.77-2.5,7.26-3.38,12.89-2.06a34.74,34.74,0,0,1,10.67,4.66,45.21,45.21,0,0,1,6,4.61l.65.62c.11.09.21.2.31.29A41.86,41.86,0,0,1,255,288.5c.26.39.52.78.76,1.18h0c0,.08.1.16.14.24a28.5,28.5,0,0,1,3.06,6.62,19.23,19.23,0,0,1,.74,3.48h0A12.38,12.38,0,0,1,259.84,301.51Z" transform="translate(-4.63 -14.39)"/><path class="cls-35" d="M256.11,299.71a20.93,20.93,0,0,0-.89-2.43,3.33,3.33,0,0,0-.16-.4,32.28,32.28,0,0,0-3.52-6.06c-.39-.56-.81-1.11-1.25-1.65-.13-.16-.26-.31-.38-.47a44.13,44.13,0,0,0-7.32-7A36.67,36.67,0,0,0,229,275c-5.64-1.31-10.14-.42-12.9,2.08a8.31,8.31,0,0,0-1,1.11c-2.11,2.72-2.65,6.76-1.16,11.67,2.85,9.41,12.25,18.91,22.26,23.08l2.86-3.16.12-.13c-.38-.09-.77-.19-1.14-.31-7.48-2.35-14.93-8.94-18.09-15.9a20.52,20.52,0,0,1-.91-2.39,13.79,13.79,0,0,1-.63-4c0-.24,0-.48,0-.71s0-.47.08-.69v0c0-.22.07-.44.12-.65a2.75,2.75,0,0,1,.11-.41,2.4,2.4,0,0,1,.12-.38,2.32,2.32,0,0,1,.16-.44,5.05,5.05,0,0,1,.24-.53,4,4,0,0,1,.28-.48,2.12,2.12,0,0,1,.12-.2,7.21,7.21,0,0,1,4.48-3h.11l.53-.11a13.48,13.48,0,0,1,3.77,0h0a18.26,18.26,0,0,1,1.93.34,29.57,29.57,0,0,1,12.58,7A27.42,27.42,0,0,1,251,298.52a12.83,12.83,0,0,1,.62,4.49c0,.1,0,.19,0,.29a5.68,5.68,0,0,1-.07.61,4,4,0,0,1-.09.5,2,2,0,0,1-.06.26h4.83l.21-.18.49-.42A18.64,18.64,0,0,0,256.11,299.71Z" transform="translate(-4.63 -14.39)"/><path class="cls-36" d="M251.62,303c0,.1,0,.19,0,.29a5.68,5.68,0,0,1-.07.61,4,4,0,0,1-.09.5,2,2,0,0,1-.06.26h-7.7l-1.28,1.42-.91,1h0v0l0,.11-.13,0-1.93,2.15-.31.34c-.38-.09-.77-.19-1.14-.31-7.48-2.35-14.93-8.94-18.09-15.9a20.52,20.52,0,0,1-.91-2.39,13.79,13.79,0,0,1-.63-4c0-.24,0-.48,0-.71s0-.47.08-.69v0c0-.22.07-.44.12-.65a2.75,2.75,0,0,1,.11-.41,2.4,2.4,0,0,1,.12-.38,2.32,2.32,0,0,1,.16-.44,5.05,5.05,0,0,1,.24-.53,4,4,0,0,1,.28-.48,2.12,2.12,0,0,1,.12-.2,7.21,7.21,0,0,1,4.48-3h.11l.53-.11a13.48,13.48,0,0,1,3.77,0h0c.62.08,1.26.19,1.93.34a29.57,29.57,0,0,1,12.58,7A27.42,27.42,0,0,1,251,298.52,12.83,12.83,0,0,1,251.62,303Z" transform="translate(-4.63 -14.39)"/><path class="cls-34" d="M251.62,303c0,.1,0,.19,0,.29a5.68,5.68,0,0,1-.07.61,4,4,0,0,1-.09.5,2,2,0,0,1-.06.26h-7.7l-1.28,1.42-.91,1h0v0l0,.11-.13,0-1.93,2.15a28.16,28.16,0,0,1-8.86-4.41l-.74-.57c-.5-.38-1-.78-1.47-1.18l-.71-.63a27.36,27.36,0,0,1-7.89-11.68c-1.72-5.67.14-9.83,4.32-11.23h.11l.53-.11a13.48,13.48,0,0,1,3.77,0h0c.62.08,1.26.19,1.93.34a29.57,29.57,0,0,1,12.58,7A27.42,27.42,0,0,1,251,298.52,12.83,12.83,0,0,1,251.62,303Z" transform="translate(-4.63 -14.39)"/><path class="cls-37" d="M244.53,299.34c-.61-2-2.48-3.55-4.89-4.63-.28-.12-.56-.24-.86-.35a3.89,3.89,0,0,0,1.46-.19,1.78,1.78,0,0,0,1.13-2.45,6.07,6.07,0,0,0-2.36-3c-.36-.25-.8-.49-.82-.51a9.2,9.2,0,0,0-1.4-.64l-1.14-3.76-2-.47-1,.74c.7,1,1.39,1.92,2.09,2.87h-.08l-.09,0-1.14-.27-.48-.11-1.09-3.61-2-.46-1,.73c.7,1,1.39,1.92,2.09,2.87l-1.31-.3-2.84-.65-1,.73a6.09,6.09,0,0,0,1,.46c1.08.38,1.58.23,2.1.53s.84.73,1,2l2.76,9.11c.51,1.69.48,2-.7,1.91l-.77-.1c-.32.25-.65.5-1,.74l5.43,1.12q1,2.39,2.09,4.76l1-.74-.76-2.52-.31-1,1,.23a8.08,8.08,0,0,0,.8.16l2.05,4.65.91-1-.85-2.8-.2-.65a5.56,5.56,0,0,0,1.83-.24l.11,0A2.26,2.26,0,0,0,244.53,299.34Zm-6.6-8c.31,1,.1,1.64-.87,1.73a5.75,5.75,0,0,1-1.74-.19l-1-.23-1.11-3.69-.05-.13c-.12-.42-.21-.61,0-.69a2.87,2.87,0,0,1,1.15.12A4.82,4.82,0,0,1,237.93,291.31Zm1,9.58-.09,0a3.28,3.28,0,0,1-2.7-2.38l-.86-2.82-.32-1.05.9.21c2.85.66,4.38,1.88,5,3.84.43,1.41-.07,2.13-1,2.27A2.84,2.84,0,0,1,238.9,300.89Z" transform="translate(-4.63 -14.39)"/><path class="cls-38" d="M243.55,300.07c-.7-2.26-3-3.89-5.76-5a3.5,3.5,0,0,0,1.85-.39,1.5,1.5,0,0,0,.6-.54,1.94,1.94,0,0,0,.14-1.71,6,6,0,0,0-2.36-3,10.21,10.21,0,0,0-2.23-1.16l-1.14-3.76-2-.46.78,2.57.31,1-.17,0-1.61-.37-1.1-3.62-2-.46.78,2.57.32,1-4.14-1,.27.88c1.84.54,2.23.84,2.84,2.84l2.77,9.1a7.53,7.53,0,0,1,.29,1.18c.12.85-.33.83-1.76.64l.27.89,4.17,1,1.07,3.57,2,.46-1.09-3.57,1,.23.33.08.47.09,1.08,3.59,1.87.42.13,0,0-.11v0h0l-1.12-3.71a6.28,6.28,0,0,0,1.18-.09,3.15,3.15,0,0,0,.64-.15,2.15,2.15,0,0,0,1.1-.79A2.58,2.58,0,0,0,243.55,300.07ZM232.2,288.85a2.45,2.45,0,0,1,1,.08l.14,0a4.81,4.81,0,0,1,3.59,3.08,2.3,2.3,0,0,1,.12,1c-.14.73-.95,1-2.73.54l-1-.23-1.16-3.82C232,289.11,232,288.93,232.2,288.85Zm2.91,10.38-1.18-3.87.9.21.42.1c2.59.69,4,1.88,4.55,3.74a2.31,2.31,0,0,1,0,1.53c-.27.68-1,.88-1.95.68l-.09,0A3.27,3.27,0,0,1,235.11,299.23Z" transform="translate(-4.63 -14.39)"/><path class="cls-34" d="M492.18,294.4a35.93,35.93,0,0,1-9.63,9.64l-3.17-4.87L477,295.43l-4.89-3.25h0l-15.89-10.53-1.92-1.27-.26-.17-2.66-1.76-5-3.33-3.29-4.2-.29-.37a80.44,80.44,0,0,1-.58-9.73v-.71c0-.14,0-.28,0-.42v0c0-.7,0-1.4.08-2.1a78.9,78.9,0,0,1,4.6-23.92,57.93,57.93,0,0,1,6.79-13.21c3.92-5.57,8.37-9.39,13-11.48l-1.55-2a0,0,0,0,1,0,0l3,0,5.68.11a19.46,19.46,0,0,1,3.24,0h0c7.55.8,14.74,6.2,19.88,16.08C507.53,243.68,505.42,275.53,492.18,294.4Z" transform="translate(-4.63 -14.39)"/><path class="cls-35" d="M488.09,223.11c-5.17-10-12.41-15.35-20-16.1a17.45,17.45,0,0,0-3,0,0,0,0,0,0,0,0c-7.08.44-14.26,4.85-20.21,13.32-7.19,10.25-11.09,24.33-11.45,38.33l8.1,10.35c-.07-.43-.13-.86-.19-1.29a62.07,62.07,0,0,1,.06-16.11q.42-3.1,1.14-6.12h0c.08-.33.16-.66.25-1,.15-.57.3-1.14.47-1.7s.24-.83.37-1.24c.21-.64.43-1.28.65-1.91s.46-1.26.71-1.87c.58-1.41,1.2-2.77,1.89-4.08a39.43,39.43,0,0,1,2.67-4.41c.59-.85,1.2-1.64,1.83-2.38.47-.55.94-1.08,1.43-1.57.17-.17.32-.33.49-.49,3.9-3.81,8.23-5.69,12.46-5.69.33,0,.65,0,1,0s.84.08,1.27.15l.36.06a13.68,13.68,0,0,1,2,.53l.57.2a16,16,0,0,1,2,.93c.17.09.35.19.52.3l.48.28.55.38h0l.6.43.41.33.33.26.43.36.7.65.4.39c.17.17.33.34.49.52l.49.53.47.57a29.66,29.66,0,0,1,3.51,5.35c8.07,15.48,6.47,39.63-3.57,53.93a27.94,27.94,0,0,1-6.66,6.88l4.89,3.25,2.42,3.74a40.4,40.4,0,0,0,4-4.92C496.64,275.38,498.74,243.53,488.09,223.11Z" transform="translate(-4.63 -14.39)"/><path class="cls-36" d="M478.73,285.3a27.94,27.94,0,0,1-6.66,6.88h0l-15.89-10.53-1.92-1.27-.26-.17-2.66-1.76-5-3.33-3.29-4.2-.29-.37L441.49,269c-.07-.43-.13-.86-.19-1.29a62.07,62.07,0,0,1,.06-16.11q.42-3.1,1.14-6.12h0c.08-.33.16-.66.25-1,.15-.57.3-1.14.47-1.7s.24-.83.37-1.24c.21-.64.43-1.28.65-1.91s.47-1.25.71-1.87c.58-1.41,1.2-2.77,1.89-4.08a39.43,39.43,0,0,1,2.67-4.41c.59-.85,1.2-1.64,1.83-2.38.47-.55.94-1.08,1.43-1.57.17-.17.32-.33.49-.49,3.9-3.81,8.23-5.69,12.46-5.69.33,0,.65,0,1,0s.84.08,1.27.15l.36.06a13.68,13.68,0,0,1,2,.53l.57.2a16,16,0,0,1,2,.93c.17.09.35.19.52.3l.48.28.55.38h0l.6.43.41.33.33.26.43.36.7.65.4.39c.17.17.33.34.49.52l.49.53.47.57a29.66,29.66,0,0,1,3.51,5.35C490.37,246.85,488.77,271,478.73,285.3Z" transform="translate(-4.63 -14.39)"/><path class="cls-34" d="M478.73,285.3a27.94,27.94,0,0,1-6.66,6.88h0l-15.89-10.53-1.92-1.27-.26-.17-2.66-1.76-5-3.33-3.29-4.2a60.12,60.12,0,0,1-.87-10.1v-.1c0-.34,0-.69,0-1v0c.19-10.78,3.16-21.68,8.7-29.58,6.89-9.81,16-12.45,23.59-8.11h0l.6.43.41.33.33.26.43.36.7.65.4.39c.17.17.33.34.49.52l.49.53.47.57a29.66,29.66,0,0,1,3.51,5.35C490.37,246.85,488.77,271,478.73,285.3Z" transform="translate(-4.63 -14.39)"/><path class="cls-37" d="M478.8,253.37a17.86,17.86,0,0,0-.77-2.86l4.56-6.5-1.83-3.5-2.45-.5q-1,3.38-1.93,6.75l-.08-.16a1.07,1.07,0,0,1-.07-.15l-1.05-2-.43-.84,4.38-6.24-1.82-3.5-2.46-.5-1.92,6.75-1.2-2.3-2.58-5-2.47-.51a11.41,11.41,0,0,0,.58,2.09c.78,2.05,1.66,2.61,1.85,3.73.15.87-.08,2.17-1.92,4l-11.05,15.73c-2.05,2.93-2.6,3.28-3.95,1.44-.25-.33-.52-.75-.83-1.23l-2.47-.5q2.61,4.67,5.2,9.34l-4.95,9.15,2.45.5,3.07-4.37,1.26-1.79.89,1.72c.25.48.51.94.77,1.37q-1.79,3.33-3.59,6.66l.26.17,1.92,1.27,2.75-3.93.8-1.13a10.31,10.31,0,0,0,2.73,2.34l.17.09c2.22,1.11,4.72.43,6.47-2.07,2.46-3.51,2.5-8.19,1.12-13.05-.15-.58-.34-1.15-.54-1.72a7.21,7.21,0,0,0,2.22,1.88c1.72.89,3.73.78,5.35-1.52a11.46,11.46,0,0,0,1.79-7.31A17.57,17.57,0,0,0,478.8,253.37Zm-18.29,18.82a4.78,4.78,0,0,1-1.16-1.45,1,1,0,0,0-.08-.15,6.12,6.12,0,0,1,.33-7l3.42-4.87,1.27-1.82.81,1.57c2.62,5,2.63,8.8.26,12.18C463.66,273.09,461.86,273.28,460.51,272.19Zm9-14.22a10.75,10.75,0,0,1-1.92-2.78l-.91-1.74,4.47-6.37.17-.24c.51-.72.71-1.08,1.13-.83a4.85,4.85,0,0,1,1.29,1.82,8.91,8.91,0,0,1-.32,9.18C472.21,258.8,471,259.27,469.55,258Z" transform="translate(-4.63 -14.39)"/><path class="cls-38" d="M475.57,250l4.56-6.5-1.82-3.5-3.13,4.45-1.26,1.8c-.05-.1-.1-.21-.16-.31l-1.47-2.82,4.39-6.25-1.83-3.5-3.12,4.45-1.26,1.8-3.79-7.27-1.07,1.53c1.51,3.38,1.55,4.34-.88,7.8l-11,15.73a19.38,19.38,0,0,1-1.5,1.94c-1.21,1.28-1.78.6-3.3-1.73l-1.07,1.53,3.81,7.31-4.32,6.15,1.83,3.5,4.31-6.15.9,1.71c.1.2.2.39.31.57s.31.54.46.8l-3.79,5.4,2.66,1.76.26.17,3-4.29a12.68,12.68,0,0,0,1.66,1.63,8.72,8.72,0,0,0,1.07.72,4.71,4.71,0,0,0,2.63.58,5.51,5.51,0,0,0,4-2.57c2.76-3.92,2.48-9.29.59-14.77a6.69,6.69,0,0,0,3,2.22,4.17,4.17,0,0,0,1.68.16,4.36,4.36,0,0,0,2.88-2,11.56,11.56,0,0,0,1.81-7.31A18.3,18.3,0,0,0,475.57,250Zm-18.68,20.23c0-.05-.05-.11-.08-.15a6.13,6.13,0,0,1,.33-7l4.69-6.69.82,1.57c.13.25.26.5.37.75,2.23,4.63,2.13,8.21-.12,11.43a5,5,0,0,1-2.39,2C459.07,272.68,457.74,271.81,456.89,270.24Zm8.28-15.55-.91-1.74,4.64-6.6c.5-.73.71-1.09,1.13-.84a4.18,4.18,0,0,1,1.16,1.57l.14.26a8.94,8.94,0,0,1-.32,9.17,4.79,4.79,0,0,1-1.46,1.46C468.2,258.72,466.79,257.81,465.17,254.69Z" transform="translate(-4.63 -14.39)"/><polygon class="cls-39" points="236.91 292.84 236.78 292.8 236.87 292.71 236.88 292.72 236.91 292.84"/><path class="cls-39" d="M251.39,304.67c0,.05,0,.11,0,.16l0-.16Z" transform="translate(-4.63 -14.39)"/><path class="cls-40" d="M295.27,389.59v22.2a3.44,3.44,0,0,1-.48,1.74,23.57,23.57,0,0,1-7-4.65l0,0v-13l-6.29,3.51L254,414.66v19.9a3.56,3.56,0,0,1-1.88,3.1,3.92,3.92,0,0,1-1.88.48,3.86,3.86,0,0,1-1.89-.49L136.93,376.29,83.79,405.45a3.87,3.87,0,0,1-5.14-1.31A3.49,3.49,0,0,1,80,399.25l55-30.2a4,4,0,0,1,3.76,0L246.5,428.35V412.6a3.54,3.54,0,0,1,1.86-3.08l29-16.16,12.28-6.86a3.94,3.94,0,0,1,3.77,0A3.55,3.55,0,0,1,295.27,389.59Z" transform="translate(-4.63 -14.39)"/><path class="cls-41" d="M609.49,407.57a3.79,3.79,0,0,1-3.21,1.72,3.89,3.89,0,0,1-1.95-.51l-52.59-30.34-40.6,22.25a3.92,3.92,0,0,1-3.76,0,3.55,3.55,0,0,1-1.87-3.1v-22.9l-11.74-4.61-7.42-2.92v7l-7.51,4.14V361.81a3.54,3.54,0,0,1,1.66-3,3.91,3.91,0,0,1,3.52-.33l18,7.06L510.7,369A3.58,3.58,0,0,1,513,372.3v19.1l36.89-20.22a3.93,3.93,0,0,1,3.82,0l54.48,31.43A3.48,3.48,0,0,1,609.49,407.57Z" transform="translate(-4.63 -14.39)"/><path class="cls-42" d="M10.31,363c0,5.56,0,45.88,0,60.37a7.84,7.84,0,0,0,4.13,6.81l38.21,21a10,10,0,0,0,9.63,0l38.4-21.27a7.81,7.81,0,0,0,4.11-6.82c0-14.45-.08-54.64-.12-60.12Z" transform="translate(-4.63 -14.39)"/><path class="cls-43" d="M11.32,361.29l43.37-23.84a5.87,5.87,0,0,1,5.66,0l43.36,23.84a1.88,1.88,0,0,1,0,3.33L60.35,388.47a5.92,5.92,0,0,1-5.66,0L11.32,364.62A1.88,1.88,0,0,1,11.32,361.29Z" transform="translate(-4.63 -14.39)"/><path class="cls-23" d="M52.46,353.45v1.13L66.08,362l8.53-4.87a2,2,0,0,0,1-2.15l-1.73-7Z" transform="translate(-4.63 -14.39)"/><path class="cls-33" d="M61.1,347.05,57,331.13l13.53,7.44,4.13,15.92a1.93,1.93,0,0,1-1,2.18L66,360.89l-13.53-7.44,7.67-4.22A1.92,1.92,0,0,0,61.1,347.05Z" transform="translate(-4.63 -14.39)"/><path d="M34.52,270.7a2.89,2.89,0,0,1,1.38.35l2.62,1.44,69.83,38.24a3.3,3.3,0,0,1,1.75,2.91l-.38,48.75h0a3.34,3.34,0,0,1-.5,1.73l-.37.59a6,6,0,0,1-2.18,2.07l-.53.3a1.16,1.16,0,0,1-1.1,0l-11-5.67-61.87-73.8q-.87-7.45-1.73-14.91A17.79,17.79,0,0,1,34.52,270.7Z" transform="translate(-4.63 -14.39)"/><path class="cls-23" d="M106.57,366.21V315.69a3.3,3.3,0,0,0-1.76-2.89l-73-40.14a1.27,1.27,0,0,0-1.91,1v50.52a3.31,3.31,0,0,0,1.75,2.89l73,40.14A1.27,1.27,0,0,0,106.57,366.21Z" transform="translate(-4.63 -14.39)"/><path class="cls-18" d="M102.92,362.07V316.23a3,3,0,0,0-1.59-2.63L35.11,277.19a1.15,1.15,0,0,0-1.73.95V324A3,3,0,0,0,35,326.6L101.19,363A1.16,1.16,0,0,0,102.92,362.07Z" transform="translate(-4.63 -14.39)"/><polygon class="cls-37" points="32.28 307.27 32.28 305.01 32.28 305.01 32.28 307.27"/><path class="cls-26" d="M87.88,335.53c-1.25.77-3,.62-4.74-.36a9.36,9.36,0,0,1-1.62-1.11l-7.13-5.93A10,10,0,0,0,72.77,327a6.43,6.43,0,0,0-2.57-.83l-7.47-.59a6.67,6.67,0,0,1-2.56-.83,12.18,12.18,0,0,1-3.8-3.44L56.1,321a12.18,12.18,0,0,0-3.81-3.44,5.47,5.47,0,0,0-3.66-.78L36.92,319v.36L51,323.2a8.05,8.05,0,0,1,1.75.73c.25.14.51.29.76.46l2.58,1.72c.26.17.51.33.76.47,1.86,1,3.66,1.2,5,.49l.87-.46c1.36-.72,3.16-.51,5,.5a12.3,12.3,0,0,1,2.63,2l12.75,12.61a12.52,12.52,0,0,0,2.63,2,9.8,9.8,0,0,0,1.3.58l9.78,1.83,0-16.14Q92.39,332.78,87.88,335.53Z" transform="translate(-4.63 -14.39)"/><path class="cls-44" d="M87.05,344.31a9.8,9.8,0,0,1-1.3-.58,12.52,12.52,0,0,1-2.63-2L70.37,329.11a12.3,12.3,0,0,0-2.63-2c-1.84-1-3.64-1.22-5-.5l-.87.46c-1.34.71-3.14.53-5-.49-.25-.14-.5-.3-.76-.47l-2.58-1.72c-.25-.17-.51-.32-.76-.46A8.05,8.05,0,0,0,51,323.2l-14.1-3.8v2.27L96.8,354.6l0-8.46Z" transform="translate(-4.63 -14.39)"/><path class="cls-45" d="M51.25,305.27a1,1,0,0,1,.54.9v.58l-8.86-4.87a1.14,1.14,0,0,1-.53-.89c0-.32.24-.45.54-.29Zm4.4,6.12a1,1,0,0,0-.54-.9l-12.18-6.7c-.3-.16-.54,0-.54.29a1.13,1.13,0,0,0,.53.89l12.73,7Zm9.84,4.81-8.59-4.72v.58a1,1,0,0,0,.55.9l8,4.42c.29.16.54,0,.54-.3A1.13,1.13,0,0,0,65.49,316.2Zm4.64-8.32L43,292.94c-.3-.17-.54,0-.54.29h0A2.26,2.26,0,0,0,43.5,295L70.67,310c.3.16.54,0,.54-.3h0A2.26,2.26,0,0,0,70.13,307.88Zm-8.91.38a1,1,0,0,0-.54-.89l-17.74-9.76c-.29-.16-.53,0-.53.29a1.12,1.12,0,0,0,.53.89l18.28,10Zm9.44,4.6-8-4.38v.58a1,1,0,0,0,.54.89L70.66,314c.3.16.54,0,.54-.29A1.1,1.1,0,0,0,70.66,312.86Zm0,3.09L53,306.26v.58a1,1,0,0,0,.54.89l17.07,9.39c.3.16.54,0,.54-.29A1.1,1.1,0,0,0,70.65,316Z" transform="translate(-4.63 -14.39)"/><path class="cls-46" d="M73.1,371.66v1.5l-13.55,7.4-35-19.28V360Z" transform="translate(-4.63 -14.39)"/><path class="cls-39" d="M24.54,360l34.88,19.19,13.68-7.57L38.21,352.47l-.39.22Zm8.21-3.25,2.66,1.46-2.06,1.14-2.66-1.47Zm8.6,1.83L44,360.09,42,361.22l-2.66-1.46Zm-2.39,1-2.66-1.46L38.36,357,41,358.44Zm5.37.68L47,361.73l-2.06,1.14-2.66-1.47Zm3,1.65L50,363.37l-2.06,1.14-2.66-1.46Zm3,1.64L53,365l-2.06,1.14-2.66-1.47Zm3,1.65L56,366.66l-2.05,1.14-2.66-1.47Zm3,1.64L59,368.3l-2.05,1.14L54.23,368Zm3,1.64L61.94,370l-2,1.14-2.67-1.47Zm3,1.65,2.66,1.46-2.06,1.14-2.66-1.46Zm0,2.91-2.06,1.14-2.66-1.46,2.06-1.14Zm-5.05-.5-2.66-1.47,2.06-1.14,2.66,1.47Zm-3-1.65-2.67-1.46,2.06-1.14,2.66,1.47Zm-3-1.64-2.67-1.46,2.06-1.14,2.66,1.46Zm-3-1.64-2.67-1.47L47.69,365l2.66,1.47Zm-3-1.65-2.66-1.46,2.05-1.14,2.66,1.46Zm-3-1.64-2.66-1.47,2.05-1.13,2.67,1.46Zm-3-1.65-2.66-1.46,2-1.14,2.67,1.47Zm-3-1.64-2.66-1.46,2-1.14,2.67,1.46Zm-1-5.7L38,356.8,36,357.94l-2.66-1.47Zm5.28,0-2,1.13L35.93,355,38,353.88Zm3,1.64-2,1.14-2.67-1.47L41,355.53Zm3,1.64-2.06,1.14-2.66-1.46L44,357.17Zm3,1.65-2.06,1.14L44.9,360,47,358.81Zm3,1.64-2.06,1.14-2.66-1.46L50,360.46Zm3,1.65-2.06,1.13-2.66-1.46,2-1.14Zm3,1.64-2.06,1.14-2.66-1.47,2.05-1.14Zm3,1.64L59.52,368l-2.66-1.46,2-1.14Zm3,1.65-2.05,1.13-2.66-1.46,2-1.14Zm3,1.64-2,1.14-2.67-1.47,2.06-1.13Zm.94,2.78-2.67-1.46,2.06-1.14,2.66,1.46Zm-2.63,1.45-2.66-1.46,2.06-1.14,2.66,1.46Zm-2.62,1.45-2.66-1.46,2.06-1.14,2.66,1.47Zm-5.28,0,2-1.14,2.67,1.47-2.06,1.14Zm-3-1.64L57,373l2.67,1.46-2.06,1.14Zm-3-1.65L54,371.39l2.66,1.46L54.64,374Zm-3-1.64,2.06-1.14,2.66,1.47-2.06,1.13ZM40,366l2.06-1.14L44,365.87l.73.41,3.32,1.82.73.4,1.93,1.06-2.06,1.14-1.92-1.06-.74-.4-3.31-1.83L42,367Zm-3-1.64,2.06-1.14,2.66,1.46-2,1.14Zm-3-1.65,2.06-1.14L38.76,363l-2,1.14Zm-3-1.64,2.05-1.14,2.66,1.46-2.05,1.14Zm-.33-.18-2.66-1.47,2.05-1.13,2.67,1.46Z" transform="translate(-4.63 -14.39)"/><polygon class="cls-39" points="38.01 350.1 40.07 348.97 42.73 350.43 40.67 351.57 38.01 350.1"/><polygon class="cls-39" points="43.99 353.39 46.05 352.25 48.71 353.72 46.65 354.86 43.99 353.39"/><polygon class="cls-39" points="41 351.75 43.06 350.61 45.72 352.07 43.66 353.21 41 351.75"/><polygon class="cls-39" points="46.98 355.04 49.04 353.9 51.7 355.36 49.64 356.5 46.98 355.04"/><polygon class="cls-39" points="49.97 356.68 52.03 355.54 54.69 357.01 52.63 358.14 49.97 356.68"/><polygon class="cls-39" points="52.96 358.32 55.01 357.19 57.68 358.65 55.62 359.79 52.96 358.32"/><polygon class="cls-39" points="31.34 343.54 28.68 342.08 30.73 340.94 33.4 342.4 31.34 343.54"/><polygon class="cls-39" points="35.02 348.46 37.08 347.32 39.74 348.79 37.69 349.93 35.02 348.46"/><polygon class="cls-39" points="29.05 345.17 31.1 344.04 33.77 345.5 31.71 346.64 29.05 345.17"/><polygon class="cls-39" points="32.03 346.82 34.09 345.68 36.75 347.14 34.7 348.28 32.03 346.82"/><polygon class="cls-39" points="48.34 350.62 46.29 351.76 43.62 350.3 45.68 349.16 48.34 350.62"/><polygon class="cls-39" points="31.67 343.72 33.72 342.58 36.39 344.05 34.33 345.19 31.67 343.72"/><polygon class="cls-39" points="42.36 347.34 40.31 348.47 37.65 347.01 39.7 345.87 42.36 347.34"/><polygon class="cls-39" points="28.72 344.99 26.06 343.53 28.11 342.39 30.78 343.86 28.72 344.99"/><polygon class="cls-39" points="39.38 345.69 37.32 346.83 34.66 345.37 36.71 344.23 39.38 345.69"/><polygon class="cls-39" points="45.35 348.98 43.3 350.12 40.63 348.65 42.69 347.51 45.35 348.98"/><polygon class="cls-39" points="57.31 355.55 55.25 356.69 52.59 355.23 54.65 354.09 57.31 355.55"/><polygon class="cls-39" points="60.3 357.2 58.24 358.34 55.58 356.87 57.64 355.73 60.3 357.2"/><polygon class="cls-39" points="54.32 353.91 52.27 355.05 49.6 353.58 51.66 352.45 54.32 353.91"/><polygon class="cls-39" points="31.3 340.63 33.36 339.49 36.02 340.95 33.96 342.09 31.3 340.63"/><polygon class="cls-39" points="51.33 352.27 49.28 353.4 46.61 351.94 48.67 350.8 51.33 352.27"/><polygon class="cls-39" points="39.37 351.48 40.11 351.88 43.42 353.71 44.16 354.11 46.09 355.17 44.03 356.31 42.1 355.25 41.37 354.84 38.05 353.02 37.32 352.62 35.39 351.56 37.45 350.42 39.37 351.48"/><polygon class="cls-39" points="60.63 357.38 63.29 358.84 61.23 359.98 58.57 358.52 60.63 357.38"/><polygon class="cls-39" points="55.05 360.1 53 361.24 50.34 359.77 52.39 358.64 55.05 360.1"/><polygon class="cls-39" points="58 358.83 60.67 360.29 58.61 361.43 55.95 359.97 58 358.83"/><polygon class="cls-39" points="34.29 342.27 36.35 341.13 39.01 342.6 36.95 343.74 34.29 342.27"/><polygon class="cls-39" points="58.04 361.75 55.99 362.88 53.33 361.42 55.38 360.28 58.04 361.75"/><polygon class="cls-39" points="52.07 358.46 50.01 359.6 47.35 358.13 49.4 356.99 52.07 358.46"/><polygon class="cls-39" points="31.14 346.95 29.09 348.09 26.42 346.63 28.48 345.49 31.14 346.95"/><polygon class="cls-39" points="25.49 343.84 28.15 345.31 26.1 346.45 23.43 344.98 25.49 343.84"/><polygon class="cls-39" points="37.12 350.24 35.06 351.38 32.4 349.91 34.46 348.77 37.12 350.24"/><polygon class="cls-39" points="34.13 348.6 32.08 349.73 29.41 348.27 31.47 347.13 34.13 348.6"/><polygon class="cls-39" points="49.08 356.81 47.02 357.95 44.36 356.49 46.41 355.35 49.08 356.81"/><polygon class="cls-39" points="46.25 348.85 48.3 347.71 50.97 349.17 48.91 350.31 46.25 348.85"/><polygon class="cls-39" points="40.27 345.56 42.32 344.42 44.99 345.88 42.93 347.02 40.27 345.56"/><polygon class="cls-39" points="43.26 347.2 45.31 346.06 47.98 347.53 45.92 348.67 43.26 347.2"/><polygon class="cls-39" points="37.28 343.91 39.34 342.78 42 344.24 39.94 345.38 37.28 343.91"/><polygon class="cls-39" points="52.22 352.13 54.28 351 56.94 352.46 54.89 353.6 52.22 352.13"/><polygon class="cls-39" points="49.24 350.49 51.29 349.35 53.95 350.81 51.9 351.95 49.24 350.49"/><polygon class="cls-39" points="55.21 353.78 57.27 352.64 59.93 354.1 57.88 355.24 55.21 353.78"/><polygon class="cls-39" points="58.2 355.42 60.26 354.28 62.92 355.75 60.87 356.88 58.2 355.42"/><polygon class="cls-39" points="63.25 355.93 65.91 357.39 63.85 358.53 61.19 357.06 63.25 355.93"/><path class="cls-47" d="M678.1,345.48c0,5.65,0,46.59-.05,61.31a7.91,7.91,0,0,1-4.19,6.9l-38.8,21.37a10.15,10.15,0,0,1-9.77,0l-39-21.6a7.92,7.92,0,0,1-4.17-6.93c0-14.67.08-55.47.13-61Z" transform="translate(-4.63 -14.39)"/><path class="cls-43" d="M677.07,343.79l-44-24.21a6,6,0,0,0-5.75,0l-44,24.21a1.9,1.9,0,0,0,0,3.38l44,24.21a6,6,0,0,0,5.75,0l44-24.21A1.9,1.9,0,0,0,677.07,343.79Z" transform="translate(-4.63 -14.39)"/><path class="cls-23" d="M634.11,337v1.15l-13.82,7.57-8.67-4.94a2,2,0,0,1-1-2.18l1.75-7.13Z" transform="translate(-4.63 -14.39)"/><path d="M625.33,330.53l4.2-16.16-13.73,7.56-4.2,16.15a2,2,0,0,0,1,2.22l7.79,4.28L634.11,337l-7.79-4.28A2,2,0,0,1,625.33,330.53Z" transform="translate(-4.63 -14.39)"/><path d="M652.32,253a2.91,2.91,0,0,0-1.39.36l-2.67,1.46-70.89,38.83a3.33,3.33,0,0,0-1.78,2.95l.38,49.5h0a3.37,3.37,0,0,0,.52,1.76l.37.6a6.1,6.1,0,0,0,2.21,2.1l.54.3a1.18,1.18,0,0,0,1.11,0l11.15-5.75,62.82-74.93,1.76-15.14A17.83,17.83,0,0,0,652.32,253Z" transform="translate(-4.63 -14.39)"/><path class="cls-23" d="M579.17,350v-51.3a3.38,3.38,0,0,1,1.78-2.94L655.06,255a1.3,1.3,0,0,1,1.94,1.07v51.29a3.36,3.36,0,0,1-1.78,2.94l-74.11,40.75A1.29,1.29,0,0,1,579.17,350Z" transform="translate(-4.63 -14.39)"/><path class="cls-18" d="M582.78,345.63V299.1a3.06,3.06,0,0,1,1.62-2.67l67.23-37a1.18,1.18,0,0,1,1.76,1V307a3.06,3.06,0,0,1-1.61,2.67l-67.24,37A1.18,1.18,0,0,1,582.78,345.63Z" transform="translate(-4.63 -14.39)"/><path class="cls-45" d="M604.18,294.5v-1.17l-16.32,9v1.38l16.66-9.18Z" transform="translate(-4.63 -14.39)"/><path class="cls-45" d="M641.51,272.8l-35.84,19.71v1.35l35.84-19.74Z" transform="translate(-4.63 -14.39)"/><path class="cls-45" d="M643,273.29l5-2.73v-1.3L643,272Z" transform="translate(-4.63 -14.39)"/><path class="cls-45" d="M631.45,284l16.5-9.09V273.6l-16.5,9.07Z" transform="translate(-4.63 -14.39)"/><path class="cls-45" d="M628.78,284.14l-40.92,22.51V308l40.92-22.55Z" transform="translate(-4.63 -14.39)"/><path class="cls-45" d="M644,281.45l4-2.2V278l-4,2.19Z" transform="translate(-4.63 -14.39)"/><path class="cls-45" d="M642,281.19l-20.21,11.12v1.34L642,282.51Z" transform="translate(-4.63 -14.39)"/><path class="cls-45" d="M620.33,293.14,587.86,311v1.38l32.47-17.89Z" transform="translate(-4.63 -14.39)"/><path class="cls-45" d="M592.84,313.86V312.6l-5,2.73v1.38l5.18-2.85Z" transform="translate(-4.63 -14.39)"/><path class="cls-45" d="M595.73,311v1.37l11.76-6.49v-1.35Z" transform="translate(-4.63 -14.39)"/><path class="cls-45" d="M608.46,305.36,648,283.6v-1.31L608.46,304Z" transform="translate(-4.63 -14.39)"/><path class="cls-45" d="M648,286.63l-60.09,33.05v1.38L648,287.94Z" transform="translate(-4.63 -14.39)"/><path class="cls-45" d="M634.34,299.79,648,292.28V291l-13.61,7.48Z" transform="translate(-4.63 -14.39)"/><path class="cls-45" d="M632.52,299.46,587.86,324v1.38l44.66-24.61Z" transform="translate(-4.63 -14.39)"/><path class="cls-45" d="M624.5,309.55,648,296.63v-1.31l-23.45,12.9Z" transform="translate(-4.63 -14.39)"/><path class="cls-45" d="M604.82,319l-17,9.33v1.38l17-9.35Z" transform="translate(-4.63 -14.39)"/><path class="cls-45" d="M606.53,318.1v1.36l16-8.85v-1.33Z" transform="translate(-4.63 -14.39)"/><path class="cls-45" d="M648,299.67l-60.09,33v1.38L648,301Z" transform="translate(-4.63 -14.39)"/><path class="cls-45" d="M638.83,310.34l9.12-5V304l-9.12,5Z" transform="translate(-4.63 -14.39)"/><path class="cls-45" d="M614.45,322.43l-26.59,14.62v1.38l26.59-14.65Z" transform="translate(-4.63 -14.39)"/><path class="cls-45" d="M616.69,321.2v1.34l19.9-11v-1.32Z" transform="translate(-4.63 -14.39)"/><path class="cls-48" d="M633.83,281.78l-1.09-.6-11.65,3.68L608,295.16q.13,6.88.26,13.76a10.77,10.77,0,0,0,.78,3.87c.75,1.84,2.11,4.15,4.45,5a23,23,0,0,0,5.76.9c.93,0,1.7,0,2.24,0Q627.65,300.27,633.83,281.78Z" transform="translate(-4.63 -14.39)"/><path class="cls-44" d="M621.38,285.92h0l-12.44,9.55q.08,6.5.14,13c.07,6.63,3.65,10.7,9.19,10.43l3.21-.15h0c1.07-1.13,2.14-2.25,3.2-3.38,5.52-5.81,9.07-13.8,9.1-20.48l.06-13.09Zm10.17,10.29c0,5.49-2.94,12-7.46,16.81l-2.63,2.76h0l-2.63.13c-4.54.21-7.48-3.12-7.54-8.56,0-3.55-.07-7.1-.11-10.65l10.2-7.83h0l10.22-3.4Q631.57,290.84,631.55,296.21Z" transform="translate(-4.63 -14.39)"/><path class="cls-44" d="M621.43,302.7a2,2,0,0,0-1,1.59c0,.45.25.69.6.65v2.36c0,.13.1.18.22.11l.29-.15a.47.47,0,0,0,.22-.36v-2.35a2,2,0,0,0,.6-1.32C622.4,302.65,622,302.41,621.43,302.7Z" transform="translate(-4.63 -14.39)"/><path class="cls-26" d="M621.38,288.87h0l-10.2,7.83c0,3.55.07,7.1.11,10.65.06,5.44,3,8.77,7.54,8.56l2.63-.13h0l2.63-2.76c4.52-4.77,7.43-11.32,7.46-16.81q0-5.37.05-10.74ZM626,306.78l-9.14,5c-.36.2-.66,0-.66-.36l0-7.54a1.37,1.37,0,0,1,.66-1.09l.44-.24V300.8a8.16,8.16,0,0,1,3.93-6.48l.35-.2c2.18-1.2,3.95-.24,4,2.15V298l.44-.24c.36-.2.66,0,.66.36l0,7.55A1.38,1.38,0,0,1,626,306.78Z" transform="translate(-4.63 -14.39)"/><path class="cls-44" d="M621.5,295.29l-.25.14a5.77,5.77,0,0,0-2.78,4.57v1.92l5.81-3.2V296.8C624.28,295.12,623,294.44,621.5,295.29Z" transform="translate(-4.63 -14.39)"/><path class="cls-18" d="M626.65,298.15c0-.4-.3-.56-.66-.36l-.44.24v-1.76c0-2.39-1.78-3.35-4-2.15l-.35.2a8.16,8.16,0,0,0-3.93,6.48v1.77l-.44.24a1.37,1.37,0,0,0-.66,1.09l0,7.54c0,.4.3.56.66.36l9.14-5a1.38,1.38,0,0,0,.65-1.08Zm-4.84,8.75a.47.47,0,0,1-.22.36l-.29.15c-.12.07-.22,0-.22-.11v-2.36c-.35,0-.6-.2-.6-.65a2,2,0,0,1,1-1.59c.53-.29,1-.05,1,.53a2,2,0,0,1-.6,1.32Zm-3.33-5V300a5.77,5.77,0,0,1,2.78-4.57l.25-.14c1.53-.85,2.78-.17,2.79,1.51v1.92Z" transform="translate(-4.63 -14.39)"/><path class="cls-46" d="M615.43,354.19v1.46l13.13,7.17,33.93-18.69v-1.2Z" transform="translate(-4.63 -14.39)"/><path class="cls-39" d="M649.62,335.81l-.38-.21-33.81,18.59,13.25,7.33,33.81-18.59Zm6.9,5.07-2.58,1.42-2-1.1,2.58-1.42Zm-8.33,1.78-2.58,1.42-2-1.1,2.58-1.42Zm-1.68-1.28,2.58-1.42,2,1.11-2.58,1.42Zm-1.22,2.87-2.58,1.42-2-1.1,2.58-1.42Zm-2.89,1.6-2.58,1.41-2-1.1,2.58-1.42Zm-2.9,1.59-2.58,1.42-2-1.11,2.58-1.41ZM636.6,349,634,350.45l-2-1.1,2.58-1.42Zm-2.89,1.59L631.13,352l-2-1.1,2.58-1.42Zm-2.9,1.6-2.58,1.42-2-1.11,2.58-1.42Zm-2.89,1.59-2.58,1.42-2-1.1,2.58-1.42Zm.54.3,2,1.11-2.58,1.41-2-1.1Zm.32-.17,2.58-1.42,2,1.1L630.77,355Zm2.9-1.59,2.58-1.42,2,1.1-2.58,1.42Zm2.89-1.6,2.58-1.42,2,1.11-2.58,1.42Zm2.9-1.59,2.58-1.42,2,1.1-2.58,1.42Zm2.9-1.59,2.58-1.42,2,1.1-2.58,1.42Zm2.89-1.6,2.58-1.41,2,1.1-2.58,1.42Zm2.9-1.59,2.58-1.42,2,1.11-2.58,1.41Zm2.89-1.59,2.58-1.42,2,1.1-2.58,1.42Zm4.93-3.32-2.58,1.42-2-1.1,2.58-1.42ZM649.45,337l2,1.11-2.58,1.42-2-1.11Zm-2.9,1.6,2,1.1L646,341.08l-2-1.1Zm-2.89,1.59,2,1.1-2.58,1.42-2-1.1Zm-2.9,1.59,2,1.11-2.58,1.41-2-1.1Zm-2.9,1.6,2,1.1-2.58,1.42-2-1.11ZM635,344.93l2,1.1-2.58,1.42-2-1.1Zm-2.9,1.59,2,1.1L631.48,349l-2-1.1Zm-2.9,1.59,2,1.11-2.58,1.42-2-1.11Zm-2.89,1.6,2,1.1-2.58,1.42-2-1.1Zm-2.9,1.59,2,1.1-2.58,1.42-2-1.1Zm-5.48,3,2.59-1.42,2,1.11-2.58,1.41Zm2.55,1.41L623,354.3l2,1.1-2.58,1.42Zm2.54,1.4,2.58-1.41,2,1.1L625,358.23Zm4.53,2.51-2-1.1,2.58-1.42,2,1.11Zm2.9-1.59-2-1.1,2.58-1.42,2,1.1Zm2.89-1.59-2-1.1,2.58-1.42,2,1.1Zm2.9-1.59-2-1.11,2.58-1.42,2,1.11Zm9.4-5.17-.71.39-3.21,1.76-.72.4-1.86,1-2-1.1,1.87-1,.71-.39,3.22-1.77.71-.39,1.87-1,2,1.1Zm2.19-1.21-2-1.1,2.58-1.42,2,1.11Zm2.89-1.59-2-1.1,2.58-1.42,2,1.1Zm2.9-1.59-2-1.1,2.58-1.42,2,1.1Zm.9-2.7,2.58-1.42,2,1.11-2.59,1.42Z" transform="translate(-4.63 -14.39)"/><polygon class="cls-39" points="640.31 332.86 638.31 331.75 635.73 333.17 637.73 334.28 640.31 332.86"/><polygon class="cls-39" points="634.51 336.04 632.52 334.94 629.94 336.36 631.93 337.46 634.51 336.04"/><polygon class="cls-39" points="637.41 334.45 635.42 333.35 632.84 334.77 634.83 335.87 637.41 334.45"/><polygon class="cls-39" points="631.62 337.64 629.62 336.53 627.04 337.95 629.04 339.06 631.62 337.64"/><polygon class="cls-39" points="628.72 339.23 626.73 338.13 624.15 339.55 626.14 340.65 628.72 339.23"/><polygon class="cls-39" points="625.82 340.82 623.83 339.72 621.25 341.14 623.24 342.24 625.82 340.82"/><polygon class="cls-39" points="646.77 326.5 649.35 325.08 647.36 323.98 644.78 325.4 646.77 326.5"/><polygon class="cls-39" points="643.2 331.26 641.21 330.16 638.63 331.58 640.62 332.68 643.2 331.26"/><polygon class="cls-39" points="649 328.08 647 326.98 644.42 328.4 646.41 329.5 649 328.08"/><polygon class="cls-39" points="646.1 329.67 644.11 328.57 641.53 329.99 643.52 331.09 646.1 329.67"/><polygon class="cls-39" points="630.29 333.36 632.29 334.46 634.87 333.05 632.88 331.94 630.29 333.36"/><polygon class="cls-39" points="646.46 326.67 644.46 325.57 641.88 326.99 643.88 328.09 646.46 326.67"/><polygon class="cls-39" points="636.09 330.18 638.08 331.28 640.66 329.86 638.67 328.76 636.09 330.18"/><polygon class="cls-39" points="649.31 327.91 651.89 326.49 649.9 325.38 647.32 326.8 649.31 327.91"/><polygon class="cls-39" points="638.99 328.58 640.98 329.69 643.56 328.27 641.57 327.16 638.99 328.58"/><polygon class="cls-39" points="633.19 331.77 635.19 332.87 637.77 331.45 635.77 330.35 633.19 331.77"/><polygon class="cls-39" points="621.61 338.14 623.6 339.24 626.18 337.82 624.19 336.72 621.61 338.14"/><polygon class="cls-39" points="618.71 339.73 620.7 340.83 623.28 339.42 621.29 338.31 618.71 339.73"/><polygon class="cls-39" points="624.5 336.55 626.5 337.65 629.08 336.23 627.08 335.13 624.5 336.55"/><polygon class="cls-39" points="646.81 323.67 644.82 322.57 642.24 323.99 644.23 325.09 646.81 323.67"/><polygon class="cls-39" points="627.4 334.95 629.39 336.06 631.97 334.64 629.98 333.54 627.4 334.95"/><polygon class="cls-39" points="638.99 334.19 638.27 334.58 635.06 336.35 634.35 336.74 632.48 337.77 634.47 338.87 636.34 337.84 637.05 337.45 640.27 335.68 640.98 335.29 642.85 334.26 640.86 333.16 638.99 334.19"/><polygon class="cls-39" points="618.39 339.91 615.81 341.32 617.81 342.43 620.39 341.01 618.39 339.91"/><polygon class="cls-39" points="623.79 342.55 625.78 343.65 628.37 342.23 626.37 341.13 623.79 342.55"/><polygon class="cls-39" points="620.93 341.31 618.35 342.73 620.35 343.83 622.93 342.42 620.93 341.31"/><polygon class="cls-39" points="643.91 325.27 641.92 324.16 639.34 325.58 641.33 326.69 643.91 325.27"/><polygon class="cls-39" points="620.9 344.14 622.89 345.24 625.47 343.82 623.48 342.72 620.9 344.14"/><polygon class="cls-39" points="626.69 340.95 628.68 342.06 631.26 340.64 629.27 339.53 626.69 340.95"/><polygon class="cls-39" points="646.96 329.8 648.96 330.9 651.54 329.49 649.54 328.38 646.96 329.8"/><polygon class="cls-39" points="652.44 326.79 649.86 328.21 651.85 329.31 654.43 327.89 652.44 326.79"/><polygon class="cls-39" points="641.17 332.99 643.16 334.09 645.74 332.67 643.75 331.57 641.17 332.99"/><polygon class="cls-39" points="644.07 331.39 646.06 332.5 648.64 331.08 646.65 329.98 644.07 331.39"/><polygon class="cls-39" points="629.59 339.36 631.58 340.46 634.16 339.04 632.16 337.94 629.59 339.36"/><polygon class="cls-39" points="632.33 331.64 630.34 330.54 627.75 331.95 629.75 333.06 632.33 331.64"/><polygon class="cls-39" points="638.12 328.45 636.13 327.35 633.55 328.77 635.54 329.87 638.12 328.45"/><polygon class="cls-39" points="635.23 330.05 633.23 328.94 630.65 330.36 632.64 331.46 635.23 330.05"/><polygon class="cls-39" points="641.02 326.86 639.02 325.76 636.44 327.18 638.44 328.28 641.02 326.86"/><polygon class="cls-39" points="626.53 334.82 624.54 333.72 621.96 335.14 623.95 336.24 626.53 334.82"/><polygon class="cls-39" points="629.43 333.23 627.44 332.13 624.86 333.55 626.85 334.65 629.43 333.23"/><polygon class="cls-39" points="623.64 336.42 621.64 335.31 619.07 336.73 621.06 337.84 623.64 336.42"/><polygon class="cls-39" points="620.74 338.01 618.75 336.91 616.17 338.33 618.16 339.43 620.74 338.01"/><polygon class="cls-39" points="615.85 338.5 613.27 339.92 615.26 341.02 617.85 339.6 615.85 338.5"/><path class="cls-49" d="M662.23,405.71c-.15,2.84-.28,5.71-.36,8.64a331.15,331.15,0,0,0,1.51,41.52l3.14-.27q2.64-20.21,5.26-40.4l1.69-9.49Z" transform="translate(-4.63 -14.39)"/><path class="cls-49" d="M692.43,455.28l2.51-.48q-.75-21.14-1.8-42.74-1-21.24-2.32-42l-13.75,1.19c1.08,12,2.7,24.85,5.06,38.38C685,426.16,688.57,441.42,692.43,455.28Z" transform="translate(-4.63 -14.39)"/><path class="cls-18" d="M695.19,401.24c-.53-6.51-.76-10.26-.88-12.51,0-.45-.09-1.73-.21-3.47-.15-2.18-.3-3.51-.44-5.69-.66-10.5.81-12.29-.42-19.1a54.37,54.37,0,0,0-2.39-8.83l-17.67-2.94q-7.87,39.48-15.73,78.94a45,45,0,0,0,22.39-7.51A41.73,41.73,0,0,0,695.19,401.24Z" transform="translate(-4.63 -14.39)"/><path class="cls-49" d="M636.61,349l-6.45,1.92-3.59.84L623,355l1.73-.09,4.05-1.5,1.47-.48-.51,1.51,1.08-.36c.38-.46.75-.93,1.12-1.39l4,.47C636.1,351.76,636.35,350.37,636.61,349Z" transform="translate(-4.63 -14.39)"/><path class="cls-50" d="M671,315.37S656,336,655.55,337s-16.94,10.07-20.08,11.8a.92.92,0,0,0-.48.86l.27,4.17a1,1,0,0,0,1.36.79c4.56-1.89,20.06-8.28,23.31-9.48,3.83-1.41,12.51-6.68,12.51-6.68Z" transform="translate(-4.63 -14.39)"/><path class="cls-50" d="M692.31,345.86c.72-9.65,1.33-16.58,2-19.66a11.24,11.24,0,0,0-.48-6.87,3.46,3.46,0,0,0-.31-.57c-3.8-6.11-16-5.4-21.68-4.8l-1.7,17.84,2.34,12.08L669.41,349c-1.18,1.84-2.72,5-1.81,8.14,1.11,3.91,5.34,5.84,13.09,9.23a100.06,100.06,0,0,0,14.18,5,24.94,24.94,0,0,1-.68-5.39,33.33,33.33,0,0,1,.23-3.85C694.6,356.34,692.55,347,692.31,345.86Z" transform="translate(-4.63 -14.39)"/><path class="cls-51" d="M692.88,326c-1-2.26-1.8-5.4-.63-8.49.84-2.23,2.16-2.89,2.84-5,.61-1.86.67-4.72-1.91-9a10.89,10.89,0,0,0-.06-9c-.14-.3-2.74-5.39-7.91-5.86-.52-.05-4.14-.38-6.29,2a5.28,5.28,0,0,0-1.1,1.83,5.89,5.89,0,0,0-2.24,1.34c-.73.69-1.74,2.06-1.9,6.44-.18,4.91.73,5.56-.14,8s-2,2.47-2.68,4.27-.74,5.05,3,10.21a15.51,15.51,0,0,1,.8-2.13,14.75,14.75,0,0,1,1.8-2.93c-.13.46-1.37,5.3,1.68,8.52S687.9,329.89,692.88,326Z" transform="translate(-4.63 -14.39)"/><path class="cls-34" d="M684.32,291.71c.49,0,11.76,1.08,12.27,4.11a3.15,3.15,0,0,1-.31,1.9c-.4.73-1.09,1.14-2.71,1.79a21.7,21.7,0,0,1-4.1,1.38c-2.47.48-11.77,1.47-17.94-4.12-1.08-1-3.32-3-2.72-4.64.53-1.43,3.1-2.23,6.35-1.9Z" transform="translate(-4.63 -14.39)"/><path class="cls-35" d="M672.32,292.86a2.66,2.66,0,0,0,.82,3,18.73,18.73,0,0,0,10.07,4.31,19.2,19.2,0,0,0,11.65-2.52,2.71,2.71,0,0,0,1.33-2,9.37,9.37,0,0,0-.68-4.93c-2.2-5.05-8.13-6.1-8.89-6.22a13.43,13.43,0,0,0-9.44,2.16A12.74,12.74,0,0,0,672.32,292.86Z" transform="translate(-4.63 -14.39)"/><path class="cls-34" d="M693.23,298.49a11,11,0,0,0-3.15-8.52,12.4,12.4,0,0,0-8.14-3.28,14.14,14.14,0,0,0-6.16,1.06,13.6,13.6,0,0,1,7.65-2.9,12.8,12.8,0,0,1,7.7,1.9,10,10,0,0,1,4.16,5c.23.64,1.47,4.14-.43,5.94A3.54,3.54,0,0,1,693.23,298.49Z" transform="translate(-4.63 -14.39)"/><path class="cls-49" d="M663.33,448.58l.06,8.94,2.7-.55,1.35-7.88Z" transform="translate(-4.63 -14.39)"/><path class="cls-51" d="M663,456.27l-.48,1.05-6.68,2.15-.79,1.17h9.9l.61-1.8.49,1.8,1.39-.16a9.72,9.72,0,0,0-.89-4.88Z" transform="translate(-4.63 -14.39)"/><polygon class="cls-49" points="685.79 433.86 687.95 441.42 690.31 440.98 690.36 433.38 685.79 433.86"/><path class="cls-51" d="M691.75,455.41c-.15.34-.31.68-.47,1l-6.57,2.11-.78,1.15h9.74l.6-1.77.48,1.77,1.36-.15a9.46,9.46,0,0,0-.12-2.41,9.25,9.25,0,0,0-.75-2.39Z" transform="translate(-4.63 -14.39)"/><path class="cls-52" d="M24.42,476.87a3.75,3.75,0,0,0-1.7-2.05q-.9-.29-1.89-.54a33.19,33.19,0,0,0-6.84-1c-.14-.16-.7-.78-1.34-1.66H5.93a15.78,15.78,0,0,1-.2,3.2c-.32,1.93-.76,2.27-.54,3a2.5,2.5,0,0,0,1,1.33l18.28-.55A3.36,3.36,0,0,0,24.42,476.87Z" transform="translate(-4.63 -14.39)"/><path class="cls-46" d="M21.5,387.69l-12,3.75A60.68,60.68,0,0,0,8.34,398c-.85,7.4-.06,12.65.32,17a92.13,92.13,0,0,1-.42,19.56q-1.8,19-3.61,38a10.35,10.35,0,0,0,5.79.29,9.77,9.77,0,0,0,3.22-1.44c1.93-11.33,3.65-23.27,5.06-35.78,1.26-11.24,2.17-22.08,2.8-32.47v-1.05c0-.06,0-.13,0-.19h0Z" transform="translate(-4.63 -14.39)"/><path class="cls-52" d="M46.34,483.05a4.1,4.1,0,0,0-1.86-2.23c-.65-.21-1.34-.41-2.06-.59A36.34,36.34,0,0,0,35,479.15a20.72,20.72,0,0,1-1.46-1.8H26.15a16.8,16.8,0,0,1-.23,3.49c-.34,2.11-.82,2.47-.59,3.31a2.78,2.78,0,0,0,1.12,1.46l20-.6A3.71,3.71,0,0,0,46.34,483.05Z" transform="translate(-4.63 -14.39)"/><path class="cls-39" d="M35.26,398.18l0-.21v0l-.9-10.3H16.91c.08.64.21,1.74.35,3.1.9,9,0,12.19,1.68,17A149.07,149.07,0,0,1,24.56,443c0,1.72,0-1.13.5,11.28q.51,12,.92,23.89l8.17-.55a449,449,0,0,0,2.37-45.25C36.54,420.29,36.07,408.88,35.26,398.18Z" transform="translate(-4.63 -14.39)"/><path class="cls-49" d="M26.58,336.61c-.07.42-.15.86-.24,1.28-.14.75-.28,1.5-.43,2.25-.19,1.06-.41,2.13-.61,3.19-.06.34-.13.68-.19,1l-.39,2.07c-.14.72-.29,1.46-.42,2.19a4.76,4.76,0,0,1-1.76.8,5.36,5.36,0,0,1-1.27.1h-.12c-2.31-.11-4.08-1.81-3.94-3.79l.09-1.33.36-5.34a3.17,3.17,0,0,1,.61-1.65,4.39,4.39,0,0,1,3.83-1.71h.11l1.25.36A22.43,22.43,0,0,0,26.58,336.61Z" transform="translate(-4.63 -14.39)"/><path class="cls-53" d="M25.91,340.14c-.19,1.06-.41,2.13-.61,3.19-2.65-.64-4.72-2.17-5.47-4.23a5.47,5.47,0,0,1-.22-2.83l6.73,1.62A3.08,3.08,0,0,0,25.91,340.14Z" transform="translate(-4.63 -14.39)"/><path class="cls-49" d="M28.19,325.66a8.59,8.59,0,0,0-7.93-4.61,8.47,8.47,0,0,0-7.67,8.53l.33,3.39a15.87,15.87,0,0,0,16.19,7.34,49.81,49.81,0,0,0-.53-12.61Q28.4,326.66,28.19,325.66Z" transform="translate(-4.63 -14.39)"/><path class="cls-54" d="M25.7,337.71a2.78,2.78,0,0,0,2.38,0,2.49,2.49,0,0,0,1.21-1.43,3.6,3.6,0,0,1,1.21,1.66c.31.89.47,1.8,0,2.23-.11.09-.16,1.61-.88,1.68a6.51,6.51,0,0,1-3.17-.4,10.81,10.81,0,0,1-2.85-1.6c-.33-.25-.59-.48-.77-.64Z" transform="translate(-4.63 -14.39)"/><path class="cls-49" d="M51.81,370.77s1.51.18,2.33.18,6.55-.91,6.55-.91l3.65,2.56-.54.53a7.1,7.1,0,0,1-2.32-.34,12,12,0,0,0-1.73-.58l-1.19.73,1,1.32-.12.5-2.91-1.63a37.65,37.65,0,0,1-4.35-.34C52.13,372.63,51.81,370.77,51.81,370.77Z" transform="translate(-4.63 -14.39)"/><path class="cls-55" d="M32.89,352s6,5.5,8.66,9.28,7.61,6.38,7.61,6.38l3.2,1.84a1.46,1.46,0,0,1,.75,1.42c-.13,1.27-.34,3.45-.32,4,0,.78-11.45.51-13.23.19S29.29,372,29.29,372Z" transform="translate(-4.63 -14.39)"/><path class="cls-55" d="M10.87,347.55a11.57,11.57,0,0,1,15.2-2L32.89,352q.72,17.85,1.45,35.68a22.33,22.33,0,0,1-11.31,7A23.41,23.41,0,0,1,9,393.91c-1.32-8.32-2.12-15.86-2.6-22.45-.65-9-.62-15.09,2.82-21.28A26.51,26.51,0,0,1,10.87,347.55Z" transform="translate(-4.63 -14.39)"/><path class="cls-54" d="M26.75,319.82A11,11,0,0,0,21,318.46a10,10,0,0,0-5.85,2,16.46,16.46,0,0,0-2.22,2.4,9.82,9.82,0,0,0-1.3,1.81c-.8,1.59-.18,2.43-.59,5.29-.29,2-.57,1.78-.51,2.75.14,2,1.36,2.14,1.88,4.61.3,1.42.09,2.34.9,3a2.31,2.31,0,0,0,1.41.53c.64,0,.91-.38,1.45-.28s.52.39.93.69c.73.52,1.42.25,3.28.3,1.64,0,1.54.25,2.41.18a6.3,6.3,0,0,0,3.16-1.21l.45-4.83a2.79,2.79,0,0,1-2.08-.32,2.19,2.19,0,0,1-1-2.52c.35-.8,1.45-1.37,2-1.08a.76.76,0,0,1,.34.54,7,7,0,0,0,.79-2,2.44,2.44,0,0,1,.28-1c.26-.38.89-.76,2.56-.66.93-.82,3.27-3,2.65-4.7-.15-.37-.39-.58-2.57-2.23C27.69,320.51,26.89,319.9,26.75,319.82Z" transform="translate(-4.63 -14.39)"/><path class="cls-34" d="M20,323c-.45,0-10.84,1-11.31,3.78A3,3,0,0,0,9,328.55c.37.67,1,1.05,2.5,1.65a19.79,19.79,0,0,0,3.77,1.26c2.28.44,10.84,1.36,16.53-3.79,1-.89,3.06-2.77,2.5-4.27-.49-1.32-2.85-2.06-5.85-1.75Z" transform="translate(-4.63 -14.39)"/><path class="cls-35" d="M31,324.07a2.48,2.48,0,0,1-.76,2.77,17.32,17.32,0,0,1-9.27,4,17.62,17.62,0,0,1-10.73-2.32A2.47,2.47,0,0,1,9,326.64a8.76,8.76,0,0,1,.63-4.54c2-4.65,7.49-5.61,8.19-5.73a12.42,12.42,0,0,1,8.7,2A11.83,11.83,0,0,1,31,324.07Z" transform="translate(-4.63 -14.39)"/><path class="cls-34" d="M11.76,329.26a10.21,10.21,0,0,1,2.9-7.86,11.4,11.4,0,0,1,7.5-3,13.17,13.17,0,0,1,5.67,1,12.68,12.68,0,0,0-7-2.67,11.8,11.8,0,0,0-7.09,1.75A9.22,9.22,0,0,0,9.86,323c-.21.59-1.35,3.82.4,5.47A3.39,3.39,0,0,0,11.76,329.26Z" transform="translate(-4.63 -14.39)"/><path class="cls-39" d="M401.23,187.25l-92.38,36a2.83,2.83,0,0,1-1.51-1.73,2.7,2.7,0,0,1-.2-2.24l92.39-36Z" transform="translate(-4.63 -14.39)"/><path class="cls-45" d="M401.13,208.3q-.44-8.69-.86-17.36l.4-.16.53-1.07c-.3-.7-.6-1.4-.89-2.1a4.84,4.84,0,0,1-1.31-1.72,4.58,4.58,0,0,1-.37-2.24c-.29-.69-.58-1.38-.88-2.06l-1.22-.46-.4.16-12.15-13c-1,.63-2.08,1.26-3.13,1.88l7.53,14.11-1.27.5,4.14,9.64,1.27-.49q2.49,7.55,5,15.1Z" transform="translate(-4.63 -14.39)"/><path class="cls-56" d="M400.42,208.58l-3.62.74-4.62-14-.37-1.1-1.27.49-4.13-9.65,1.26-.49c-.23-.45-.47-.89-.71-1.33q-3.4-6.39-6.82-12.78l3.14-1.88,12,12.83.13.14,1.11-.43,4.14,9.65-1.11.43v.15Q400,200,400.42,208.58Z" transform="translate(-4.63 -14.39)"/><path class="cls-45" d="M392.18,195.33l-.37-1.1-1.27.49-4.13-9.65,1.26-.49c-.23-.45-.47-.89-.71-1.33l8.33-1.83,1.13-.25,4.14,9.65-1,.54Z" transform="translate(-4.63 -14.39)"/><polygon class="cls-56" points="385.91 180.33 381.77 170.68 391.79 166.78 395.93 176.43 385.91 180.33"/><path class="cls-49" d="M319.73,240.1v4.27l4.61,11.29,6.44-9.2c-1.07-2-2.15-4-3.22-5.92q-1.32-10.47-2.65-20.94a19.88,19.88,0,0,0,1.74-1.49q.71-.68,1.26-1.32c-.51-1-1-2-1.54-3.06-.18.11-.36.22-.56.32-.08.86-.18,1.73-.28,2.58l-7.14,2.78,1.84.65Q320,230.08,319.73,240.1Z" transform="translate(-4.63 -14.39)"/><path class="cls-53" d="M333,257.12l-6.13,2.64c-.26-2.56-1-10.28-1-11.91a12.5,12.5,0,0,1,1.13-4.37s.08.1.2.28c0,.33-.09.64-.14,1,2,3.23,3.88,6.47,5.83,9.71A16,16,0,0,1,333,257.12Z" transform="translate(-4.63 -14.39)"/><path class="cls-56" d="M340.32,280.71a72.14,72.14,0,0,1-10.05-11.93,70.21,70.21,0,0,1-10-22.58,3.76,3.76,0,0,1-1.32-1.37,4,4,0,0,1-.07-3.35,16.75,16.75,0,0,1,4.68-2.17,17.2,17.2,0,0,1,5.69-.67l9.76,18.51c.68.08,7.67,1.05,10.2,6.11C351.93,268.64,348.72,276.92,340.32,280.71Z" transform="translate(-4.63 -14.39)"/><path class="cls-49" d="M349.13,259.54a7.65,7.65,0,0,1-6.06,9.23,8,8,0,0,1-8.37-4.69c3.18-2.49,3.66-4.14,3.45-5.2-.15-.74-.63-1.17-2.54-4.78l-.43-.82,1.48-1,2.88-1.9,1.29-.85a21.54,21.54,0,0,0,2.09,3.89A22.69,22.69,0,0,0,349.13,259.54Z" transform="translate(-4.63 -14.39)"/><path class="cls-53" d="M340.37,253.75a7,7,0,0,1-.25,1.73,8.22,8.22,0,0,1-2,3.4l-2.54-4.78,1.05-1.79,2.88-1.9A6.77,6.77,0,0,1,340.37,253.75Z" transform="translate(-4.63 -14.39)"/><path class="cls-49" d="M330.23,238.84a7.41,7.41,0,0,0-2.59,6.06,5.42,5.42,0,0,0,.11.86,17.56,17.56,0,0,0,.34,3.87,33.3,33.3,0,0,0,1.16,3.94c.32,1,.61,1.81.82,2.38,5.15.38,9.83-2.06,11.65-5.92a9.76,9.76,0,0,0-.21-8.44,7.23,7.23,0,0,0-2.86-3.2A7.85,7.85,0,0,0,330.23,238.84Z" transform="translate(-4.63 -14.39)"/><path class="cls-51" d="M362.11,388l-1,1.61-11.49,2.35-1.53,1.76,16.47,1.65L365.8,394l.6,1.47,2.34,0a15.24,15.24,0,0,0,.23-4,15.65,15.65,0,0,0-.83-4.06Z" transform="translate(-4.63 -14.39)"/><path class="cls-51" d="M329.59,392.4l-1,1.61-11.49,2.35-1.54,1.76,16.48,1.65,1.22-1.29.61,1.47,2.34,0a15.7,15.7,0,0,0,.23-4,15.43,15.43,0,0,0-.84-4.06Z" transform="translate(-4.63 -14.39)"/><path class="cls-46" d="M348,306.71q2,18.85,3.91,37.72l9.61,43.83h6.84l-4.52-42.18L366,306.16Z" transform="translate(-4.63 -14.39)"/><path class="cls-39" d="M331.86,346.89,329.1,392.7h7.22l5-43.83a217.9,217.9,0,0,0,15.33-23.75c3.69-6.64,6.78-13,9.36-19l-19.72,1C346.43,309.75,336.83,336.24,331.86,346.89Z" transform="translate(-4.63 -14.39)"/><path class="cls-51" d="M323.58,240.75c.54-3.73,4.6-6.59,8.48-6.73a8.85,8.85,0,0,1,4.05.86,4.89,4.89,0,0,1,4.63.53c2,1.34,3.25,4.3,3.17,7,0,1.32-.37,1.93-.6,5.22,0,.56-.07,1-.08,1.32a2.17,2.17,0,0,1,.36,1.42c-.12,1.19-1.4,2.27-3.18,2.56A12.34,12.34,0,0,1,339,252a11.1,11.1,0,0,1-2.28-2.47,1.91,1.91,0,0,0,1.26-.31,1.88,1.88,0,0,0,.63-.88,2.79,2.79,0,0,0-2.24-3.18,1.61,1.61,0,0,0-1.28.45,1.54,1.54,0,0,0-.12,1.72c0,.18,0,.36.05.54a4.86,4.86,0,0,0-3.25-1.42,21,21,0,0,0-2.69.53,7.05,7.05,0,0,1-2.68.06C324.51,246.51,323.2,243.35,323.58,240.75Z" transform="translate(-4.63 -14.39)"/><path class="cls-34" d="M331.84,240.61c1.13-.26,8.19-1.79,10.64.19a2,2,0,0,1,.88,1.36c0,.46-.18,1.14-1.41,2.05-2.95,2.19-7.9,2.88-8.11,2.91-4,.53-7.83,1-11.51-.88-2.2-1.12-2.3-2-2.31-2.25-.06-1.1,1.23-2.28,3.23-3Z" transform="translate(-4.63 -14.39)"/><path class="cls-35" d="M323.3,240a2.1,2.1,0,0,0,.85,2.29,14.8,14.8,0,0,0,8.18,2.73,15,15,0,0,0,8.92-2.72,2.07,2.07,0,0,0,.91-1.65,7.37,7.37,0,0,0-.89-3.8c-2.07-3.81-6.78-4.25-7.39-4.3a10.46,10.46,0,0,0-7.22,2.29A9.9,9.9,0,0,0,323.3,240Z" transform="translate(-4.63 -14.39)"/><path class="cls-34" d="M326.66,243.76c.6-5,4-8.65,7.63-8.92a8.58,8.58,0,0,1,5.3,1.73c.57.44,2.66,2.06,2.57,4.12,0,.08,0,.14,0,.18a.54.54,0,0,0,.34-.07c.45-.3.14-1.38,0-1.87a7.59,7.59,0,0,0-1.2-2.5,10.13,10.13,0,0,0-9.21-3,10.55,10.55,0,0,0-6.47,4.27,11.08,11.08,0,0,0-1.88,4.23,8.05,8.05,0,0,0-.15,1.26,4.25,4.25,0,0,0,3.09.56Z" transform="translate(-4.63 -14.39)"/><path class="cls-18" d="M344.85,257.75l-4.29,3.59-2.37-2a13.12,13.12,0,0,0-3.49,4.75,13.36,13.36,0,0,0-.75,7.44c1.31,8.65,7.52,14.81,11,23.38,1.53,3.75,1.59,5.62.83,7-.44.82-1.25,1.65-1.12,2.85a3.68,3.68,0,0,0,1.57,2.38l19.72-1a5.85,5.85,0,0,0,1-1.74,6.72,6.72,0,0,0-.1-4.44c-1.34-4.28-1.22-8.87-2.14-13.25-.52-2.48-1.32-6.35-2.27-11.25q-2.49-4.56-5.09-9.19-2.44-4.37-4.89-8.63Z" transform="translate(-4.63 -14.39)"/><path class="cls-49" d="M334.18,214.2c-.15,2.73-.18,5.68,0,8.82a91.33,91.33,0,0,0,1.79,14.31l6.4-3.79c-.81-3-1.59-6.22-2.31-9.52s-1.35-6.55-1.89-9.66l2.8-2.2,1.66-1.58c0-.16,0-.32,0-.48l-2.82.64c-.2-1.31-.39-2.61-.59-3.92a1.3,1.3,0,0,0-.5-.37,3.54,3.54,0,0,0-1-.14,2.92,2.92,0,0,1-.87-.27c-.44-.17-1.6.25-4.69,2.79a4.46,4.46,0,0,0-.2,2.06A5,5,0,0,0,334.18,214.2Z" transform="translate(-4.63 -14.39)"/><path class="cls-18" d="M361,268.77c-.51-1.87-2.39-8.43-9.76-21.52-1.53-2.73-3.71-6.47-6.52-10.85a4.65,4.65,0,0,0-.44-2.41,5.17,5.17,0,0,0-2.47-2.36,8.22,8.22,0,0,0-4.32.61,7.66,7.66,0,0,0-3.79,3.67,3.18,3.18,0,0,0-.47,2.41,3.58,3.58,0,0,0,2.23,2.35A55.69,55.69,0,0,0,337.8,247c1.48,3.4,1.91,3.5,5.91,10.76,2.12,3.86,2.87,5.39,4.77,7.7a32.87,32.87,0,0,0,3.36,3.5,34.84,34.84,0,0,0,10.65,6.54A63.67,63.67,0,0,0,361,268.77Z" transform="translate(-4.63 -14.39)"/><path class="cls-49" d="M324.6,212.48c0,.36,0,.73,0,1.09a4.14,4.14,0,0,1-1.51,2,5.3,5.3,0,0,1-4.62.44l-.69-.93-.94.34c0-.25,0-.49,0-.73a4,4,0,0,1,1.69-1.21,12.91,12.91,0,0,0,1.29-.41,7.06,7.06,0,0,0,1.21-.68,7.45,7.45,0,0,1,2.59-1l2.12.64Z" transform="translate(-4.63 -14.39)"/></g></g></svg>