<svg id="Layer_1" data-name="Layer 1" xmlns="http://www.w3.org/2000/svg" xmlns:xlink="http://www.w3.org/1999/xlink" viewBox="0 0 49 47.96"><defs><style>.cls-1{fill:none;}.cls-2{fill:#ffb200;}.cls-3{clip-path:url(#clip-path);}.cls-4{fill:#e0aa3e;}</style><clipPath id="clip-path" transform="translate(0.06)"><rect class="cls-1" x="-0.06" width="49" height="47.96"/></clipPath></defs><title>bin-icon</title><path class="cls-2" d="M23.65.76" transform="translate(0.06)"/><path class="cls-2" d="M-.48,25.38" transform="translate(0.06)"/><path class="cls-2" d="M23.65,50" transform="translate(0.06)"/><path class="cls-2" d="M47.78,25.38" transform="translate(0.06)"/><g class="cls-3"><path class="cls-4" d="M29.08,20.8a3.18,3.18,0,0,0,0-4.69,3.51,3.51,0,0,0-2.45-1H17.25v6.65h9.38a3.56,3.56,0,0,0,2.45-1m2.33,10.56a3.21,3.21,0,0,0,0-4.69,3.57,3.57,0,0,0-2.46-1H17.25v6.65H29a3.52,3.52,0,0,0,2.46-1M36.53,29a7,7,0,0,1-2.23,5.11A7.73,7.73,0,0,1,29,36.26h0c0,.08,0,.16,0,.25v4.34a1.95,1.95,0,1,1-3.87,0V36.51a2,2,0,0,1,0-.25H22.45a1.9,1.9,0,0,1,0,.25v4.34A2.07,2.07,0,0,1,20.54,43a2.07,2.07,0,0,1-1.94-2.18V36.51a1.9,1.9,0,0,1,0-.25H16.85a3.77,3.77,0,0,1-2.61-1,3.46,3.46,0,0,1-1.09-2.5v-18a3.46,3.46,0,0,1,1.09-2.49h0a3.76,3.76,0,0,1,2.61-1H18.6V7.47A2.06,2.06,0,0,1,20.54,5.3a2.06,2.06,0,0,1,1.94,2.17v3.74h2.61V7.47a1.95,1.95,0,1,1,3.87,0v4.1a7.72,7.72,0,0,1,3,1.77,7.06,7.06,0,0,1,2.22,5.11,7,7,0,0,1-1.48,4.29A7.57,7.57,0,0,1,34.3,23.9,7.05,7.05,0,0,1,36.53,29m12.41-5c0-13.24-11-24-24.5-24S-.06,10.74-.06,24s11,24,24.5,24,24.5-10.74,24.5-24" transform="translate(0.06)"/></g></svg>