<svg id="Layer_1" data-name="Layer 1" xmlns="http://www.w3.org/2000/svg" xmlns:xlink="http://www.w3.org/1999/xlink" viewBox="0 0 119.33 91.49"><defs><style>.cls-1{fill:none;}.cls-2{clip-path:url(#clip-path);}.cls-3{fill:#fff;}</style><clipPath id="clip-path" transform="translate(1.2 -0.25)"><rect class="cls-1" x="0.33" y="0.25" width="119.33" height="91.49"/></clipPath></defs><title>binserv-footer-2</title><g class="cls-2"><path class="cls-3" d="M72.39.25A45.65,45.65,0,0,0,36.74,17.33H82.26a28.67,28.67,0,1,1-22,10.32,29,29,0,0,1,5.62-5.16H16.74a4.54,4.54,0,1,0,0,5.16H30.47a45.53,45.53,0,0,0-3.25,11h9.89a3.83,3.83,0,0,1,7,0,3.82,3.82,0,0,1,0,3.06,4.77,4.77,0,0,1-.42.73,3.83,3.83,0,0,1-6.6-.73h-31a3.83,3.83,0,1,0,0,3.06H26.65c0,.4,0,.79,0,1.19a45.45,45.45,0,0,0,1.17,10.31H38.5a3.83,3.83,0,0,1,7.34,1.53,3.71,3.71,0,0,1-.32,1.53,3.83,3.83,0,0,1-7,0H26.32a3.83,3.83,0,1,0,0,3.06h3.36A45.75,45.75,0,1,0,72.39.25" transform="translate(1.2 -0.25)"/><path class="cls-3" d="M75.91,29.62a4.31,4.31,0,0,0-3.06,1.27h0A4.36,4.36,0,0,0,71.57,34V56a4.35,4.35,0,0,0,4.34,4.34h4.62v5.81a2.4,2.4,0,1,0,4.79,0V60.31h4.76a8.87,8.87,0,0,0,4.41-16.56,8.87,8.87,0,0,0-7.14-14.13h-2V24.71a2.4,2.4,0,1,0-4.79,0v4.91Zm.46,17.74H90.08a4.08,4.08,0,0,1,0,8.16H76.37Zm11-13a4.08,4.08,0,0,1,0,8.16h-11V34.41h11Z" transform="translate(1.2 -0.25)"/></g></svg>