<svg id="Layer_1" data-name="Layer 1" xmlns="http://www.w3.org/2000/svg" xmlns:xlink="http://www.w3.org/1999/xlink" viewBox="0 0 298.13 88.4"><defs><style>.cls-1{fill:none;}.cls-2{clip-path:url(#clip-path);}.cls-3,.cls-4{fill:#f6d053;}.cls-4{font-size:55.92px;font-family:Computerfont;}.cls-5{letter-spacing:0em;}.cls-6{letter-spacing:-0.26em;}</style><clipPath id="clip-path" transform="translate(-2 -1.6)"><rect class="cls-1" x="2" y="1.6" width="298.08" height="88.4"/></clipPath></defs><title>binserv-logo</title><g class="cls-2"><path class="cls-3" d="M76.63,1.6A47.19,47.19,0,0,0,40.48,18.1H86.65c16.06,0,29.08,12.4,29.08,27.7s-13,27.7-29.08,27.7S57.58,61.1,57.58,45.8a26.78,26.78,0,0,1,6.74-17.73,28.6,28.6,0,0,1,5.7-5H20.19a4.66,4.66,0,0,0-3.79-1.9,4.39,4.39,0,1,0,0,8.77,4.68,4.68,0,0,0,3.79-1.89H34.13a42.26,42.26,0,0,0-3.3,10.67h10a4,4,0,0,1,7.12,0,3.49,3.49,0,0,1,.33,1.48A3.56,3.56,0,0,1,48,41.7a3.82,3.82,0,0,1-.42.7,4,4,0,0,1-3.14,1.52,3.91,3.91,0,0,1-3.56-2.22H9.44a3.89,3.89,0,0,0-3.56-2.23,3.7,3.7,0,1,0,0,7.4,3.88,3.88,0,0,0,3.56-2.22H30.25c0,.38,0,.77,0,1.15a42.65,42.65,0,0,0,1.18,10H42.27a3.9,3.9,0,0,1,3.56-2.23,3.8,3.8,0,0,1,3.88,3.7,3.64,3.64,0,0,1-.32,1.48,4,4,0,0,1-7.12,0H29.91a3.84,3.84,0,0,0-2.06-1.94,4.12,4.12,0,0,0-1.5-.28,3.7,3.7,0,1,0,0,7.4,3.9,3.9,0,0,0,3.56-2.22h3.41C40,78.24,56.88,90,76.63,90,102.26,90,123,70.21,123,45.8S102.26,1.6,76.63,1.6" transform="translate(-2 -1.6)"/><text class="cls-4" transform="translate(70.73 57.86) scale(1.05 1)"><tspan class="cls-5" xml:space="preserve">  </tspan><tspan class="cls-6" x="44.17" y="0"> </tspan><tspan x="51.72" y="0">iNSERV</tspan></text><path class="cls-3" d="M97.51,52.31a4.06,4.06,0,0,1-1.3,2.95,4.46,4.46,0,0,1-3.09,1.23H78.35V48.12H93.12a4.5,4.5,0,0,1,3.09,1.23,4.08,4.08,0,0,1,1.3,3M94.57,39A4.05,4.05,0,0,1,93.28,42a4.48,4.48,0,0,1-3.1,1.23H78.35V34.84H90.18a4.48,4.48,0,0,1,3.1,1.23,4.05,4.05,0,0,1,1.29,3m5.3,6.86a10,10,0,0,0-2-1.47A8.76,8.76,0,0,0,99.74,39a8.87,8.87,0,0,0-2.81-6.43,9.61,9.61,0,0,0-3.81-2.23V25.2a2.46,2.46,0,1,0-4.88,0v4.71H85V25.2a2.46,2.46,0,1,0-4.89,0v4.71H77.85a4.78,4.78,0,0,0-3.3,1.31h0a4.37,4.37,0,0,0-1.38,3.14V57a4.37,4.37,0,0,0,1.37,3.15,4.82,4.82,0,0,0,3.3,1.3h2.24c0,.11,0,.21,0,.32V67.2a2.46,2.46,0,1,0,4.89,0V61.73c0-.11,0-.21,0-.32h3.35c0,.11,0,.21,0,.32V67.2a2.46,2.46,0,1,0,4.88,0V61.73a1.73,1.73,0,0,0,0-.32h0a9.76,9.76,0,0,0,6.75-2.67,8.78,8.78,0,0,0,0-12.86" transform="translate(-2 -1.6)"/></g></svg>