<svg id="Layer_1" data-name="Layer 1" xmlns="http://www.w3.org/2000/svg" xmlns:xlink="http://www.w3.org/1999/xlink" viewBox="0 0 48 48"><defs><style>.cls-1{fill:none;}.cls-2{clip-path:url(#clip-path);}.cls-3{fill:#e0aa3e;}.cls-4{fill:#696969;}</style><clipPath id="clip-path" transform="translate(-1 -1)"><rect class="cls-1" x="1" y="1" width="48" height="48"/></clipPath></defs><title>bottom-title-cloud</title><g class="cls-2"><path class="cls-3" d="M25,45a1,1,0,0,1-1-1V26A1,1,0,0,1,26,26V44a1,1,0,0,1-1,1" transform="translate(-1 -1)"/><path class="cls-3" d="M20.83,42H9.35a1,1,0,1,1,0-2H19.78V28a1,1,0,0,1,2.09,0V41a1,1,0,0,1-1,1" transform="translate(-1 -1)"/><path class="cls-3" d="M41.7,42H29.17a1,1,0,0,1-1-1V28a1,1,0,0,1,2.09,0V40H41.7a1,1,0,1,1,0,2" transform="translate(-1 -1)"/><path class="cls-3" d="M7.26,40a1,1,0,1,0,1,1,1,1,0,0,0-1-1m0,4a3,3,0,1,1,0-6,3,3,0,1,1,0,6" transform="translate(-1 -1)"/><path class="cls-3" d="M25,45a1,1,0,1,0,1,1,1,1,0,0,0-1-1m0,4a3,3,0,1,1,3.13-3A3.07,3.07,0,0,1,25,49" transform="translate(-1 -1)"/><path class="cls-3" d="M43.78,40a1,1,0,1,0,1,1,1,1,0,0,0-1-1m0,4a3,3,0,1,1,3.13-3,3.08,3.08,0,0,1-3.13,3" transform="translate(-1 -1)"/><path class="cls-4" d="M44.81,19.4A12.28,12.28,0,0,0,33,8,13.75,13.75,0,0,0,20.83,1C13.8,1,8.64,6.12,8.32,13.28,3.78,14.91,1,18.57,1,23A11.26,11.26,0,0,0,12.48,34h4.17a1,1,0,1,0,0-2H12.48a9.21,9.21,0,0,1-9.39-9c0-3.81,2.45-6.81,6.57-8a1,1,0,0,0,.73-.95c0-6.37,4.39-11,10.44-11A11.59,11.59,0,0,1,31.35,9.41a1,1,0,0,0,.95.59A10.24,10.24,0,0,1,42.74,20a1,1,0,0,0,.58.89A5.71,5.71,0,0,1,46.91,26a6.14,6.14,0,0,1-6.26,6h-7.3a1,1,0,1,0,0,2h7.3A8.19,8.19,0,0,0,49,26a7.59,7.59,0,0,0-4.19-6.6" transform="translate(-1 -1)"/></g></svg>