<svg id="Layer_1" data-name="Layer 1" xmlns="http://www.w3.org/2000/svg" xmlns:xlink="http://www.w3.org/1999/xlink" viewBox="0 0 342 270.26"><defs><style>.cls-1,.cls-12,.cls-13,.cls-20,.cls-24,.cls-26,.cls-4,.cls-5{fill:none;}.cls-2{fill:#fee798;}.cls-3{fill:#fccb82;}.cls-24,.cls-4,.cls-5{stroke:#f8c631;}.cls-12,.cls-13,.cls-20,.cls-24,.cls-26,.cls-4,.cls-5{stroke-miterlimit:10;}.cls-4{stroke-width:1.9px;}.cls-5{stroke-width:2.24px;}.cls-6{fill:#fdc854;}.cls-7{fill:#f89f4f;}.cls-8{fill:#f26d6d;}.cls-9{fill:#b0c5ff;}.cls-10{fill:#f6a19e;}.cls-11{fill:#2e3192;}.cls-12,.cls-13{stroke:#e1eef7;}.cls-12{stroke-width:0.83px;}.cls-13{stroke-width:0.77px;}.cls-14{fill:#4463cd;}.cls-15{fill:#653087;}.cls-16{fill:#fb9c98;}.cls-17{fill:#f95f6a;}.cls-18{fill:#d2dcf7;}.cls-19{fill:#d3d5fc;}.cls-20{stroke:#b0c5ff;}.cls-20,.cls-26{stroke-linecap:round;}.cls-20,.cls-24{stroke-width:2.11px;}.cls-21{fill:#b6a480;}.cls-22{fill:#654e20;}.cls-23{fill:#fff;}.cls-25{fill:#ffefc2;}.cls-26{stroke:#f89f4f;stroke-width:6.72px;}.cls-27{fill:#f8c631;}.cls-28{clip-path:url(#clip-path);}.cls-29{fill:#86682b;}</style><clipPath id="clip-path" transform="translate(-0.5 -0.2)"><polygon class="cls-1" points="90.09 137.52 182.92 216.04 275.4 137.82 275.4 67.53 90.09 67.53 90.09 137.52"/></clipPath></defs><title>contact-email</title><path class="cls-2" d="M326.7,270.2c17.6-41.75,13-64.13,4.8-77-7.95-12.46-17.41-13.4-24-28.12-9-20,4.07-31.31,1-56.73-2.63-21.79-16.64-50-39-58.22-26.73-9.79-43.25,17.07-69.06,7.4-25.12-9.4-19-39.38-47.54-52.29-17.73-8-42.66-6.76-56.62,5.56C82.48,22.93,91.29,36.7,75.56,59.66c-13.34,19.48-23.18,15-30.23,29.94-11.64,24.55,13.14,40.83,4.83,72-6.41,24-24,25.32-27.93,46-2.92,15.62,3.16,36,29.54,62.56Z" transform="translate(-0.5 -0.2)"/><path class="cls-3" d="M310.12,243.63c.14-3,1.06-16.85,11.52-24.84,6.27-4.79,16.54-7.9,19.78-4s-1.13,13.34-5.79,18.8C326.9,243.81,313.38,243.74,310.12,243.63Z" transform="translate(-0.5 -0.2)"/><path class="cls-4" d="M279.68,258.31s16.28-4.67,30.44-14.68a138.92,138.92,0,0,0,23.65-21.3" transform="translate(-0.5 -0.2)"/><path class="cls-4" d="M319.66,236.26l7.52-.25" transform="translate(-0.5 -0.2)"/><path class="cls-4" d="M327.94,228.42c.25-2.24.49-4.48.74-6.73" transform="translate(-0.5 -0.2)"/><path class="cls-3" d="M305.72,217.89c4-1.38,22.3-8.23,28.91-26.59,4-11,4.08-27.14-2.45-30.29-6.36-3.06-17.53,6.94-23,15.87C298.81,193.63,304.29,213.21,305.72,217.89Z" transform="translate(-0.5 -0.2)"/><path class="cls-4" d="M327,174.48a365.61,365.61,0,0,1-21.29,43.41c-12.14,20.59-24.44,40.33-24.44,40.33" transform="translate(-0.5 -0.2)"/><path class="cls-4" d="M315.91,198.89l-.81-14.51" transform="translate(-0.5 -0.2)"/><path class="cls-4" d="M321.85,186.44a8.62,8.62,0,0,1,3.6-2.59l4.32-2.09" transform="translate(-0.5 -0.2)"/><path class="cls-3" d="M119.34,110.7s-46.62-6.28-26.88-26.83c0,0-37.81-33.63-8.9-30,0,0-5.68-54.45,30.14-11.25,0,0,14.16-13.1,7.92,22.64C121.62,65.24,152.48,53.78,119.34,110.7Z" transform="translate(-0.5 -0.2)"/><path class="cls-5" d="M144.87,156.85s-9.4-8.18-23.78-42.09A303.65,303.65,0,0,1,102,50" transform="translate(-0.5 -0.2)"/><path class="cls-5" d="M110.4,84.52l-13-9" transform="translate(-0.5 -0.2)"/><path class="cls-5" d="M105.78,67.48l5.84-12.74" transform="translate(-0.5 -0.2)"/><path class="cls-3" d="M120.85,142.48s-32.25,13.4-21-9.54c0,0-31.92-1.38-19.26-11.46,0,0-21.11-36.49,17.1-8.94,0,0,5.7-11.6,11.78,6.68,0,0,16.66-21.26,11.71,23.45" transform="translate(-0.5 -0.2)"/><path class="cls-5" d="M97.63,122.23s27.56,24.35,41.74,35.36" transform="translate(-0.5 -0.2)"/><rect class="cls-6" x="74.86" y="124.86" width="215.13" height="143.3"/><polygon class="cls-7" points="74.86 124.86 182.42 215.84 289.99 124.86 74.86 124.86"/><polygon class="cls-7" points="289.99 124.86 182.42 33.88 74.86 124.86 289.99 124.86"/><path class="cls-8" d="M24.33,132.61l-.59-.34a6,6,0,0,0-.66-.35,3.1,3.1,0,0,1-2.65-.3,5.67,5.67,0,0,1-.87-.68,2,2,0,0,1-.35-.37.67.67,0,0,1-.14-.49,1.5,1.5,0,0,1,.35-.61.59.59,0,0,0,.11-.65.8.8,0,0,0-.37-.23A2.1,2.1,0,0,1,18,127.34a13.46,13.46,0,0,1,4.27,1.39,1,1,0,0,0,.2-.94,3.55,3.55,0,0,0-.3-.58,1,1,0,0,1-.15-.61.43.43,0,0,1,.41-.41c.23,0,.38.25.49.47s.35.73.53,1.09a3.4,3.4,0,0,1,.38,1,1.53,1.53,0,0,0,.13.52.91.91,0,0,0,.37.28l1.08.57C25.08,131,24.69,131.79,24.33,132.61Z" transform="translate(-0.5 -0.2)"/><path class="cls-9" d="M70.23,128.2S60.52,138.87,53,143.26c-7.19,4.19-28.86-10.65-28.86-10.65l1.2-2.67a113.59,113.59,0,0,1,22.92,6.67,127.45,127.45,0,0,0,14.9-15.08Z" transform="translate(-0.5 -0.2)"/><polygon class="cls-10" points="26.51 262.61 30.29 264.1 29.94 265.06 26.16 263.57 26.51 262.61"/><path class="cls-11" d="M30.78,264.3a2.48,2.48,0,0,1-1.22,3.34l-9.75-3.86a3.16,3.16,0,0,1,1.1-2,3,3,0,0,1,1.8-.64L27.38,263A3.79,3.79,0,0,0,30.78,264.3Z" transform="translate(-0.5 -0.2)"/><path class="cls-11" d="M22.71,261.11a2.92,2.92,0,0,0-3.81,1.77h0l-.17.47,1.5.58a4.24,4.24,0,0,1,.7-1.45A4.12,4.12,0,0,1,22.71,261.11Z" transform="translate(-0.5 -0.2)"/><polygon class="cls-10" points="27.93 261.12 27.32 263.1 29.86 264.05 30.75 262.11 27.93 261.12"/><path class="cls-12" d="M25.2,262.22l-.78.6" transform="translate(-0.5 -0.2)"/><path class="cls-12" d="M26.11,262.66l-.72.68" transform="translate(-0.5 -0.2)"/><path class="cls-11" d="M72.68,158.2s0,13.74-2.09,18.68-15.21,27.17-15.21,27.17l-24,59.23-3.56-1.41,7.67-54.2s13.61-44.5,18.63-53.33S72.68,158.2,72.68,158.2Z" transform="translate(-0.5 -0.2)"/><rect class="cls-10" x="60.47" y="264.28" width="3.78" height="0.95"/><path class="cls-11" d="M64.73,264.49a2.32,2.32,0,0,1,0,3.33H55a3,3,0,0,1,.32-2.15,2.81,2.81,0,0,1,1.37-1.18h4.67A3.48,3.48,0,0,0,64.73,264.49Z" transform="translate(-0.5 -0.2)"/><path class="cls-11" d="M56.66,264.48a2.82,2.82,0,0,0-2.77,2.87h0v.46h1.49a4,4,0,0,1,1.28-3.33Z" transform="translate(-0.5 -0.2)"/><polygon class="cls-10" points="60.5 261.3 61.28 264.46 63.96 264.33 63.47 261.86 60.5 261.3"/><path class="cls-13" d="M59.18,264.59l-.48.79" transform="translate(-0.5 -0.2)"/><path class="cls-13" d="M60.11,264.66l-.41.85" transform="translate(-0.5 -0.2)"/><path class="cls-14" d="M75.43,160.23s1.27,3.92-.11,10.9c-2,10.06-19.55,35.93-19.55,35.93l9.09,55.17-4.64,1.3-18.49-51a22.06,22.06,0,0,1-.63-12.94c3.21-12.53,10.13-38.72,12.6-41.29l.78-7.44Z" transform="translate(-0.5 -0.2)"/><path class="cls-15" d="M22.45,131.85a1.19,1.19,0,0,0,1.17-1.21,1.27,1.27,0,0,0-.17-.63l-4.64-7.9a1.15,1.15,0,0,0-1.59-.46,1.24,1.24,0,0,0-.45,1.65.25.25,0,0,1,0,.07l4.64,7.9A1.17,1.17,0,0,0,22.45,131.85Z" transform="translate(-0.5 -0.2)"/><path class="cls-16" d="M18.84,125.58a14.64,14.64,0,0,1,1.22,1.27c1.5,1.77,2.05,3.36,2.53,3.22s.2-2.5.76-2.65,1.12,1.26,1.38,1.9a4.13,4.13,0,0,1,.44,2.57l.81.75-1.83,2-1.31-1.25A6.81,6.81,0,0,1,19.22,131a7.39,7.39,0,0,1-1.51-4.94.7.7,0,0,1,.73-.67A.61.61,0,0,1,18.84,125.58Z" transform="translate(-0.5 -0.2)"/><path class="cls-17" d="M59.67,106.5c-.09,1.86.7,3.4,1.77,3.46s2-1.39,2.11-3.24-.7-3.4-1.77-3.46S59.77,104.65,59.67,106.5Z" transform="translate(-0.5 -0.2)"/><path class="cls-18" d="M64.43,115.67a2.71,2.71,0,0,1,3.48,2.76c0,.65,0,1.31-.1,2-1,12.13-7.77,21.39-13.4,27.2A8.05,8.05,0,0,1,44.57,149q-3-1.72-6.1-3.69A173.46,173.46,0,0,1,23.38,135l.74-1.1c.51-.76,1-1.51,1.54-2.25Q31,134.31,36.72,137q6.44,3,12.58,5.5c2.25-5.45,3.88-9.54,4.79-11.82,0,0,3.94-12.14,9.41-14.61Q64,115.84,64.43,115.67Z" transform="translate(-0.5 -0.2)"/><path class="cls-10" d="M64.1,114c.2-.24-3.23-4.89-3.23-4.89l-4.13,2.59,2.17,6.1S61.51,117.35,64.1,114Z" transform="translate(-0.5 -0.2)"/><path class="cls-8" d="M61.71,110.47a5.71,5.71,0,0,1-.21.58,7.43,7.43,0,0,1-3.68,3.73l-1.08-3,4.13-2.58Z" transform="translate(-0.5 -0.2)"/><path class="cls-10" d="M56.94,101.09a6.38,6.38,0,0,0-3.52,2.83c-1.55,2.73-1.12,7.32,1.62,8.7s6.23-.91,7.46-3.82c1.08-2.57.53-6.23-1.65-7.53A4.91,4.91,0,0,0,56.94,101.09Z" transform="translate(-0.5 -0.2)"/><path class="cls-18" d="M64.08,113.87s13.26.93,11.37,46.14h0a43.24,43.24,0,0,1-19.72-.67l-3.56-.89L53,131.8A20.38,20.38,0,0,1,64.08,113.87Z" transform="translate(-0.5 -0.2)"/><path class="cls-15" d="M60,108.33c-1-.83.35-2.73-.76-4.11s-3.53-.2-5.6-1.55c-1-.64-2.05-2-2.47-5,2.67-1.65,4.26-1.54,5.22-1.12,1.22.52,1.27,1.47,2.75,2.14,1.88.86,2.83-.2,4.33.46A5.34,5.34,0,0,1,66,105.26C65,108.19,61.14,109.34,60,108.33Z" transform="translate(-0.5 -0.2)"/><path class="cls-10" d="M60.66,107.73a1.31,1.31,0,0,1,1.43-1.19A1.33,1.33,0,0,1,63.23,108a1.31,1.31,0,0,1-1.42,1.19,1.34,1.34,0,0,1-1.15-1.48Z" transform="translate(-0.5 -0.2)"/><rect class="cls-19" x="60.3" y="254.67" width="10.74" height="0.8"/><polygon class="cls-19" points="29.16 268.09 17.73 263.57 18.06 262.66 29.5 267.18 29.16 268.09"/><path class="cls-20" d="M52.48,149.09S60,144,63.64,135.91" transform="translate(-0.5 -0.2)"/><path class="cls-21" d="M3.39,92.9H25a2.94,2.94,0,0,1,2.89,3h0v11.65a2.94,2.94,0,0,1-2.89,3H3.39a2.94,2.94,0,0,1-2.89-3V95.9a2.94,2.94,0,0,1,2.89-3Z" transform="translate(-0.5 -0.2)"/><polygon class="cls-21" points="2.67 114.42 2.67 110.34 8.72 110.34 2.67 114.42"/><path class="cls-22" d="M32.7,87.77H11.12a2.94,2.94,0,0,0-2.88,3v11.64a2.94,2.94,0,0,0,2.88,3H32.7a3,3,0,0,0,2.89-3V90.77A3,3,0,0,0,32.7,87.77Z" transform="translate(-0.5 -0.2)"/><path class="cls-23" d="M23.53,97a1.62,1.62,0,1,0-1.62,1.68A1.65,1.65,0,0,0,23.53,97Z" transform="translate(-0.5 -0.2)"/><path class="cls-23" d="M29.64,97A1.62,1.62,0,1,0,28,98.7,1.65,1.65,0,0,0,29.64,97Z" transform="translate(-0.5 -0.2)"/><path class="cls-23" d="M17.42,97A1.62,1.62,0,1,0,15.8,98.7,1.65,1.65,0,0,0,17.42,97Z" transform="translate(-0.5 -0.2)"/><polygon class="cls-22" points="32.42 109.29 32.42 105.21 26.37 105.21 32.42 109.29"/><path class="cls-3" d="M262.43,70.18c2.73-.2,15.48-1.41,22.62-12,4.27-6.31,6.91-16.55,3.27-19.67s-12.26,1.4-17.19,6.14C261.9,53.56,262.26,67,262.43,70.18Z" transform="translate(-0.5 -0.2)"/><path class="cls-3" d="M263.56,78.32c1.62,2.29,9.44,12.81,21.84,13.42,7.43.36,17.19-2.81,17.77-7.68s-7.71-10-14.2-11.76C276.8,69,266.09,76.45,263.56,78.32Z" transform="translate(-0.5 -0.2)"/><path class="cls-3" d="M253.76,71c1.49-2.39,8.16-13.72,4.27-26-2.33-7.33-8.67-15.64-13.25-14.47s-6.24,11-5.52,18C240.6,61.47,251.17,69.17,253.76,71Z" transform="translate(-0.5 -0.2)"/><path class="cls-24" d="M238.27,94.66a261.18,261.18,0,0,0,19.3-19.08A264.77,264.77,0,0,0,280.64,46.4" transform="translate(-0.5 -0.2)"/><path class="cls-24" d="M289.25,82.85c-14.59-.48-32.4-6.47-32.4-6.47s-8-11-9.34-32.1" transform="translate(-0.5 -0.2)"/><polygon class="cls-25" points="89.59 137.32 182.42 215.84 274.9 137.62 274.9 67.33 89.59 67.33 89.59 137.32"/><polygon class="cls-6" points="74.86 268.16 182.42 196.51 289.99 268.16 74.86 268.16"/><polyline class="cls-26" points="77.14 266.64 182.42 196.51 288.1 266.9"/><path class="cls-27" d="M259.43,101.47H181.57a3.35,3.35,0,0,1-3.28-3.41h0a3.34,3.34,0,0,1,3.28-3.4h77.86a3.34,3.34,0,0,1,3.28,3.4h0a3.35,3.35,0,0,1-3.28,3.41Z" transform="translate(-0.5 -0.2)"/><path class="cls-27" d="M125.8,116.66h62.51a1.1,1.1,0,0,1,1.07,1.12v4.57a1.1,1.1,0,0,1-1.07,1.12H125.8a1.1,1.1,0,0,1-1.07-1.12v-4.57A1.1,1.1,0,0,1,125.8,116.66Z" transform="translate(-0.5 -0.2)"/><g class="cls-28"><path class="cls-27" d="M125.51,138.67h74.11a1.19,1.19,0,0,1,1.17,1.21v4.38a1.19,1.19,0,0,1-1.17,1.21H125.51a1.19,1.19,0,0,1-1.17-1.21v-4.38A1.19,1.19,0,0,1,125.51,138.67Z" transform="translate(-0.5 -0.2)"/><path class="cls-27" d="M235.73,145.48h-15a3.36,3.36,0,0,1-3.28-3.41h0a3.34,3.34,0,0,1,3.28-3.4h15a3.34,3.34,0,0,1,3.28,3.4h0A3.36,3.36,0,0,1,235.73,145.48Z" transform="translate(-0.5 -0.2)"/><path class="cls-27" d="M222,159H127.62a3.34,3.34,0,0,1-3.28-3.4h0a3.35,3.35,0,0,1,3.28-3.41H222a3.35,3.35,0,0,1,3.28,3.41h0A3.34,3.34,0,0,1,222,159Z" transform="translate(-0.5 -0.2)"/><path class="cls-27" d="M125.53,167.18H239.64a1.21,1.21,0,0,1,1.18,1.23v4.34a1.21,1.21,0,0,1-1.18,1.23H125.53a1.21,1.21,0,0,1-1.19-1.23v-4.34A1.21,1.21,0,0,1,125.53,167.18Z" transform="translate(-0.5 -0.2)"/></g><path class="cls-29" d="M257.22,209.47h51a2.94,2.94,0,0,1,2.89,3v52.89a2.94,2.94,0,0,1-2.89,3h-51a3,3,0,0,1-2.89-3V212.47A3,3,0,0,1,257.22,209.47Z" transform="translate(-0.5 -0.2)"/><path class="cls-23" d="M265.06,249.6a5.54,5.54,0,0,1,1.4.18,4.25,4.25,0,0,1,2.56,1.77,4.85,4.85,0,0,1,.57,3.59l0,.05v.06a4.05,4.05,0,0,1-2.2,2.53,12.33,12.33,0,0,1-2.42.69,1.37,1.37,0,0,0-.91.52,1.5,1.5,0,0,0-.22.88l0,1.5h5.56v2.85h-8.5v-2.85l0-2.31a3.74,3.74,0,0,1,.91-2.09,4.82,4.82,0,0,1,2.54-1.27,12.53,12.53,0,0,0,1.93-.53,1.23,1.23,0,0,0,.73-1.09,1.4,1.4,0,0,0-1.18-1.54,3.4,3.4,0,0,0-3,.84l-2-1.94A5.6,5.6,0,0,1,265,249.6Z" transform="translate(-0.5 -0.2)"/><path class="cls-23" d="M281.05,249.6v7.18h1.11v2.84h-1.11v4.6h-2.74v-4.6h-5.89l1.41-10h2.76l-1,7.18h2.73V249.6Z" transform="translate(-0.5 -0.2)"/><path class="cls-23" d="M292.48,249.6l-4.69,14.62H284.9l4.69-14.62Z" transform="translate(-0.5 -0.2)"/><path class="cls-23" d="M304.61,249.6l-5,14.62h-2.9l4-11.77h-5.52V249.6Z" transform="translate(-0.5 -0.2)"/><path class="cls-23" d="M282.92,243.9c-8.28,0-15-7-15-15.55s6.71-15.54,15-15.54,15,7,15,15.54h0C297.89,236.93,291.19,243.89,282.92,243.9Zm0-29.59a14.05,14.05,0,1,0,13.53,14h0a13.8,13.8,0,0,0-13.53-14Z" transform="translate(-0.5 -0.2)"/><polygon class="cls-23" points="291.39 228.9 281.69 228.9 281.69 217.24 283.14 217.24 283.14 227.4 291.39 227.4 291.39 228.9"/></svg>