<svg id="Layer_1" data-name="Layer 1" xmlns="http://www.w3.org/2000/svg" viewBox="0 0 342 270"><defs><style>.cls-1{fill:#fee798;}.cls-2{opacity:0.4;}.cls-3{fill:#be8d23;}.cls-4{fill:#fff2d5;}.cls-5{fill:#fff1db;}.cls-6{fill:#f89f49;}.cls-7{fill:#fff;}.cls-8,.cls-9{fill:#fae6a0;}.cls-27,.cls-8{opacity:0.5;}.cls-8{isolation:isolate;}.cls-10{fill:#f89f4f;}.cls-11{fill:#f6a19e;}.cls-12{fill:#e4dbd7;}.cls-13{fill:#a5b0db;}.cls-14{fill:#6a7cc3;}.cls-15{fill:#725e22;}.cls-16{fill:#fac3c3;}.cls-17{fill:#eeede9;}.cls-18{fill:#cccabc;}.cls-19{fill:#555347;}.cls-20{fill:#e6c06a;}.cls-21{fill:#4b567f;}.cls-22{fill:#505d92;}.cls-23{fill:#353e62;}.cls-24{fill:#c1c7dd;}.cls-25{fill:#604206;}.cls-26{fill:#8b691e;}.cls-28{fill:#ffdd76;}.cls-29{fill:#a2abcc;}.cls-30{fill:#45802c;}.cls-31{fill:#a89466;}.cls-32{fill:#85ba6e;}.cls-33{fill:#c8be9b;}.cls-34{fill:#e4dfcd;}.cls-35{fill:#fff6cc;}.cls-36{fill:#323955;}.cls-37{fill:#f2bec6;}.cls-38{fill:#989694;}.cls-39{fill:#e3d478;}.cls-40{fill:#fec191;}.cls-41{fill:#fe9748;}</style></defs><title>contact-web</title><path class="cls-1" d="M25.33,269.59S-17,219.77,10,161.18,73,132.07,71.32,63.88s83.15-74,110.17-54.24,29.39,32.53,85.17,24.67,81.72,50.19,63.4,90.47c-21.42,47,43.08,51.6-5.92,144.93Z" transform="translate(-1 0.29)"/><g class="cls-2"><path class="cls-3" d="M317.57,94.47a55.67,55.67,0,0,1-.71,8.84,52,52,0,0,1-6.94,18.83c-7.92,12.93-21.24,21.41-36.33,21.41-17.95,0-33.39-12-40.22-29.21a50.33,50.33,0,0,1-2.24-7.06A55,55,0,0,1,230.61,84a.52.52,0,0,1,0-.11,51,51,0,0,1,11.83-24.12,46.53,46.53,0,0,1,5.33-5.08c.91-.73,1.84-1.43,2.79-2.08a40.45,40.45,0,0,1,23-7.25c1.12,0,2.23,0,3.32.14a40.49,40.49,0,0,1,21.79,8.64h0a46.46,46.46,0,0,1,8.48,8.62,49.07,49.07,0,0,1,3.58,5.44q1,1.78,1.89,3.66A52.77,52.77,0,0,1,316,81.43,54,54,0,0,1,317.57,94.47Z" transform="translate(-1 0.29)"/><path class="cls-4" d="M258.64,72.5c-1.75,3.1.73,8.49-4.53,7s-8.49-2.13-8.78,1.14,3.95,3.26,3.95,6.69-1.9,4.56-4.82,2.93-3.77-4-7.17-2.52-5.38.49-6.14-2.45A4.92,4.92,0,0,0,230.6,84a.43.43,0,0,1,0-.11,51,51,0,0,1,11.83-24.12,46.53,46.53,0,0,1,5.33-5.08c.91-.73,1.84-1.43,2.79-2.08A5.57,5.57,0,0,1,255,55.19c3.07,4.25,5.11,2.13,4.38,7s.44,5.55,2.93,5.39,5.41-.17,5.7,2S260.4,69.4,258.64,72.5Z" transform="translate(-1 0.29)"/><path class="cls-5" d="M276.86,101.88s-3.88,1.38-4.9-1.64.14-3.67-3.3-4.57-3.73-3.51-5.92-3.18-1.1,1.31-3.66,3.43-4.9,1.15-4.82,5.06,3.87,4.53,4.64,7.1-.55,3.68,1.1,5.63,4.72,1.1,3.29,3.8-3.62,4.77-2.52,8.93.33,4.41,2.2,7.35,5.49,3.92,6,2-2.52-4.53-1.53-6.49,2.63-.61,3.29-3.55,3.33-2.94,3.55-5-3.22-5.14-1.9-6.45,3.94,2.36,6-.9.66-5.88,2.78-9S278.32,100.08,276.86,101.88Z" transform="translate(-1 0.29)"/><path class="cls-4" d="M317.57,94.47a55.67,55.67,0,0,1-.71,8.84,52,52,0,0,1-6.94,18.83,4.5,4.5,0,0,1-3.51-.11c-5.49-2.44-1.43-9.06.76-12.35s-3.4-1.84-7.46-4.9.44-11.26-3.73-9.92-9.22,3.06-11.62-1.47,2.19-5.26.11-9.06,1.2-6,5.37-6.36,3.62-3.68,8.78-4.17,5,6.86,10.75,6.37,5.45,1,5.45,1a2.47,2.47,0,0,1,1.19.27A54.62,54.62,0,0,1,317.57,94.47Z" transform="translate(-1 0.29)"/><path class="cls-4" d="M312.65,71.88c-4.74,2.58-6.65-4.43-10.7-2.32s-3.37-2-6.59-4.57-9.66,2.12-9.36-2,5.12-2.94,6.15-6.2,5.7-2.45,5.7-2.45a3.13,3.13,0,0,1,.85-.22h0a46.15,46.15,0,0,1,8.48,8.62,47.69,47.69,0,0,1,3.58,5.44Q311.78,70,312.65,71.88Z" transform="translate(-1 0.29)"/><path class="cls-4" d="M272.69,57.81s2.48-4-1.47-5.19-3.87.37-6.94,0-4.28,2.29-2,5.19,4.17,8.45,6.26,5.49S270.24,58.09,272.69,57.81Z" transform="translate(-1 0.29)"/></g><path class="cls-5" d="M289.36,87V239.8c0,2.67-1.72,4.84-3.86,4.84H88c-2.13,0-3.86-2.17-3.86-4.84V87c0-2.67,1.73-4.84,3.86-4.84H285.5C287.63,82.18,289.36,84.35,289.36,87Z" transform="translate(-1 0.29)"/><path class="cls-6" d="M289.36,86.49V98H84.11V86.49A4.11,4.11,0,0,1,88,82.18H285.5A4.11,4.11,0,0,1,289.36,86.49Z" transform="translate(-1 0.29)"/><path class="cls-7" d="M90.39,90.1a1.81,1.81,0,1,1,1.8,2A1.91,1.91,0,0,1,90.39,90.1Z" transform="translate(-1 0.29)"/><path class="cls-7" d="M97.47,90.1a1.81,1.81,0,1,1,1.8,2A1.91,1.91,0,0,1,97.47,90.1Z" transform="translate(-1 0.29)"/><path class="cls-7" d="M104.73,90.1a1.81,1.81,0,1,1,1.8,2A1.91,1.91,0,0,1,104.73,90.1Z" transform="translate(-1 0.29)"/><rect class="cls-8" x="193.55" y="197.37" width="21.65" height="24.16"/><polygon class="cls-6" points="195.18 218.76 201.57 205.9 206.28 213.06 208.62 210.19 213.6 218.76 195.18 218.76"/><path class="cls-6" d="M205.62,203.77a1.66,1.66,0,1,1,1.65,1.85A1.76,1.76,0,0,1,205.62,203.77Z" transform="translate(-1 0.29)"/><rect class="cls-8" x="193.55" y="153.15" width="53.97" height="34.91"/><polygon class="cls-6" points="214.45 161.66 214.45 179.55 226.63 170.6 214.45 161.66"/><path class="cls-9" d="M273.23,126.87A15.32,15.32,0,0,1,269.54,137a11.75,11.75,0,0,1-8.85,4.21H114.62c-7.45,0-13.55-6.45-13.55-14.32a14.68,14.68,0,0,1,4-10.12,13.14,13.14,0,0,1,9.57-4.21H260.68C267.59,112.54,273.23,119,273.23,126.87Z" transform="translate(-1 0.29)"/><path class="cls-10" d="M273.23,126.87A15.32,15.32,0,0,1,269.54,137a11.75,11.75,0,0,1-8.85,4.21H234.25V112.54h26.43C267.59,112.54,273.23,119,273.23,126.87Z" transform="translate(-1 0.29)"/><path class="cls-7" d="M256.49,132.07a5.4,5.4,0,0,1-1-.08,6.37,6.37,0,0,1-4.29-2.87,7.87,7.87,0,0,1,1.37-10.21h0a6.11,6.11,0,0,1,9.15,1.52,7.88,7.88,0,0,1-1.37,10.21A6,6,0,0,1,256.49,132.07Zm-3.26-12.19a6.58,6.58,0,0,0-1.14,8.53,5.36,5.36,0,0,0,3.58,2.4,5,5,0,0,0,4.06-1.13,6.58,6.58,0,0,0,1.14-8.53A5.1,5.1,0,0,0,253.23,119.88Z" transform="translate(-1 0.29)"/><polygon class="cls-7" points="243.8 135.46 243.16 134.49 250.33 128.56 250.98 129.53 243.8 135.46"/><path class="cls-7" d="M242,136.74h0a1.16,1.16,0,0,1,.2-1.5l4.23-3.49a.89.89,0,0,1,1.26.11h0a.76.76,0,0,1,.08.11h0a1.16,1.16,0,0,1-.2,1.51L243.34,137a.9.9,0,0,1-1.27-.12A.44.44,0,0,1,242,136.74Z" transform="translate(-1 0.29)"/><path class="cls-11" d="M144.27,107.13a1.19,1.19,0,0,0-.18,1.16h0a7.16,7.16,0,0,0,2.06,2.52l.33.3.07.08.06.06c.9.92.56,1.14,2.18,3,1.85,2.15,3.12,2.19,3.49,2s-.32-1.3-1-2.58l-.1-.19-.27-.51c-.81-1.54-.6-2.27-.42-4.56.16-1.86,2.6-10.4,2.6-10.4l-3.54-.69s-1.07,6.8-2.25,7.85c-.63.56-1.33.56-1.93,1l-.13.09A4.45,4.45,0,0,0,144.27,107.13Z" transform="translate(-1 0.29)"/><path class="cls-12" d="M144.27,107.13a1.19,1.19,0,0,0-.18,1.16h0a8.1,8.1,0,0,0,2.07,2.51l.32.31.08.08.06.06c.9.92.56,1.14,2.18,3,1.85,2.15,3.12,2.19,3.48,2s-.31-1.3-1-2.58A8,8,0,0,1,148,111c-1.08-1.53-1.8-3.48-2.54-4.68l-.2-.05A4.82,4.82,0,0,0,144.27,107.13Z" transform="translate(-1 0.29)"/><path class="cls-11" d="M172.85,104.67c.21,1.22,1.77,1,3.52.55s1.32.08,3.8-.22,3.23-1.34,3.31-1.75-1.16-.49-2.48-.66l-.5-.07c-1.48-.21-2.57-1.28-3.92-2.15s-3.18-4.22-3.18-4.22l-3.39.29s1.79,3,2.48,4.34a5,5,0,0,1,.33,2.58A5.73,5.73,0,0,0,172.85,104.67Z" transform="translate(-1 0.29)"/><path class="cls-12" d="M176.37,105.21c1.74-.47,1.32.09,3.8-.22s3.23-1.33,3.31-1.74-1.16-.5-2.48-.67v0a6.59,6.59,0,0,1-3.55,1.24c-1.69,0-3.47-.5-4.63-.48a5.64,5.64,0,0,0,0,1.3C173.06,105.89,174.62,105.68,176.37,105.21Z" transform="translate(-1 0.29)"/><path class="cls-13" d="M159.82,80.4l-3.18,9.54-4.15,12.46a6,6,0,0,1-2.2-.22,9.14,9.14,0,0,1-2.14-1.16s1.16-13.38,3.31-21.06a14.53,14.53,0,0,1,1.85-4.47C156.64,71.1,159.82,80.4,159.82,80.4Z" transform="translate(-1 0.29)"/><path class="cls-14" d="M156.6,65.24c-1.81-.65-6.53,0-11.65,1a3.35,3.35,0,0,1-3.59-1.81h0l-12.89-1.13s-4.25,10.52-1.92,17.23a2.26,2.26,0,0,0,2.25,1.62h0l10.27,0c6.41,0,13.57-4.91,14.49-5.12,1.52-.34,2.13,3.05,3.64,6.59S171.43,99.4,171.43,99.4a10.09,10.09,0,0,0,2.77-.32,2.63,2.63,0,0,0,1.18-.84S161.29,66.93,156.6,65.24Z" transform="translate(-1 0.29)"/><path class="cls-15" d="M140,22.23a4.2,4.2,0,0,0-2.46-.72,6,6,0,0,1-1.19-.08c-4.91-.81-7.88,7.17-8,9.57-.32,4.43-2.42,5.09-5.37,7.87-5.92,5.55-4.19,12-1,14.4,1.94,1.44,5.37,0,5.37,0s9.35-5.8,13.94-8.62C148.17,43.56,142.77,24.06,140,22.23Z" transform="translate(-1 0.29)"/><path class="cls-11" d="M137.44,42.05s-2.25.88-3.78.13-2.52-3.35-2.49-3.35c.65,0,1.36-.67,1.92-4.85l.28.11L138,36s-.33,1.67-.55,3.27C137.29,40.57,137.19,41.86,137.44,42.05Z" transform="translate(-1 0.29)"/><path class="cls-16" d="M138,36s-.19.9-.46,2.59a5.62,5.62,0,0,1-4.21-4.47Z" transform="translate(-1 0.29)"/><path class="cls-11" d="M138.73,37.63s-6.39-1-5.79-5.4.17-7.55,4.27-7.12,4.67,2.25,4.79,3.78S140.4,37.77,138.73,37.63Z" transform="translate(-1 0.29)"/><path class="cls-15" d="M141.77,26.46s-4.08,3.94-6.87,4.26-3.83-.69-3.83-.69a12.22,12.22,0,0,0,2.63-4,2,2,0,0,1,1.61-1.29C137.29,24.58,141.05,24.49,141.77,26.46Z" transform="translate(-1 0.29)"/><path class="cls-15" d="M139.21,26.11a11.09,11.09,0,0,1,1.8,2.58,9.69,9.69,0,0,1,.21,4.59s2.13-4.63.92-6.88S139.21,26.11,139.21,26.11Z" transform="translate(-1 0.29)"/><path class="cls-17" d="M142.82,52.75c-.2,14.42-.06,11.4-1.47,12.77a4.94,4.94,0,0,1-2.56.62c-4,.29-10.93-.44-11.2-1.26-.91-2.82-.27-3.7-1-8-.08-.46-.18-1-.29-1.5-.63-3-1.25-4,1-8.77,2-4.33,4.18-7.84,4.37-7.7,5.4,3.57,5.83.57,5.83.57S142.92,45.71,142.82,52.75Z" transform="translate(-1 0.29)"/><path class="cls-14" d="M156.64,89.94l-4.15,12.46a6,6,0,0,1-2.2-.22,9.14,9.14,0,0,1-2.14-1.16s1.16-13.38,3.31-21.06Z" transform="translate(-1 0.29)"/><path class="cls-17" d="M137.47,39.44s5.56,1.05,6.21,3.72S146.47,62,146.47,62s-1.56,1.71-2.87.25-4.1-15.16-4.1-15.16Z" transform="translate(-1 0.29)"/><path class="cls-18" d="M138.79,66.14c-4,.29-10.93-.44-11.2-1.26-.91-2.82-.27-3.7-1-8l1.92-6s-.32,6.69,1.45,8.45,7.23,3.4,8.09,4.87A5.59,5.59,0,0,1,138.79,66.14Z" transform="translate(-1 0.29)"/><path class="cls-11" d="M134.25,63.33s3.91-1,4.54-.59A9.4,9.4,0,0,1,141.15,65c.2.49-1.4-.37-1.92-.53a4.33,4.33,0,0,0-1.67.41,5,5,0,0,1-3,.33Z" transform="translate(-1 0.29)"/><path class="cls-17" d="M131.63,38.87s-5.25.36-7.06,3.18c-2.56,4-7.64,21-4.73,23.22,3.27,2.55,14.9.67,14.9.67a5.85,5.85,0,0,0-.15-3c-.53-1-9.28-2.55-9.69-3S130,51.15,130,49.79,131.63,38.87,131.63,38.87Z" transform="translate(-1 0.29)"/><path class="cls-11" d="M139,64a8.1,8.1,0,0,0,1.09,1.32.67.67,0,0,0,.44.1L140,64.27Z" transform="translate(-1 0.29)"/><path class="cls-11" d="M138.79,62.74l2.38,1.3a.41.41,0,0,1-.4.16,5,5,0,0,1-1-.31Z" transform="translate(-1 0.29)"/><polygon class="cls-19" points="158.13 66.08 133.25 66.06 133.25 66.68 157.91 66.69 158.13 66.08"/><polygon class="cls-19" points="139.07 66.68 157.91 66.69 163.58 50.96 144.77 50.95 139.07 66.68"/><path class="cls-7" d="M154.15,58.53c.14-.55-.13-1-.64-1a1.31,1.31,0,0,0-1.15,1c-.14.55.14,1,.64,1A1.3,1.3,0,0,0,154.15,58.53Z" transform="translate(-1 0.29)"/><path class="cls-10" d="M107.22,156.12h34.1a1.24,1.24,0,0,1,1.24,1.24h0v1a1.25,1.25,0,0,1-1.24,1.24h-34.1a1.24,1.24,0,0,1-1.24-1.24h0v-1a1.24,1.24,0,0,1,1.23-1.24Z" transform="translate(-1 0.29)"/><path class="cls-20" d="M123.82,171.5H107a1.13,1.13,0,0,1-1.06-1.19h0a1.13,1.13,0,0,1,1.06-1.18h16.79a1.12,1.12,0,0,1,1.06,1.18h0A1.13,1.13,0,0,1,123.82,171.5Z" transform="translate(-1 0.29)"/><path class="cls-20" d="M106.93,164.17h29.78a1,1,0,0,1,.95,1v.45a1,1,0,0,1-.95,1H106.93a1,1,0,0,1-1-1v-.45A1,1,0,0,1,106.93,164.17Z" transform="translate(-1 0.29)"/><path class="cls-20" d="M141.47,164.17h27.74a.93.93,0,0,1,.93.93v.52a.93.93,0,0,1-.93.92H141.47a.92.92,0,0,1-.92-.92h0v-.52A.93.93,0,0,1,141.47,164.17Z" transform="translate(-1 0.29)"/><path class="cls-20" d="M144.76,171.5H128a1.13,1.13,0,0,1-1.06-1.19h0a1.13,1.13,0,0,1,1.06-1.18h16.79a1.13,1.13,0,0,1,1.06,1.18h0A1.13,1.13,0,0,1,144.76,171.5Z" transform="translate(-1 0.29)"/><path class="cls-10" d="M148.65,156.12h34.1a1.24,1.24,0,0,1,1.24,1.24h0v1a1.25,1.25,0,0,1-1.24,1.24h-34.1a1.25,1.25,0,0,1-1.24-1.24h0v-1a1.24,1.24,0,0,1,1.23-1.24Z" transform="translate(-1 0.29)"/><path class="cls-10" d="M107.22,218.14h34.1a1.24,1.24,0,0,1,1.24,1.24v1a1.24,1.24,0,0,1-1.24,1.23h-34.1a1.23,1.23,0,0,1-1.24-1.23h0v-1a1.24,1.24,0,0,1,1.23-1.25Z" transform="translate(-1 0.29)"/><path class="cls-20" d="M123.82,233.52H107a1.13,1.13,0,0,1-1.06-1.19h0a1.13,1.13,0,0,1,1.06-1.18h16.79a1.12,1.12,0,0,1,1.06,1.18h0A1.13,1.13,0,0,1,123.82,233.52Z" transform="translate(-1 0.29)"/><path class="cls-20" d="M106.93,226.19h29.78a1,1,0,0,1,.95,1v.46a1,1,0,0,1-.95,1H106.93a1,1,0,0,1-1-1v-.46A1,1,0,0,1,106.93,226.19Z" transform="translate(-1 0.29)"/><path class="cls-20" d="M141.47,226.19h27.74a.93.93,0,0,1,.93.93v.51a.93.93,0,0,1-.93.93H141.47a.92.92,0,0,1-.92-.92h0v-.51A.93.93,0,0,1,141.47,226.19Z" transform="translate(-1 0.29)"/><path class="cls-20" d="M144.76,233.52H128a1.13,1.13,0,0,1-1.06-1.19h0a1.13,1.13,0,0,1,1.06-1.18h16.79a1.13,1.13,0,0,1,1.06,1.18h0A1.13,1.13,0,0,1,144.76,233.52Z" transform="translate(-1 0.29)"/><path class="cls-10" d="M148.65,218.14h34.1a1.24,1.24,0,0,1,1.24,1.24v1a1.24,1.24,0,0,1-1.24,1.23h-34.1a1.24,1.24,0,0,1-1.24-1.23h0v-1a1.24,1.24,0,0,1,1.23-1.25Z" transform="translate(-1 0.29)"/><path class="cls-10" d="M107.22,187.14h34.1a1.24,1.24,0,0,1,1.24,1.23h0v1a1.25,1.25,0,0,1-1.24,1.24h-34.1a1.24,1.24,0,0,1-1.24-1.24v-1a1.23,1.23,0,0,1,1.24-1.23Z" transform="translate(-1 0.29)"/><path class="cls-20" d="M123.82,202.51H107a1.13,1.13,0,0,1-1.06-1.19h0a1.13,1.13,0,0,1,1.06-1.18h16.79a1.12,1.12,0,0,1,1.06,1.18h0A1.13,1.13,0,0,1,123.82,202.51Z" transform="translate(-1 0.29)"/><path class="cls-20" d="M106.93,195.18h29.78a1,1,0,0,1,.95,1v.45a1,1,0,0,1-.95,1H106.93a1,1,0,0,1-1-1v-.45A1,1,0,0,1,106.93,195.18Z" transform="translate(-1 0.29)"/><path class="cls-20" d="M141.47,195.18h27.74a.93.93,0,0,1,.93.93h0v.51a.93.93,0,0,1-.93.93H141.47a.92.92,0,0,1-.92-.92h0v-.51a.93.93,0,0,1,.92-.93Z" transform="translate(-1 0.29)"/><path class="cls-20" d="M144.76,202.51H128a1.13,1.13,0,0,1-1.06-1.19h0a1.13,1.13,0,0,1,1.06-1.18h16.79a1.13,1.13,0,0,1,1.06,1.18h0A1.13,1.13,0,0,1,144.76,202.51Z" transform="translate(-1 0.29)"/><path class="cls-10" d="M148.65,187.14h34.1a1.24,1.24,0,0,1,1.24,1.23h0v1a1.25,1.25,0,0,1-1.24,1.24h-34.1a1.25,1.25,0,0,1-1.24-1.24v-1a1.24,1.24,0,0,1,1.24-1.23Z" transform="translate(-1 0.29)"/><path class="cls-11" d="M87.16,173.91s.38-1,.63-1.42,1.31-1.78,1.49-1.49.9,2.34.52,2.91,0,1.56-1.89,2.16Z" transform="translate(-1 0.29)"/><path class="cls-21" d="M65.94,167.83s9.77,9.11,13.58,8.27a69.76,69.76,0,0,0,7.56-2.41L88,176.3s-4.1,6.21-8.38,6.25A22.54,22.54,0,0,1,68,179.32Z" transform="translate(-1 0.29)"/><path class="cls-22" d="M48.47,264.24a10.68,10.68,0,0,0,3,.63,9.61,9.61,0,0,0,2.82-.45,95.1,95.1,0,0,1,2.08-11.05c.92-4,2.24-9.1,4.11-15.46,5.18-17.59,6.76-27.88,6.9-28.85a.45.45,0,0,0,0-.08h0l-15.92-7.8s2,24.24-.54,33.54a42.46,42.46,0,0,0-.91,4.46C48.43,249.27,48.47,264.24,48.47,264.24Z" transform="translate(-1 0.29)"/><path class="cls-23" d="M56.39,253.37c.92-4,2.24-9.1,4.11-15.46,5.18-17.59,6.76-27.88,6.9-28.85V209l-15.92-7.8s2,24.23-.54,33.54C50.58,236,56.39,253.37,56.39,253.37Z" transform="translate(-1 0.29)"/><path class="cls-22" d="M70.26,201.74a281,281,0,0,1-2.23,35C65.6,256,66.42,264.2,66.42,264.2a14.83,14.83,0,0,1-2.35.67,9.51,9.51,0,0,1-3.48-.45s-3.49-19.29-2.49-28.94-4.77-33.13-4.77-33.13Z" transform="translate(-1 0.29)"/><path class="cls-11" d="M59,165l3.1,2.27,2.83-.89a8.33,8.33,0,0,0,.67-3.79,25.17,25.17,0,0,0-.11-2.52L61.26,158l-1.56-.77s.12,1.43.14,1.64A13.17,13.17,0,0,1,59,165Z" transform="translate(-1 0.29)"/><path class="cls-24" d="M70.33,206.11c-3.87,4.17-18.51,3.47-19.42-1.13s1-39.09,7.6-41.26c1.37-.45,8.7,2.2,8.7,2.2a57.13,57.13,0,0,1,1.91,7.63c.14.83.57,9.65.89,17.9.15,3.85.27,7.59.34,10.32A34,34,0,0,1,70.33,206.11Z" transform="translate(-1 0.29)"/><path class="cls-16" d="M60.15,158.92c.85,1.61,3.84,3,5.42,3.66,0-1.37-.11-2.52-.11-2.52L61.26,158C60.34,158,59.77,158.21,60.15,158.92Z" transform="translate(-1 0.29)"/><path class="cls-11" d="M67,159.77s-6.76,2.35-8-2.36-3-7.6,1.3-9.3,5.58-.18,6.34,1.29S68.76,159,67,159.77Z" transform="translate(-1 0.29)"/><path class="cls-25" d="M66.41,148.94S66,154.43,65,154.19s-2.13-.75-2,.91-1,4.49-2.46,4.49c-3.15,0-6.57-9-5.7-10.74C57.3,143.92,70,142.92,66.41,148.94Z" transform="translate(-1 0.29)"/><path class="cls-21" d="M65.41,163.84c-.08,0-5-2.52-5.6-2.3s-1.3,2.18-1.3,2.18l8.7,2.2A4.62,4.62,0,0,0,65.41,163.84Z" transform="translate(-1 0.29)"/><path class="cls-26" d="M96.19,190.56,68.48,219.67c-.54.57-1.23.75-1.52.4L66,219c-.29-.34-.09-1.09.45-1.67l27.71-29.11c.55-.57,1.23-.75,1.52-.41l.94,1.11C96.93,189.24,96.73,190,96.19,190.56Z" transform="translate(-1 0.29)"/><path class="cls-20" d="M80.64,206.9,68.48,219.67c-.54.57-1.23.75-1.52.4L66,219c-.29-.35-.09-1.1.45-1.67l12.16-12.77Z" transform="translate(-1 0.29)"/><path class="cls-26" d="M89.82,179.57a24.63,24.63,0,0,0,5.9,10.57c8.73,9.17,22.48,8.7,30.7-1s7.8-24.67-.6-33.88c-.11-.13-.23-.25-.34-.37-8.74-9.17-22.48-8.71-30.7,1A26.32,26.32,0,0,0,89.82,179.57ZM96,157.2a18.77,18.77,0,0,1,18-6.7,19.21,19.21,0,0,1,10.28,5.74c8,8.45,8.43,22.57.86,31.55a19.54,19.54,0,0,1-9.94,6.43,18.57,18.57,0,0,1-18.33-5.46C88.84,180.31,88.45,166.18,96,157.2Z" transform="translate(-1 0.29)"/><g class="cls-27"><path class="cls-28" d="M125.16,187.79a19.61,19.61,0,0,1-9.94,6.43,18.58,18.58,0,0,1-18.33-5.47c-8-8.44-8.43-22.57-.86-31.55a18.79,18.79,0,0,1,18-6.7,19.22,19.22,0,0,1,10.27,5.74C132.35,164.69,132.73,178.81,125.16,187.79Z" transform="translate(-1 0.29)"/></g><path class="cls-21" d="M70.35,201.77c-15.27-12.14-14-28.34-14-28.34,5.59,3.51,11.12,11.28,13.66,18C70.16,195.3,70.28,199,70.35,201.77Z" transform="translate(-1 0.29)"/><path class="cls-11" d="M85.42,196.24a4.13,4.13,0,0,0,2-1.34s.46,0-.08,1.13c0,.09-.13.33-.22.49a.11.11,0,0,0,.05.14h0a9.35,9.35,0,0,1,2.45.05c.16,0,.21.48.2.67a1.87,1.87,0,0,1-.32,1.17,5.15,5.15,0,0,1-1.92,1.12,5.29,5.29,0,0,1-3-.41l-1-.5.31-2,.24.06C84.53,196.89,85,196.36,85.42,196.24Z" transform="translate(-1 0.29)"/><path class="cls-29" d="M61.09,165.92s-13.72,2.91,4,25.08c2.84,3.54,18.18,8.16,18.18,8.16s1.56-1.48.78-2.67c0,0-10.57-8.56-12.89-9.92-1-.62-4.06-13.66-5.76-16.81A7.78,7.78,0,0,0,61.09,165.92Z" transform="translate(-1 0.29)"/><path class="cls-11" d="M87.53,174.19a8.78,8.78,0,0,0,.54-1.47,8.44,8.44,0,0,1,.88-2.23c.09-.11.4,0,.44.47a3,3,0,0,1-.22,1,10.91,10.91,0,0,0-.29,1.92C88.66,174.63,87.53,174.19,87.53,174.19Z" transform="translate(-1 0.29)"/><polygon class="cls-15" points="269.95 145.25 262.18 147.27 258.34 155.07 255.41 137.3 269.95 145.25"/><polygon class="cls-15" points="266.72 152.87 265.59 153.82 260.63 146.52 261.76 145.56 266.72 152.87"/><path class="cls-30" d="M245.34,227.1s3.21-4.21.18-6.86a8,8,0,0,0-4-1.36s2.57,4.77,1.75,5.25-2.52-5.55-2.52-5.55-5-.52-6.64.35c0,0,4.31,3.91,3.4,4.15s-5.56-3.6-5.56-3.6-4.67.9-4.41,4.09,1.87,4.16,2.58,4.07,4.85-1.86,4.94-1.22-2.4,2.78-4.14,2.89c0,0,3.31,4,5.5,2.86s2.37-3,3.74-3.73,2.53-.71,2,0-3,1.41-3.81,3-1.47,2.59.8,2.2,5.94-2.26,6.1-4.38Z" transform="translate(-1 0.29)"/><path class="cls-31" d="M229.82,223.65s12.7-.59,15.52,3.45a10.33,10.33,0,0,0,2.54,4l.3.9s-2.2-2.58-3-2.74C245.18,229.22,246.4,224.19,229.82,223.65Z" transform="translate(-1 0.29)"/><path class="cls-31" d="M247.88,231.06a9.13,9.13,0,0,1,2.94,6.26l-.5.05s-.88-4.16-2.46-5.78S247.88,231.06,247.88,231.06Z" transform="translate(-1 0.29)"/><path class="cls-30" d="M262.38,216s-5.14-3.19-2.75-7.55c0,0,1.9-2.67,3.95-3.37,0,0-1.07,6.49,0,6.64s.73-7.33.73-7.33,5.39-2.91,7.51-2.69c0,0-3.33,6.34-2.23,6.19s4.83-6.58,4.83-6.58,5.53-1.16,6.43,2.5-.53,5.49-1.35,5.72-6.08.18-5.94.94,3.69,2,5.67,1.28c0,0-2.17,6-5,5.73s-3.76-2.27-5.54-2.42-3.08.4-2.19.93,3.9.16,5.34,1.51,2.6,2.19-.06,2.81-7.45.25-8.41-2Z" transform="translate(-1 0.29)"/><path class="cls-31" d="M278.34,205s-14.34,5.24-16,11a13.25,13.25,0,0,1-1.35,5.57v1.14s1.49-3.89,2.31-4.43C263.34,218.29,260.11,213.26,278.34,205Z" transform="translate(-1 0.29)"/><path class="cls-31" d="M261,221.58a11.61,11.61,0,0,0-.93,8.32l.57-.17s-.57-5,.58-7.57S261,221.58,261,221.58Z" transform="translate(-1 0.29)"/><path class="cls-32" d="M254.21,211.61s6.74-4.25,3.58-10c0,0-2.54-3.51-5.24-4.4,0,0,1.46,8.54,0,8.75s-1-9.65-1-9.65-7.13-3.8-9.92-3.48c0,0,4.44,8.33,3,8.13s-6.42-8.62-6.42-8.62-7.31-1.49-8.46,3.34.74,7.24,1.82,7.54,8,.17,7.84,1.18-4.85,2.63-7.47,1.73c0,0,2.91,7.94,6.69,7.52s5-3,7.29-3.24,4.06.49,2.89,1.19-5.13.25-7,2.05-3.41,2.92.1,3.71,9.83.27,11.08-2.74Z" transform="translate(-1 0.29)"/><path class="cls-31" d="M233.08,197.21S252,204,254.21,211.62A17.57,17.57,0,0,0,256,219v1.51s-2-5.12-3.08-5.82C253,214.64,257.17,208,233.08,197.21Z" transform="translate(-1 0.29)"/><path class="cls-31" d="M256,219a15.26,15.26,0,0,1,1.28,11l-.75-.22s.71-6.63-.83-10S256,219,256,219Z" transform="translate(-1 0.29)"/><path class="cls-33" d="M308.32,269.46H239.06c-9.66-12.33-7.11-29,5.71-43,1.61-1.76,4.7-3,8-3.9a79.47,79.47,0,0,1,13.17-2,52.94,52.94,0,0,0,5.89-6.3c6.84-9.25,12.66-8.46,12.66-8.46,7-1.51,12.94-2,17.34.79h0c4.09,2.54,6.86,7.82,7.89,17.52q.3,2.74.4,6c.25,7.87,1.65,14.88,2.48,20.81h0C313.82,259.44,314.67,266,308.32,269.46Z" transform="translate(-1 0.29)"/><path class="cls-34" d="M298.41,216.42c-4.23,2.57-4.7,11.05-11.33,13.24s-17.87,2-24.25,9.71c-6.16,7.45-12.95-11.51-10-16.84a79.42,79.42,0,0,1,13.16-2,52.94,52.94,0,0,0,5.89-6.3c6.84-9.25,12.67-8.46,12.67-8.46,7-1.51,12.93-2,17.33.79h0C306.72,212.13,302.64,213.84,298.41,216.42Z" transform="translate(-1 0.29)"/><path class="cls-35" d="M252.59,253.32s1.22,3.62,1,5,.17,3.94-.32,5.11-1.36,2.86-.52,3.29c.32.16,4-3.08,4.24-4s.37-3.77,1.08-5.29a2.38,2.38,0,0,0-.92-3.31c-1-.55-2.48-3.62-2.48-3.62Z" transform="translate(-1 0.29)"/><path class="cls-36" d="M272.42,218.85s-20.27-1.39-22.88,1.61c-2.75,3.16,1.73,34.24,1.73,34.24s5.5.18,5.93-1.45c0,0-1-15.05-.17-17.65a16.26,16.26,0,0,0,.31-6.21s10.75,1.79,14.16.89S272.42,218.85,272.42,218.85Z" transform="translate(-1 0.29)"/><path class="cls-11" d="M277.33,202.26s-3,7.77-4.45,8.6-6.73,7.59-7.86,7.48,1.17,1.37,1.17,1.37l9.91-5.4c.53-.3,3.35-5.48,3.74-8.12S277.33,202.26,277.33,202.26Z" transform="translate(-1 0.29)"/><path class="cls-25" d="M283.43,198.81c-.43-.55,10.54.83,12,7.08,0,0,8.43-7.42.7-13.66-2.68-2.17-2.95-4.48-3.34-6.59s-3.06-8.19-7.69-5.17a5.62,5.62,0,0,0-3.46,1.3C278.59,184.72,275.27,203.45,283.43,198.81Z" transform="translate(-1 0.29)"/><path class="cls-21" d="M281.3,220s-22,2.51-24,5-9.53,35.15-9.53,35.15a4.3,4.3,0,0,0,4.29.09s5.82-11.07,8.4-14.55,3.54-14.21,4-14.31,14.23,2.14,19-1.93S281.3,220,281.3,220Z" transform="translate(-1 0.29)"/><path class="cls-35" d="M293.56,197.64a20.91,20.91,0,0,0-11.92-1.42,4.55,4.55,0,0,0-3.56,2.54c-1.38,2.52-2,3.88-2,3.88s.14,1.17,2,2.11c-.51,2.09.47,5.75-.43,7.17s-6.5,5-6.78,6.91c-.51,3.6,9.57,10.13,12.58,9.43C292.08,226.25,298,200.39,293.56,197.64Z" transform="translate(-1 0.29)"/><path class="cls-25" d="M290.58,190.22a14.53,14.53,0,0,0,1.17-4.14c.1-1.33-.91-6.13-5.23-5a5.81,5.81,0,0,0-2.37,1.3c-.89.82-2.13,2.51-.24,6.59l.52,1.39Z" transform="translate(-1 0.29)"/><path class="cls-11" d="M284.67,197.9c-.44.51-.27,2.22,1.78,2.09,1.34-.09,4.21-1.94,3.94-3.22A17,17,0,0,1,289,191l-.25.08-4.09,1.29s.2,1.45.3,2.82A6.66,6.66,0,0,1,284.67,197.9Z" transform="translate(-1 0.29)"/><path class="cls-37" d="M284.65,192.35s.2,1.46.3,2.83c2.32-.27,3.38-2.74,3.79-4.11Z" transform="translate(-1 0.29)"/><path class="cls-11" d="M284.56,194.47s5.36-1.51,4.47-5.22-.8-6.4-4.26-5.59-3.78,2.41-3.75,3.73S283.15,194.76,284.56,194.47Z" transform="translate(-1 0.29)"/><path class="cls-25" d="M282.32,184.3s1.8,3.82,5.19,4.24a3,3,0,0,1,2.53,1.69,38.67,38.67,0,0,0-1.59-6.72S282.92,181.9,282.32,184.3Z" transform="translate(-1 0.29)"/><path class="cls-25" d="M282.93,184.8a10.42,10.42,0,0,0-1.53,2.28c-.53,1.4.51,4.33.94,5,0,0-2.49-4.71-1.66-6.76S282.93,184.8,282.93,184.8Z" transform="translate(-1 0.29)"/><path class="cls-11" d="M266.61,219.23s-1.06,1.26-1.19,1.32c-.71.37-1.6.16-2,.28s-.36-.18,0-.41,1.1-.15.78-.24a7.63,7.63,0,0,0-2.69-.25,2.17,2.17,0,0,1-1.9-.17,7.81,7.81,0,0,1,3-1.39c.69,0,2.67-.06,2.67-.06Z" transform="translate(-1 0.29)"/><path class="cls-11" d="M295.37,200s6.64,16.74,4.8,19.2-14.62-.53-14.62-.53l.39-1.55s9.41-.64,10.08-.86c1-.3-4.77-12-4.77-12Z" transform="translate(-1 0.29)"/><path class="cls-35" d="M292.89,197.36c.16,0,2.15.73,3.58,3.88s1.91,4.6,1.91,4.6-6.21,5.37-8.68,3.4S290.61,197.3,292.89,197.36Z" transform="translate(-1 0.29)"/><path class="cls-11" d="M287,217a19.1,19.1,0,0,1-1.5-1.19c-.43-.42-2.93-.77-2.93-.49s1.46.67,1.62,1,1,1.44,1.8,1.44A1.1,1.1,0,0,0,287,217Z" transform="translate(-1 0.29)"/><path class="cls-38" d="M284.13,219.52l-2.87-.46a1.28,1.28,0,0,1-1-.89l-1.59-6.24c-.1-.43.16-.72.58-.65l2.87.46a1.28,1.28,0,0,1,1,.89l1.59,6.24C284.81,219.3,284.55,219.59,284.13,219.52Z" transform="translate(-1 0.29)"/><path class="cls-39" d="M283.53,219.42l-2.87-.45a1.28,1.28,0,0,1-1-.89l-1.58-6.25a.48.48,0,0,1,.58-.64l2.86.45a1.28,1.28,0,0,1,1,.89l1.59,6.25A.48.48,0,0,1,283.53,219.42Z" transform="translate(-1 0.29)"/><path class="cls-38" d="M278.59,212a.21.21,0,0,1,.1-.27h0a.23.23,0,0,1,.14,0,.54.54,0,0,1,.4.37.2.2,0,0,1-.09.27.26.26,0,0,1-.15,0A.54.54,0,0,1,278.59,212Z" transform="translate(-1 0.29)"/><path class="cls-11" d="M285.55,218.63a17.57,17.57,0,0,1-2.43-.1c-.48-.13-1.72-1.85-1.39-2.28.21-.27,1.36.22,1.92.22s2-.9,3,.93C286.72,217.6,285.55,218.63,285.55,218.63Z" transform="translate(-1 0.29)"/><path class="cls-33" d="M293.87,222.75s-2.09,2.18-10.82,2.5-20.12,11.08-20.23,14.12,17.58,7.66,17.86,7.23,11.22-10.93,11.22-10.93Z" transform="translate(-1 0.29)"/><path class="cls-34" d="M312.62,250.85c-9.71-13.54-29.67,4.92-34.84,4.39-4.75-.48,9.26-19,26.63-21.73,7-1.11,5.35-9.22,5.34-9.46.2,1.84.33,3.83.4,6C310.41,237.91,311.8,244.92,312.62,250.85Z" transform="translate(-1 0.29)"/><polygon class="cls-40" points="200.16 64.78 219.09 69.15 206.96 58.63 206.14 61.68 201.44 62.29 200.16 64.78"/><polygon class="cls-41" points="219.09 69.15 203.71 58.9 188.19 56.95 219.09 69.15"/><polygon class="cls-41" points="206.96 58.63 219.09 69.15 210.12 53.41 206.96 58.63"/><polygon class="cls-40" points="81.26 124.21 62.34 128.57 74.47 118.06 75.29 121.1 79.98 121.72 81.26 124.21"/><polygon class="cls-41" points="62.34 128.57 77.72 118.33 93.24 116.37 62.34 128.57"/><polygon class="cls-41" points="74.47 118.06 62.34 128.57 71.3 112.83 74.47 118.06"/><path class="cls-20" d="M113.26,130l.55-.74a2.28,2.28,0,0,0,1.65.76c.57,0,.93-.29.93-.75s-.21-.64-1.18-.9-1.74-.66-1.74-1.76a1.67,1.67,0,0,1,1.79-1.69,2.74,2.74,0,0,1,1.9.73l-.5.78a2.19,2.19,0,0,0-1.42-.6c-.54,0-.85.3-.85.71s.24.65,1.24.91,1.68.75,1.68,1.73a1.69,1.69,0,0,1-1.87,1.74A3,3,0,0,1,113.26,130Z" transform="translate(-1 0.29)"/><path class="cls-20" d="M118.08,128.67a2.1,2.1,0,0,1,1.93-2.3c1.25,0,1.89,1.1,1.89,2.37a1.42,1.42,0,0,1,0,.29H119a1.15,1.15,0,0,0,1.14,1.11,1.38,1.38,0,0,0,1.07-.52l.53.52a1.93,1.93,0,0,1-1.62.83A2.09,2.09,0,0,1,118.08,128.67Zm2.92-.31c-.06-.65-.4-1.16-1-1.16s-.94.47-1,1.16Z" transform="translate(-1 0.29)"/><path class="cls-20" d="M125.23,130.87v-.55A1.51,1.51,0,0,1,124,131a1.32,1.32,0,0,1-1.41-1.37,1.41,1.41,0,0,1,1.6-1.44,2.92,2.92,0,0,1,1.1.18v-.08a.87.87,0,0,0-1-.94,2.47,2.47,0,0,0-1.13.27l-.24-.81a3.14,3.14,0,0,1,1.5-.37c1.17,0,1.74.69,1.74,1.86v2.61Zm0-1.84a2.33,2.33,0,0,0-.9-.18c-.57,0-.91.26-.91.7a.68.68,0,0,0,.76.65,1,1,0,0,0,1-.92Z" transform="translate(-1 0.29)"/><path class="cls-20" d="M127.2,126.46h.91v1a1.42,1.42,0,0,1,1.4-1.08v1.07h-.06c-.79,0-1.34.57-1.34,1.74v1.68h-.91Z" transform="translate(-1 0.29)"/><path class="cls-20" d="M129.94,128.68a2.16,2.16,0,0,1,2-2.31,1.89,1.89,0,0,1,1.59.76l-.56.69a1.31,1.31,0,1,0-1,2.29,1.35,1.35,0,0,0,1-.55l.55.6A1.92,1.92,0,0,1,132,131,2.16,2.16,0,0,1,129.94,128.68Z" transform="translate(-1 0.29)"/><path class="cls-20" d="M134.43,124.78h.9v2.37a1.43,1.43,0,0,1,1.24-.78c.89,0,1.41.67,1.41,1.7v2.8h-.91v-2.5c0-.69-.3-1.08-.84-1.08s-.89.41-.89,1.1v2.48h-.91Z" transform="translate(-1 0.29)"/><path class="cls-20" d="M139,129.73h1v1.14h-1Z" transform="translate(-1 0.29)"/><path class="cls-20" d="M141,129.73h1v1.14h-1Z" transform="translate(-1 0.29)"/><path class="cls-20" d="M143,129.73h1v1.14h-1Z" transform="translate(-1 0.29)"/><path class="cls-20" d="M145,129.73h1v1.14h-1Z" transform="translate(-1 0.29)"/><path class="cls-6" d="M197.36,184.62a1,1,0,1,1,1,1.08A1,1,0,0,1,197.36,184.62Z" transform="translate(-1 0.29)"/><path class="cls-6" d="M242.4,184.92H198.59a.28.28,0,0,1-.26-.29h0a.27.27,0,0,1,.26-.29H242.4a.27.27,0,0,1,.26.29h0a.27.27,0,0,1-.25.29Z" transform="translate(-1 0.29)"/></svg>