<svg xmlns="http://www.w3.org/2000/svg" xmlns:xlink="http://www.w3.org/1999/xlink" viewBox="0 0 249.53 175.33"><defs><style>.cls-1{isolation:isolate;}.cls-2,.cls-41,.cls-42,.cls-47{opacity:0.54;}.cls-2{fill:url(#linear-gradient);}.cls-27,.cls-3,.cls-43,.cls-49,.cls-5,.cls-51,.cls-52,.cls-53,.cls-55,.cls-57,.cls-58,.cls-59,.cls-61,.cls-63,.cls-64,.cls-65,.cls-67,.cls-69,.cls-70,.cls-71,.cls-73,.cls-75,.cls-76,.cls-77,.cls-79,.cls-81,.cls-82,.cls-83{mix-blend-mode:multiply;}.cls-3{fill:url(#linear-gradient-2);}.cls-4{fill:url(#linear-gradient-3);}.cls-5{fill:url(#linear-gradient-4);}.cls-6{fill:url(#linear-gradient-5);}.cls-7{fill:url(#linear-gradient-6);}.cls-8{fill:url(#linear-gradient-7);}.cls-9{fill:url(#linear-gradient-8);}.cls-10{fill:url(#linear-gradient-9);}.cls-11{fill:url(#linear-gradient-10);}.cls-12,.cls-17,.cls-19,.cls-21{fill:none;stroke-miterlimit:10;}.cls-12{stroke:#d5a55a;stroke-width:0.71px;}.cls-13{fill:url(#linear-gradient-11);}.cls-14{fill:#fff;}.cls-15{fill:url(#linear-gradient-12);}.cls-16{fill:url(#linear-gradient-13);}.cls-17,.cls-19,.cls-21{stroke:#fff;}.cls-17{stroke-width:0.67px;}.cls-18{fill:url(#linear-gradient-14);}.cls-19{stroke-width:1.05px;}.cls-20{fill:url(#linear-gradient-15);}.cls-21{stroke-width:0.63px;}.cls-22{fill:url(#linear-gradient-16);}.cls-23{fill:url(#linear-gradient-17);}.cls-24{fill:url(#linear-gradient-18);}.cls-25{fill:url(#linear-gradient-19);}.cls-26{fill:url(#linear-gradient-20);}.cls-28{fill:url(#linear-gradient-21);}.cls-29{fill:url(#linear-gradient-22);}.cls-30{fill:url(#linear-gradient-23);}.cls-31{opacity:0.34;}.cls-32{fill:url(#linear-gradient-24);}.cls-33{fill:url(#linear-gradient-25);}.cls-34{fill:url(#linear-gradient-26);}.cls-35{fill:url(#linear-gradient-27);}.cls-36{fill:url(#linear-gradient-28);}.cls-37{fill:url(#linear-gradient-29);}.cls-38{fill:url(#linear-gradient-30);}.cls-39{fill:url(#linear-gradient-31);}.cls-40{fill:url(#linear-gradient-32);}.cls-41{fill:url(#linear-gradient-33);}.cls-42{fill:url(#linear-gradient-34);}.cls-43{opacity:0.61;fill:url(#linear-gradient-35);}.cls-44{fill:url(#linear-gradient-36);}.cls-45{fill:url(#linear-gradient-37);}.cls-46{fill:url(#linear-gradient-38);}.cls-48{fill:url(#linear-gradient-39);}.cls-49{fill:url(#linear-gradient-40);}.cls-50,.cls-51{fill:url(#linear-gradient-41);}.cls-52{fill:url(#linear-gradient-43);}.cls-53{fill:url(#linear-gradient-44);}.cls-54{fill:url(#linear-gradient-45);}.cls-55{fill:url(#linear-gradient-46);}.cls-56,.cls-57{fill:url(#linear-gradient-47);}.cls-58{fill:url(#linear-gradient-49);}.cls-59{fill:url(#linear-gradient-50);}.cls-60{fill:url(#linear-gradient-51);}.cls-61{fill:url(#linear-gradient-52);}.cls-62,.cls-63{fill:url(#linear-gradient-53);}.cls-64{fill:url(#linear-gradient-55);}.cls-65{fill:url(#linear-gradient-56);}.cls-66{fill:url(#linear-gradient-57);}.cls-67{fill:url(#linear-gradient-58);}.cls-68,.cls-69{fill:url(#linear-gradient-59);}.cls-70{fill:url(#linear-gradient-61);}.cls-71{fill:url(#linear-gradient-62);}.cls-72{fill:url(#linear-gradient-63);}.cls-73{fill:url(#linear-gradient-64);}.cls-74,.cls-75{fill:url(#linear-gradient-65);}.cls-76{fill:url(#linear-gradient-67);}.cls-77{fill:url(#linear-gradient-68);}.cls-78{fill:url(#linear-gradient-69);}.cls-79{fill:url(#linear-gradient-70);}.cls-80,.cls-81{fill:url(#linear-gradient-71);}.cls-82{fill:url(#linear-gradient-73);}.cls-83{fill:url(#linear-gradient-74);}.cls-84{fill:url(#linear-gradient-75);}.cls-85{fill:url(#linear-gradient-76);}.cls-86{fill:url(#linear-gradient-77);}.cls-87{fill:url(#linear-gradient-78);}.cls-88{fill:url(#linear-gradient-79);}.cls-89{fill:url(#linear-gradient-80);}.cls-90{fill:url(#linear-gradient-81);}.cls-91{fill:url(#linear-gradient-82);}.cls-92{fill:url(#linear-gradient-83);}.cls-93{fill:url(#linear-gradient-84);}.cls-94{fill:url(#linear-gradient-85);}.cls-95{fill:url(#linear-gradient-86);}.cls-96{fill:url(#linear-gradient-87);}.cls-97{fill:url(#linear-gradient-88);}.cls-98{opacity:0.7;}.cls-99{opacity:0.69;}.cls-100{fill:url(#linear-gradient-89);}.cls-101{fill:url(#linear-gradient-90);}.cls-102{fill:url(#linear-gradient-91);}.cls-103{fill:url(#linear-gradient-92);}.cls-104{fill:url(#linear-gradient-93);}</style><linearGradient id="linear-gradient" x1="174.41" y1="94.32" x2="238.39" y2="94.32" gradientUnits="userSpaceOnUse"><stop offset="0" stop-color="#e0af78"/><stop offset="0" stop-color="#fff"/><stop offset="0.04" stop-color="#f9f5eb"/><stop offset="0.14" stop-color="#eee0c4"/><stop offset="0.25" stop-color="#e4cfa2"/><stop offset="0.36" stop-color="#dcc186"/><stop offset="0.48" stop-color="#d6b671"/><stop offset="0.61" stop-color="#d1ae62"/><stop offset="0.77" stop-color="#cfa959"/><stop offset="1" stop-color="#cea856"/></linearGradient><linearGradient id="linear-gradient-2" x1="173.33" y1="136.23" x2="251.93" y2="97.85" xlink:href="#linear-gradient"/><linearGradient id="linear-gradient-3" x1="169.46" y1="145.17" x2="213.08" y2="145.17" gradientUnits="userSpaceOnUse"><stop offset="0" stop-color="#cda85a"/><stop offset="1" stop-color="#bc8f3a"/></linearGradient><linearGradient id="linear-gradient-4" x1="106.86" y1="125.4" x2="18.96" y2="190.79" xlink:href="#linear-gradient"/><linearGradient id="linear-gradient-5" x1="9.5" y1="123.82" x2="90.29" y2="73.94" gradientUnits="userSpaceOnUse"><stop offset="0" stop-color="#dfa43e"/><stop offset="0" stop-color="#d19f4b"/><stop offset="0" stop-color="#b99861"/><stop offset="0.5" stop-color="#70592f"/></linearGradient><linearGradient id="linear-gradient-6" x1="-4.25" y1="143.31" x2="75.91" y2="93.54" xlink:href="#linear-gradient-3"/><linearGradient id="linear-gradient-7" x1="81.37" y1="156.2" x2="203.78" y2="85.53" xlink:href="#linear-gradient-5"/><linearGradient id="linear-gradient-8" x1="42.86" y1="219.1" x2="224.58" y2="30.03" gradientUnits="userSpaceOnUse"><stop offset="0" stop-color="#725822"/><stop offset="0" stop-color="#90712f"/><stop offset="0" stop-color="#ab873a"/><stop offset="0" stop-color="#c19943"/><stop offset="0" stop-color="#d2a74a"/><stop offset="0" stop-color="#ddb14f"/><stop offset="0" stop-color="#e4b652"/><stop offset="0" stop-color="#e6b853"/><stop offset="0.43" stop-color="#deb157"/><stop offset="1" stop-color="#d8ad5a"/></linearGradient><linearGradient id="linear-gradient-9" x1="53.97" y1="90.02" x2="174.42" y2="20.48" xlink:href="#linear-gradient-5"/><linearGradient id="linear-gradient-10" x1="-69.64" y1="126.06" x2="269.23" y2="-10.33" xlink:href="#linear-gradient-8"/><linearGradient id="linear-gradient-11" x1="93.85" y1="102.96" x2="246.69" y2="15.42" xlink:href="#linear-gradient-8"/><linearGradient id="linear-gradient-12" x1="146.64" y1="59.49" x2="194.65" y2="59.49" xlink:href="#linear-gradient-5"/><linearGradient id="linear-gradient-13" x1="23" y1="70.06" x2="160.31" y2="-12.45" xlink:href="#linear-gradient"/><linearGradient id="linear-gradient-14" x1="-14.95" y1="133.36" x2="45.12" y2="62.13" xlink:href="#linear-gradient-3"/><linearGradient id="linear-gradient-15" x1="30.96" y1="165.78" x2="176.58" y2="40.65" xlink:href="#linear-gradient"/><linearGradient id="linear-gradient-16" x1="130.39" y1="39.1" x2="130.73" y2="39.1" gradientUnits="userSpaceOnUse"><stop offset="0" stop-color="#b99861"/><stop offset="1" stop-color="#70592f"/></linearGradient><linearGradient id="linear-gradient-17" x1="121.15" y1="33.7" x2="139.98" y2="33.7" gradientUnits="userSpaceOnUse"><stop offset="0" stop-color="#cd9832"/><stop offset="1" stop-color="#806533"/></linearGradient><linearGradient id="linear-gradient-18" x1="156.42" y1="91.66" x2="159.1" y2="28.29" xlink:href="#linear-gradient-8"/><linearGradient id="linear-gradient-19" x1="156.89" y1="91.73" x2="159.57" y2="28.36" xlink:href="#linear-gradient-8"/><linearGradient id="linear-gradient-20" x1="152.47" y1="83.26" x2="162.97" y2="83.26" gradientUnits="userSpaceOnUse"><stop offset="0" stop-color="#ba9958"/><stop offset="1" stop-color="#ffb22d"/></linearGradient><linearGradient id="linear-gradient-21" x1="201.52" y1="140.56" x2="251.42" y2="115.14" xlink:href="#linear-gradient-5"/><linearGradient id="linear-gradient-22" x1="201.67" y1="140.36" x2="251.57" y2="114.93" xlink:href="#linear-gradient-5"/><linearGradient id="linear-gradient-23" x1="201.82" y1="140.15" x2="251.72" y2="114.72" xlink:href="#linear-gradient-5"/><linearGradient id="linear-gradient-24" x1="167.83" y1="619.62" x2="178.17" y2="619.62" gradientTransform="matrix(1, 0.58, 0, 1, 0, -668.39)" xlink:href="#linear-gradient-3"/><linearGradient id="linear-gradient-25" x1="177.98" y1="31.18" x2="159.71" y2="51.15" gradientUnits="userSpaceOnUse"><stop offset="0.57" stop-color="#9b752e"/><stop offset="1" stop-color="#84765d"/><stop offset="1" stop-color="#9b7f45"/><stop offset="1" stop-color="#ac8534"/></linearGradient><linearGradient id="linear-gradient-26" x1="173.45" y1="606.15" x2="182.48" y2="606.15" gradientTransform="matrix(1, 0.58, 0, 1, 0, -668.39)" xlink:href="#linear-gradient-3"/><linearGradient id="linear-gradient-27" x1="187.41" y1="37.86" x2="169.05" y2="57.93" xlink:href="#linear-gradient-25"/><linearGradient id="linear-gradient-28" x1="157.58" y1="603.06" x2="167.83" y2="603.06" gradientTransform="matrix(1, 0.58, 0, 1, 0, -668.39)" xlink:href="#linear-gradient-3"/><linearGradient id="linear-gradient-29" x1="153.35" y1="616.47" x2="162.33" y2="616.47" gradientTransform="matrix(1, 0.58, 0, 1, 0, -668.39)" xlink:href="#linear-gradient-3"/><linearGradient id="linear-gradient-30" x1="166.41" y1="22.23" x2="148.06" y2="42.29" xlink:href="#linear-gradient-25"/><linearGradient id="linear-gradient-31" x1="158.81" y1="92.47" x2="246.02" y2="42.12" xlink:href="#linear-gradient-5"/><linearGradient id="linear-gradient-32" x1="-50.91" y1="166.96" x2="287.96" y2="30.56" xlink:href="#linear-gradient-8"/><linearGradient id="linear-gradient-33" x1="148.02" y1="82.31" x2="258.25" y2="88.66" xlink:href="#linear-gradient"/><linearGradient id="linear-gradient-34" x1="70.71" y1="143.95" x2="135.11" y2="142.67" xlink:href="#linear-gradient"/><linearGradient id="linear-gradient-35" x1="53.85" y1="96.04" x2="173.51" y2="26.96" gradientUnits="userSpaceOnUse"><stop offset="0" stop-color="#ffb22d"/><stop offset="1" stop-color="#fff"/></linearGradient><linearGradient id="linear-gradient-36" x1="238.16" y1="52.37" x2="247.29" y2="52.37" xlink:href="#linear-gradient-5"/><linearGradient id="linear-gradient-37" x1="231.73" y1="55.51" x2="240.86" y2="55.51" xlink:href="#linear-gradient-5"/><linearGradient id="linear-gradient-38" x1="225.3" y1="58.66" x2="234.43" y2="58.66" xlink:href="#linear-gradient-5"/><linearGradient id="linear-gradient-39" x1="234.75" y1="107.3" x2="241.52" y2="107.3" xlink:href="#linear-gradient"/><linearGradient id="linear-gradient-40" x1="238.13" y1="108.96" x2="238.13" y2="91.32" xlink:href="#linear-gradient"/><linearGradient id="linear-gradient-41" x1="234.75" y1="92.53" x2="241.52" y2="92.53" xlink:href="#linear-gradient"/><linearGradient id="linear-gradient-43" x1="232.06" y1="88.42" x2="238.82" y2="88.42" xlink:href="#linear-gradient"/><linearGradient id="linear-gradient-44" x1="232.06" y1="87.5" x2="238.82" y2="87.5" xlink:href="#linear-gradient"/><linearGradient id="linear-gradient-45" x1="244.26" y1="102.62" x2="251.03" y2="102.62" xlink:href="#linear-gradient"/><linearGradient id="linear-gradient-46" x1="247.65" y1="104.29" x2="247.65" y2="86.64" xlink:href="#linear-gradient"/><linearGradient id="linear-gradient-47" x1="241.57" y1="84.67" x2="248.34" y2="84.67" xlink:href="#linear-gradient"/><linearGradient id="linear-gradient-49" x1="244.26" y1="86.92" x2="251.03" y2="86.92" xlink:href="#linear-gradient"/><linearGradient id="linear-gradient-50" x1="244.26" y1="86" x2="251.03" y2="86" xlink:href="#linear-gradient"/><linearGradient id="linear-gradient-51" x1="215.01" y1="46.53" x2="230.2" y2="46.53" xlink:href="#linear-gradient"/><linearGradient id="linear-gradient-52" x1="225.3" y1="53.45" x2="225.3" y2="13.85" xlink:href="#linear-gradient"/><linearGradient id="linear-gradient-53" x1="215.01" y1="13.38" x2="230.2" y2="13.38" xlink:href="#linear-gradient"/><linearGradient id="linear-gradient-55" x1="217.71" y1="14.49" x2="232.89" y2="14.49" xlink:href="#linear-gradient"/><linearGradient id="linear-gradient-56" x1="215.01" y1="9.24" x2="230.2" y2="9.24" xlink:href="#linear-gradient"/><linearGradient id="linear-gradient-57" x1="200.7" y1="59.27" x2="215.89" y2="59.27" xlink:href="#linear-gradient"/><linearGradient id="linear-gradient-58" x1="208.3" y1="63" x2="208.3" y2="23.41" xlink:href="#linear-gradient"/><linearGradient id="linear-gradient-59" x1="200.7" y1="26.11" x2="215.89" y2="26.11" xlink:href="#linear-gradient"/><linearGradient id="linear-gradient-61" x1="200.7" y1="24.04" x2="215.89" y2="24.04" xlink:href="#linear-gradient"/><linearGradient id="linear-gradient-62" x1="200.7" y1="21.97" x2="215.89" y2="21.97" xlink:href="#linear-gradient"/><linearGradient id="linear-gradient-63" x1="45.54" y1="133.69" x2="52.71" y2="133.69" xlink:href="#linear-gradient"/><linearGradient id="linear-gradient-64" x1="51.82" y1="138.63" x2="51.82" y2="119.95" xlink:href="#linear-gradient"/><linearGradient id="linear-gradient-65" x1="48.24" y1="121.22" x2="55.4" y2="121.22" xlink:href="#linear-gradient"/><linearGradient id="linear-gradient-67" x1="45.54" y1="117.06" x2="52.71" y2="117.06" xlink:href="#linear-gradient"/><linearGradient id="linear-gradient-68" x1="45.54" y1="116.09" x2="52.71" y2="116.09" xlink:href="#linear-gradient"/><linearGradient id="linear-gradient-69" x1="33.46" y1="139.75" x2="40.63" y2="139.75" xlink:href="#linear-gradient"/><linearGradient id="linear-gradient-70" x1="39.73" y1="144.69" x2="39.73" y2="126.01" xlink:href="#linear-gradient"/><linearGradient id="linear-gradient-71" x1="33.46" y1="124.1" x2="40.63" y2="124.1" xlink:href="#linear-gradient"/><linearGradient id="linear-gradient-73" x1="36.15" y1="126.31" x2="43.32" y2="126.31" xlink:href="#linear-gradient"/><linearGradient id="linear-gradient-74" x1="36.15" y1="125.33" x2="43.32" y2="125.33" xlink:href="#linear-gradient"/><linearGradient id="linear-gradient-75" x1="162.81" y1="75.51" x2="206.27" y2="75.51" xlink:href="#linear-gradient-5"/><linearGradient id="linear-gradient-76" x1="196.14" y1="61.79" x2="148.75" y2="78.01" xlink:href="#linear-gradient-3"/><linearGradient id="linear-gradient-77" x1="157.82" y1="151.09" x2="211.19" y2="151.09" xlink:href="#linear-gradient-5"/><linearGradient id="linear-gradient-78" x1="121.66" y1="103.3" x2="247.88" y2="201.28" xlink:href="#linear-gradient"/><linearGradient id="linear-gradient-79" x1="188.03" y1="157.84" x2="213.89" y2="148.43" gradientTransform="translate(172.47 -95.65) rotate(46.25)" xlink:href="#linear-gradient-5"/><linearGradient id="linear-gradient-80" x1="159.55" y1="-379.88" x2="164.56" y2="-376.99" gradientTransform="matrix(1, 0.58, 0, 1, 0, 415.53)" xlink:href="#linear-gradient-5"/><linearGradient id="linear-gradient-81" x1="159.31" y1="-360.4" x2="164.16" y2="-357.6" gradientTransform="matrix(1, 0.58, 0, 1, 0, 415.53)" xlink:href="#linear-gradient-5"/><linearGradient id="linear-gradient-82" x1="166.89" y1="-361.13" x2="171.74" y2="-358.33" gradientTransform="matrix(1, 0.58, 0, 1, 0, 415.53)" xlink:href="#linear-gradient-5"/><linearGradient id="linear-gradient-83" x1="174.47" y1="-361.86" x2="179.32" y2="-359.06" gradientTransform="matrix(1, 0.58, 0, 1, 0, 415.53)" xlink:href="#linear-gradient-5"/><linearGradient id="linear-gradient-84" x1="182.05" y1="-362.58" x2="186.9" y2="-359.79" gradientTransform="matrix(1, 0.58, 0, 1, 0, 415.53)" xlink:href="#linear-gradient-5"/><linearGradient id="linear-gradient-85" x1="189.63" y1="-363.31" x2="194.48" y2="-360.52" gradientTransform="matrix(1, 0.58, 0, 1, 0, 415.53)" xlink:href="#linear-gradient-5"/><linearGradient id="linear-gradient-86" x1="197.22" y1="-364.04" x2="202.06" y2="-361.25" gradientTransform="matrix(1, 0.58, 0, 1, 0, 415.53)" xlink:href="#linear-gradient-5"/><linearGradient id="linear-gradient-87" x1="36.06" y1="216.79" x2="222.75" y2="22.57" xlink:href="#linear-gradient-3"/><linearGradient id="linear-gradient-88" x1="36.34" y1="206.92" x2="211.88" y2="24.29" xlink:href="#linear-gradient-3"/><linearGradient id="linear-gradient-89" x1="64.49" y1="79.98" x2="72.15" y2="53.14" xlink:href="#linear-gradient-25"/><linearGradient id="linear-gradient-90" x1="78.22" y1="40.77" x2="30.62" y2="115.7" xlink:href="#linear-gradient-5"/><linearGradient id="linear-gradient-91" x1="20.25" y1="84.6" x2="92.52" y2="43.28" xlink:href="#linear-gradient-3"/><linearGradient id="linear-gradient-92" x1="93.77" y1="41.59" x2="60.29" y2="44.79" xlink:href="#linear-gradient-25"/><linearGradient id="linear-gradient-93" x1="57.6" y1="64.13" x2="91.15" y2="52.73" gradientTransform="translate(64.82 -31.43) rotate(46.25)" xlink:href="#linear-gradient-5"/></defs><title>mining-hosting-2</title><g class="cls-1"><g id="Layer_1" data-name="Layer 1"><path class="cls-2" d="M236.68,83.52l-52.35,25.61a10.56,10.56,0,0,1-8.22,0h0c-2.27-1.11-2.27-2.91,0-4L228.47,79.5a10.54,10.54,0,0,1,8.21,0h0C239,80.61,239,82.41,236.68,83.52Z" transform="translate(-2.69 -3.18)"/><path class="cls-3" d="M224.2,114.62,181.74,135.4a8.58,8.58,0,0,1-6.67,0h0c-1.84-.9-1.84-2.36,0-3.26l42.47-20.78a8.55,8.55,0,0,1,6.66,0h0C226,112.26,226,113.72,224.2,114.62Z" transform="translate(-2.69 -3.18)"/><path class="cls-4" d="M211.92,137.81l-35.69,17.46a7.19,7.19,0,0,1-5.61,0h0c-1.54-.76-1.54-2,0-2.74l35.7-17.46a7.16,7.16,0,0,1,5.6,0h0C213.47,135.82,213.47,137.05,211.92,137.81Z" transform="translate(-2.69 -3.18)"/><path class="cls-5" d="M104.74,137.4,58.21,160.17a9.43,9.43,0,0,1-7.3,0h0c-2-1-2-2.59,0-3.58l46.53-22.76a9.43,9.43,0,0,1,7.3,0h0C106.76,134.82,106.76,136.42,104.74,137.4Z" transform="translate(-2.69 -3.18)"/><path class="cls-6" d="M49.55,104.21,15.64,120.8a6.82,6.82,0,0,1-5.32,0h0c-1.47-.72-1.47-1.89,0-2.61l33.91-16.58a6.82,6.82,0,0,1,5.32,0h0C51,102.33,51,103.49,49.55,104.21Z" transform="translate(-2.69 -3.18)"/><path class="cls-7" d="M70.26,102.23l-33.9,16.59a6.82,6.82,0,0,1-5.32,0h0c-1.47-.72-1.47-1.88,0-2.6l33.9-16.59a6.82,6.82,0,0,1,5.32,0h0C71.73,100.35,71.73,101.51,70.26,102.23Z" transform="translate(-2.69 -3.18)"/><path class="cls-8" d="M211.37,108.68l0-10.06-5.49,1,.57,1.52L179.48,87.94a6.53,6.53,0,0,0-5.06,0L80.65,133.82l-2.37-1.65-4.68.24,0,9.86c-.15.52.19,1.07,1,1.47l30.84,15.09a6.53,6.53,0,0,0,5.06,0L210.32,110c.75-.36,1.09-.85,1-1.33Z" transform="translate(-2.69 -3.18)"/><path class="cls-9" d="M210.29,99.85l-99.78,48.82a6.51,6.51,0,0,1-5.05,0L74.62,133.58c-1.4-.69-1.4-1.79,0-2.48l99.77-48.81a6.53,6.53,0,0,1,5.06,0l30.84,15.09C211.68,98.06,211.68,99.17,210.29,99.85Z" transform="translate(-2.69 -3.18)"/><path class="cls-10" d="M183,40.8l0-5.54-5.48,1,.56,1.52L151.1,24.58a6.53,6.53,0,0,0-5.06,0L52.26,70.46,49.9,68.81l-4.68.24,0,5.35c-.14.52.2,1.07,1,1.47L77.11,91a6.42,6.42,0,0,0,5,0l99.78-48.81c.75-.36,1.09-.85,1-1.33Z" transform="translate(-2.69 -3.18)"/><path class="cls-11" d="M181.91,36.5,82.13,85.31a6.51,6.51,0,0,1-5,0L46.24,70.22c-1.4-.68-1.4-1.79,0-2.47L146,18.93a6.53,6.53,0,0,1,5.06,0L181.91,34C183.3,34.7,183.3,35.81,181.91,36.5Z" transform="translate(-2.69 -3.18)"/><polygon class="cls-12" points="186.23 27.87 144.21 7.32 144.21 86.13 186.23 106.69 186.23 27.87"/><path class="cls-13" d="M185.2,22.8,150.62,5.88c-3.35-1.64-6.07,0-6.07,3.6V88.74a11.67,11.67,0,0,0,6.07,9.54L185.2,115.2c3.36,1.64,6.07,0,6.07-3.6V32.34A11.65,11.65,0,0,0,185.2,22.8Z" transform="translate(-2.69 -3.18)"/><path class="cls-14" d="M186.78,113.26l-33.6-16.44c-3.88-1.9-6.28-5.41-6.28-9.21V9A1.41,1.41,0,0,1,149,8l34.46,16.85a9.14,9.14,0,0,1,5.47,8v79.3A1.44,1.44,0,0,1,186.78,113.26Z" transform="translate(-2.69 -3.18)"/><path class="cls-15" d="M188.58,21.07,154,4.16a4.61,4.61,0,0,0-4-.31l-.14.06-3.19,1.64a3.37,3.37,0,0,1,1.2-.3,5.49,5.49,0,0,1,2.78.63L185.2,22.8a11.65,11.65,0,0,1,6.07,9.54V111.6a4.78,4.78,0,0,1-.92,3,3.11,3.11,0,0,1-1,.84h0l3.24-1.66-1,.52c1.28-.58,3.11-2.48,3.11-4.46V30.61A11.69,11.69,0,0,0,188.58,21.07Z" transform="translate(-2.69 -3.18)"/><path class="cls-16" d="M123.51,23.58,46.64,61.81c-.8.39-1.45.16-1.45-.52V43.88a2.54,2.54,0,0,1,1.45-1.94L123.51,3.71c.8-.4,1.45-.16,1.45.52V21.64A2.54,2.54,0,0,1,123.51,23.58Z" transform="translate(-2.69 -3.18)"/><path class="cls-17" d="M123.51,23.58,46.64,61.81c-.8.39-1.45.16-1.45-.52V43.88a2.54,2.54,0,0,1,1.45-1.94L123.51,3.71c.8-.4,1.45-.16,1.45.52V21.64A2.54,2.54,0,0,1,123.51,23.58Z" transform="translate(-2.69 -3.18)"/><path class="cls-18" d="M36.62,98.74,5.5,113.89c-1.26.61-2.28.25-2.28-.82V85.65A4,4,0,0,1,5.5,82.59L36.62,67.44c1.26-.62,2.28-.25,2.28.82V95.68A4,4,0,0,1,36.62,98.74Z" transform="translate(-2.69 -3.18)"/><path class="cls-19" d="M36.62,98.74,5.5,113.89c-1.26.61-2.28.25-2.28-.82V85.65A4,4,0,0,1,5.5,82.59L36.62,67.44c1.26-.62,2.28-.25,2.28.82V95.68A4,4,0,0,1,36.62,98.74Z" transform="translate(-2.69 -3.18)"/><path class="cls-20" d="M139.42,94.43,73.36,126.24c-.75.36-1.36.15-1.36-.49V109.33a2.4,2.4,0,0,1,1.36-1.83l66.06-31.8c.76-.37,1.37-.16,1.37.49V92.6A2.39,2.39,0,0,1,139.42,94.43Z" transform="translate(-2.69 -3.18)"/><path class="cls-21" d="M139.42,94.43,73.36,126.24c-.75.36-1.36.15-1.36-.49V109.33a2.4,2.4,0,0,1,1.36-1.83l66.06-31.8c.76-.37,1.37-.16,1.37.49V92.6A2.39,2.39,0,0,1,139.42,94.43Z" transform="translate(-2.69 -3.18)"/><path class="cls-22" d="M140,33.7h-.88l-.39.41v0l-8-2.53a.28.28,0,0,0-.25,0l-8.12,2.58,0-.08-.28-.38-.92,0V42s0,0,0,.07l9.24,4.51a.28.28,0,0,0,.25,0l9.24-4.51s0,0,0-.07h0Z" transform="translate(-2.69 -3.18)"/><path class="cls-23" d="M139.93,33.76l-9.24,4.52a.36.36,0,0,1-.25,0l-9.24-4.52c-.07,0-.07-.09,0-.13l9.24-4.52a.36.36,0,0,1,.25,0l9.24,4.52C140,33.67,140,33.72,139.93,33.76Z" transform="translate(-2.69 -3.18)"/><path class="cls-14" d="M139.93,33.76l-9.24,4.52a.36.36,0,0,1-.25,0l-9.24-4.52c-.07,0-.07-.09,0-.13l9.24-4.52a.36.36,0,0,1,.25,0l9.24,4.52C140,33.67,140,33.72,139.93,33.76Z" transform="translate(-2.69 -3.18)"/><path class="cls-24" d="M161,67l-6.52-3.19a3.49,3.49,0,0,1-2-2.66V55.63c0-.93.89-1.25,2-.71L161,58.11a3.49,3.49,0,0,1,2,2.66V66.3C163,67.23,162.08,67.55,161,67Z" transform="translate(-2.69 -3.18)"/><path class="cls-25" d="M161,78.16,154.46,75a3.46,3.46,0,0,1-2-2.66V66.78c0-.93.89-1.25,2-.72L161,69.25a3.49,3.49,0,0,1,2,2.67v5.52C163,78.37,162.08,78.69,161,78.16Z" transform="translate(-2.69 -3.18)"/><path class="cls-26" d="M161,89.3l-6.52-3.19a3.49,3.49,0,0,1-2-2.66V77.92c0-.93.89-1.25,2-.71L161,80.4a3.49,3.49,0,0,1,2,2.66v5.53C163,89.52,162.08,89.84,161,89.3Z" transform="translate(-2.69 -3.18)"/><g class="cls-27"><path class="cls-28" d="M230.27,124.27l3.19,1.56a2.51,2.51,0,0,0,1.94,0l3.19-1.56c.54-.26.54-.69,0-1l-3.19-1.56a2.51,2.51,0,0,0-1.94,0l-3.19,1.56C229.73,123.58,229.73,124,230.27,124.27Z" transform="translate(-2.69 -3.18)"/><path class="cls-29" d="M223.84,127.42,227,129a2.51,2.51,0,0,0,1.94,0l3.19-1.56c.54-.27.54-.69,0-1L229,124.9a2.51,2.51,0,0,0-1.94,0l-3.19,1.56C223.3,126.73,223.3,127.15,223.84,127.42Z" transform="translate(-2.69 -3.18)"/><path class="cls-30" d="M217.41,130.56l3.19,1.56a2.51,2.51,0,0,0,1.94,0l3.19-1.56c.54-.26.54-.69,0-.95l-3.19-1.56a2.51,2.51,0,0,0-1.94,0l-3.19,1.56C216.87,129.87,216.87,130.3,217.41,130.56Z" transform="translate(-2.69 -3.18)"/></g><g class="cls-31"><path class="cls-14" d="M100.18,56l2.37,1.16a1.83,1.83,0,0,0,1.45,0L106.37,56c.4-.19.4-.51,0-.7L104,54.1a1.92,1.92,0,0,0-1.45,0l-2.37,1.17C99.78,55.46,99.78,55.78,100.18,56Z" transform="translate(-2.69 -3.18)"/><path class="cls-14" d="M95.39,58.32l2.38,1.16a1.92,1.92,0,0,0,1.45,0l2.37-1.16c.4-.2.4-.52,0-.71l-2.37-1.16a1.83,1.83,0,0,0-1.45,0l-2.38,1.16C95,57.8,95,58.12,95.39,58.32Z" transform="translate(-2.69 -3.18)"/><path class="cls-14" d="M90.61,60.66,93,61.82a1.92,1.92,0,0,0,1.45,0l2.37-1.16c.4-.2.4-.52,0-.71l-2.37-1.16a1.83,1.83,0,0,0-1.45,0L90.61,60C90.21,60.14,90.21,60.46,90.61,60.66Z" transform="translate(-2.69 -3.18)"/></g><g class="cls-31"><path class="cls-14" d="M116.55,48l2.37,1.16a1.92,1.92,0,0,0,1.45,0L122.74,48c.4-.2.4-.52,0-.71l-2.37-1.16a1.83,1.83,0,0,0-1.45,0l-2.37,1.16C116.15,47.45,116.15,47.77,116.55,48Z" transform="translate(-2.69 -3.18)"/><path class="cls-14" d="M111.76,50.31l2.37,1.16a1.92,1.92,0,0,0,1.45,0L118,50.31c.41-.2.41-.51,0-.71l-2.37-1.16a1.83,1.83,0,0,0-1.45,0l-2.37,1.16C111.36,49.8,111.36,50.11,111.76,50.31Z" transform="translate(-2.69 -3.18)"/><path class="cls-14" d="M107,52.65l2.38,1.16a1.83,1.83,0,0,0,1.45,0l2.37-1.16c.4-.2.4-.51,0-.71l-2.37-1.16a1.83,1.83,0,0,0-1.45,0L107,51.94C106.57,52.14,106.57,52.45,107,52.65Z" transform="translate(-2.69 -3.18)"/></g><path class="cls-32" d="M167.91,46.55l-.08,0v5.68l.08,0c4,2,7.62,2.36,10.26,1.43l-4.74-6.33A7.44,7.44,0,0,1,167.91,46.55Z" transform="translate(-2.69 -3.18)"/><path class="cls-33" d="M162.33,41.85l-4.74,1.69a29.56,29.56,0,0,0,10.24,8.65V46.51A15.9,15.9,0,0,1,162.33,41.85Z" transform="translate(-2.69 -3.18)"/><path class="cls-34" d="M175.78,43.73l6.7,3.28c0-3.41-1.65-7.31-4.3-10.84l-4.73,1.69A10.35,10.35,0,0,1,175.78,43.73Z" transform="translate(-2.69 -3.18)"/><path class="cls-35" d="M182.48,47h0l-6.7-3.28h0a3.51,3.51,0,0,1-2.35,3.6l4.74,6.33C180.83,52.72,182.48,50.43,182.48,47Z" transform="translate(-2.69 -3.18)"/><path class="cls-36" d="M167.83,33.18V27.5c-4-1.94-7.63-2.32-10.25-1.36l4.73,6.33A7.28,7.28,0,0,1,167.83,33.18Z" transform="translate(-2.69 -3.18)"/><path class="cls-37" d="M160,36h0l-6.69-3.28h0c0,3.39,1.62,7.26,4.24,10.78l4.74-1.69A10.33,10.33,0,0,1,160,36Z" transform="translate(-2.69 -3.18)"/><path class="cls-38" d="M162.31,32.47l-4.73-6.33c-2.62.95-4.23,3.23-4.23,6.62L160,36A3.52,3.52,0,0,1,162.31,32.47Z" transform="translate(-2.69 -3.18)"/><path class="cls-39" d="M252.22,56.84l0-4-4,.71.41,1.1-19.5-9.54a4.74,4.74,0,0,0-3.66,0l-67.9,33.22-1.72-1.19-3.38.17v3.88a1.08,1.08,0,0,0,.75,1.06l22.33,10.92a4.68,4.68,0,0,0,3.67,0l72.24-35.34c.54-.27.79-.62.75-1Z" transform="translate(-2.69 -3.18)"/><path class="cls-40" d="M251.44,53.72,179.19,89.06a4.65,4.65,0,0,1-3.66,0L153.2,78.14c-1-.5-1-1.3,0-1.79L225.44,41a4.76,4.76,0,0,1,3.67,0l22.33,10.93C252.45,52.42,252.45,53.22,251.44,53.72Z" transform="translate(-2.69 -3.18)"/><path class="cls-41" d="M252.22,79.05l0-22.14c0,.32-.26.64-.76.89L179.22,93.15a4.76,4.76,0,0,1-3.67,0L153.22,82.23a1.13,1.13,0,0,1-.75-1l0,21.77c-.1.37.14.76.73,1l22.36,11a4.74,4.74,0,0,0,3.66,0l72.22-35c.54-.26.79-.61.75-1Z" transform="translate(-2.69 -3.18)"/><path class="cls-42" d="M211.38,124.43l0-15.64c0,.45-.34.89-1,1.22l-99.78,48.82a6.45,6.45,0,0,1-5,0L75.13,144a1.75,1.75,0,0,1-1-1l0,15.77c-.14.52.2,1.06,1,1.45l30.42,14.88a6.36,6.36,0,0,0,5,0l99.78-48.81a1.86,1.86,0,0,0,.53-.42A2.09,2.09,0,0,0,211.38,124.43Z" transform="translate(-2.69 -3.18)"/><path class="cls-43" d="M181.79,47.53l0-6.29c0,.44-.35.89-1,1.23L81.89,90.81a6.41,6.41,0,0,1-5,0L46.34,75.87a1.75,1.75,0,0,1-1-1l0,5.94c-.14.52.2,1.06,1,1.45L76.91,97.21a6.41,6.41,0,0,0,5,0l98.83-48.35c.74-.36,1.08-.85,1-1.32Z" transform="translate(-2.69 -3.18)"/><path class="cls-44" d="M238.56,52.84l3.19,1.56a2.45,2.45,0,0,0,1.95,0l3.18-1.56c.54-.26.54-.69,0-1l-3.18-1.56a2.53,2.53,0,0,0-1.95,0l-3.19,1.56C238,52.15,238,52.58,238.56,52.84Z" transform="translate(-2.69 -3.18)"/><path class="cls-45" d="M232.13,56l3.19,1.56a2.54,2.54,0,0,0,2,0L240.46,56c.53-.26.53-.69,0-1l-3.19-1.56a2.45,2.45,0,0,0-2,0L232.13,55C231.6,55.3,231.6,55.73,232.13,56Z" transform="translate(-2.69 -3.18)"/><path class="cls-46" d="M225.7,59.14l3.19,1.55a2.45,2.45,0,0,0,2,0L234,59.14c.53-.27.53-.69,0-1l-3.19-1.56a2.53,2.53,0,0,0-2,0l-3.19,1.56C225.17,58.45,225.17,58.87,225.7,59.14Z" transform="translate(-2.69 -3.18)"/><g class="cls-47"><path class="cls-48" d="M240.52,106.13c1.33.64,1.33,1.69,0,2.34a6.1,6.1,0,0,1-4.78,0c-1.32-.65-1.32-1.7,0-2.34A6.1,6.1,0,0,1,240.52,106.13Z" transform="translate(-2.69 -3.18)"/><path class="cls-49" d="M241.39,92.52a2,2,0,0,0-.87-.71,6.1,6.1,0,0,0-4.78,0,1.81,1.81,0,0,0-.93.84l-.06-.12v14.82h0c0,.41.35.82,1,1.13a6.1,6.1,0,0,0,4.78,0c.65-.32,1-.73,1-1.15h0V92.53Z" transform="translate(-2.69 -3.18)"/><path class="cls-50" d="M240.52,91.35c1.33.65,1.33,1.7,0,2.35a6.19,6.19,0,0,1-4.78,0c-1.32-.65-1.32-1.7,0-2.35A6.19,6.19,0,0,1,240.52,91.35Z" transform="translate(-2.69 -3.18)"/><path class="cls-51" d="M240.52,91.35c1.33.65,1.33,1.7,0,2.35a6.19,6.19,0,0,1-4.78,0c-1.32-.65-1.32-1.7,0-2.35A6.19,6.19,0,0,1,240.52,91.35Z" transform="translate(-2.69 -3.18)"/><ellipse class="cls-52" cx="235.44" cy="88.42" rx="3.38" ry="1.66"/><ellipse class="cls-53" cx="235.44" cy="87.5" rx="3.38" ry="1.66"/></g><g class="cls-47"><path class="cls-54" d="M250,101.45c1.32.65,1.32,1.69,0,2.34a6.13,6.13,0,0,1-4.79,0c-1.32-.65-1.32-1.69,0-2.34A6.13,6.13,0,0,1,250,101.45Z" transform="translate(-2.69 -3.18)"/><path class="cls-55" d="M250.9,87.84a1.92,1.92,0,0,0-.86-.71,6.13,6.13,0,0,0-4.79,0,1.74,1.74,0,0,0-.92.84l-.07-.12v14.82h0c0,.41.36.82,1,1.13a6.13,6.13,0,0,0,4.79,0c.65-.32,1-.73,1-1.15h0V87.85Z" transform="translate(-2.69 -3.18)"/><ellipse class="cls-56" cx="244.95" cy="84.67" rx="3.38" ry="1.66"/><ellipse class="cls-57" cx="244.95" cy="84.67" rx="3.38" ry="1.66"/><path class="cls-58" d="M250,85.75c1.32.65,1.32,1.7,0,2.35a6.22,6.22,0,0,1-4.79,0c-1.32-.65-1.32-1.7,0-2.35A6.22,6.22,0,0,1,250,85.75Z" transform="translate(-2.69 -3.18)"/><path class="cls-59" d="M250,84.83c1.32.65,1.32,1.7,0,2.34a6.13,6.13,0,0,1-4.79,0c-1.32-.64-1.32-1.69,0-2.34A6.22,6.22,0,0,1,250,84.83Z" transform="translate(-2.69 -3.18)"/></g><g class="cls-47"><ellipse class="cls-60" cx="222.61" cy="46.53" rx="7.59" ry="3.72"/><path class="cls-61" d="M232.6,16.55a4.39,4.39,0,0,0-1.93-1.61,13.8,13.8,0,0,0-10.74,0,4.08,4.08,0,0,0-2.08,1.9l-.14-.28V49.83h0c0,.92.79,1.83,2.22,2.53a13.8,13.8,0,0,0,10.74,0c1.46-.71,2.2-1.65,2.22-2.58h0V16.56Z" transform="translate(-2.69 -3.18)"/><ellipse class="cls-62" cx="222.61" cy="13.38" rx="7.59" ry="3.72"/><ellipse class="cls-63" cx="222.61" cy="13.38" rx="7.59" ry="3.72"/><path class="cls-64" d="M230.67,11.86c3,1.45,3,3.8,0,5.25a13.8,13.8,0,0,1-10.74,0c-3-1.45-3-3.8,0-5.25A13.8,13.8,0,0,1,230.67,11.86Z" transform="translate(-2.69 -3.18)"/><ellipse class="cls-65" cx="222.61" cy="9.24" rx="7.59" ry="3.72"/></g><g class="cls-47"><path class="cls-66" d="M213.67,56.64c3,1.45,3,3.8,0,5.25a13.72,13.72,0,0,1-10.74,0c-3-1.45-3-3.8,0-5.25A13.8,13.8,0,0,1,213.67,56.64Z" transform="translate(-2.69 -3.18)"/><path class="cls-67" d="M215.6,26.11a4.33,4.33,0,0,0-1.93-1.61,13.8,13.8,0,0,0-10.74,0,4,4,0,0,0-2.08,1.9l-.15-.29V59.38h0c0,.91.79,1.83,2.22,2.53a13.8,13.8,0,0,0,10.74,0c1.46-.72,2.2-1.65,2.22-2.58h0V26.11Z" transform="translate(-2.69 -3.18)"/><path class="cls-68" d="M213.67,23.49c3,1.45,3,3.8,0,5.25a13.8,13.8,0,0,1-10.74,0c-3-1.45-3-3.8,0-5.25A13.8,13.8,0,0,1,213.67,23.49Z" transform="translate(-2.69 -3.18)"/><path class="cls-69" d="M213.67,23.49c3,1.45,3,3.8,0,5.25a13.8,13.8,0,0,1-10.74,0c-3-1.45-3-3.8,0-5.25A13.8,13.8,0,0,1,213.67,23.49Z" transform="translate(-2.69 -3.18)"/><path class="cls-70" d="M213.67,21.42c3,1.45,3,3.8,0,5.25a13.8,13.8,0,0,1-10.74,0c-3-1.45-3-3.8,0-5.25A13.8,13.8,0,0,1,213.67,21.42Z" transform="translate(-2.69 -3.18)"/><path class="cls-71" d="M213.67,19.35c3,1.45,3,3.8,0,5.25a13.8,13.8,0,0,1-10.74,0c-3-1.45-3-3.8,0-5.25A13.8,13.8,0,0,1,213.67,19.35Z" transform="translate(-2.69 -3.18)"/></g><g class="cls-27"><ellipse class="cls-72" cx="49.13" cy="133.69" rx="3.58" ry="1.75"/><path class="cls-73" d="M55.27,121.22a2.07,2.07,0,0,0-.92-.76,6.44,6.44,0,0,0-5.06,0,1.86,1.86,0,0,0-1,.9l-.07-.14v15.7h0c0,.44.37.87,1,1.2a6.53,6.53,0,0,0,5.06,0c.69-.34,1-.78,1-1.22h0V121.22Z" transform="translate(-2.69 -3.18)"/><path class="cls-74" d="M54.35,120c1.4.69,1.4,1.8,0,2.48a6.44,6.44,0,0,1-5.06,0c-1.4-.68-1.4-1.79,0-2.48A6.53,6.53,0,0,1,54.35,120Z" transform="translate(-2.69 -3.18)"/><path class="cls-75" d="M54.35,120c1.4.69,1.4,1.8,0,2.48a6.44,6.44,0,0,1-5.06,0c-1.4-.68-1.4-1.79,0-2.48A6.53,6.53,0,0,1,54.35,120Z" transform="translate(-2.69 -3.18)"/><ellipse class="cls-76" cx="49.13" cy="117.06" rx="3.58" ry="1.75"/><ellipse class="cls-77" cx="49.13" cy="116.09" rx="3.58" ry="1.75"/></g><g class="cls-27"><ellipse class="cls-78" cx="37.04" cy="139.75" rx="3.58" ry="1.75"/><path class="cls-79" d="M43.18,127.28a2,2,0,0,0-.91-.76,6.56,6.56,0,0,0-5.07,0,1.9,1.9,0,0,0-1,.9l-.07-.13V143h0c0,.43.37.86,1.05,1.19a6.47,6.47,0,0,0,5.07,0c.69-.34,1-.78,1-1.22h0V127.29Z" transform="translate(-2.69 -3.18)"/><ellipse class="cls-80" cx="37.04" cy="124.1" rx="3.58" ry="1.75"/><ellipse class="cls-81" cx="37.04" cy="124.1" rx="3.58" ry="1.75"/><path class="cls-82" d="M42.27,125.07c1.4.68,1.4,1.79,0,2.48a6.56,6.56,0,0,1-5.07,0c-1.4-.69-1.4-1.8,0-2.48A6.47,6.47,0,0,1,42.27,125.07Z" transform="translate(-2.69 -3.18)"/><path class="cls-83" d="M42.27,124.09c1.4.69,1.4,1.8,0,2.48a6.47,6.47,0,0,1-5.07,0c-1.4-.68-1.4-1.79,0-2.48A6.56,6.56,0,0,1,42.27,124.09Z" transform="translate(-2.69 -3.18)"/></g><path class="cls-14" d="M12,100.22a.69.69,0,0,0,.05-.13c0-.07.05-.13.07-.19a8.42,8.42,0,0,0,.32-3.35c0-.41,0-.8,0-1.2,0-.17-.15-.25-.35-.16a.68.68,0,0,0-.27.21.48.48,0,0,0-.12.29c0,.41,0,.84,0,1.26a7.85,7.85,0,0,1-.27,3.08l-.06.16a1.56,1.56,0,0,1-.06.15,16.93,16.93,0,0,1-1.27,2.12c-.1.16-.12.32,0,.39a.27.27,0,0,0,.29,0l0,0a.77.77,0,0,0,.28-.23A12.52,12.52,0,0,0,12,100.26Z" transform="translate(-2.69 -3.18)"/><path class="cls-14" d="M25,89.78v0c-.41-1-1.24-2.06-2.89-1.38a.68.68,0,0,0-.4.48.18.18,0,0,0,.08.19.3.3,0,0,0,.26,0c1.28-.53,2,.55,2.23,1.23.7,2.65.1,5.83-1.78,9.45a24.12,24.12,0,0,1-1.79,2.9.37.37,0,0,0-.08.37c.05.09.17.11.32,0h0a.74.74,0,0,0,.27-.23,24.79,24.79,0,0,0,1.9-3.06C25.13,95.91,25.76,92.57,25,89.78Zm-.09.06Z" transform="translate(-2.69 -3.18)"/><path class="cls-14" d="M21.24,89.49a.58.58,0,0,0,.31-.51c0-.16-.22-.18-.43,0a4.43,4.43,0,0,0-2,4.73c0,.14.05.28.07.41l0,.08a6.16,6.16,0,0,1-.12,3.54.23.23,0,0,0,0,.23.19.19,0,0,0,.21.06l.12,0a.72.72,0,0,0,.35-.38,6.61,6.61,0,0,0,.15-3.86v0c0-.14,0-.29-.08-.45A3.52,3.52,0,0,1,21.24,89.49Z" transform="translate(-2.69 -3.18)"/><path class="cls-14" d="M25.73,86.37a.67.67,0,0,0-.27.19.64.64,0,0,0-.15.28.2.2,0,0,0,.07.2A4.14,4.14,0,0,1,27,91.2a.17.17,0,0,0,.09.19.28.28,0,0,0,.25,0h0a.65.65,0,0,0,.37-.47c.22-2.06-.39-3.67-1.72-4.53A.27.27,0,0,0,25.73,86.37Z" transform="translate(-2.69 -3.18)"/><path class="cls-14" d="M29.67,87.76l.07,0a.56.56,0,0,0,.3-.52,5.84,5.84,0,0,0-1.72-2.91c-.11-.09-.34,0-.52.15a.57.57,0,0,0-.16.28.19.19,0,0,0,0,.21,5.52,5.52,0,0,1,1.63,2.75C29.34,87.81,29.5,87.85,29.67,87.76Z" transform="translate(-2.69 -3.18)"/><path class="cls-14" d="M24.25,83.58A13.41,13.41,0,0,0,18,87a12.45,12.45,0,0,0-3.57,5.45c-.05.19.06.31.26.27l.1,0a.73.73,0,0,0,.36-.4,11,11,0,0,1,3.19-4.89A12.06,12.06,0,0,1,24,84.3a4.67,4.67,0,0,1,2.9.23c.14.07.37,0,.53-.22a.69.69,0,0,0,.13-.28.19.19,0,0,0-.1-.19A5.19,5.19,0,0,0,24.25,83.58Z" transform="translate(-2.69 -3.18)"/><path class="cls-14" d="M14.29,98.23a.35.35,0,0,0,.26,0h0a.66.66,0,0,0,.37-.49,17.57,17.57,0,0,0,0-1.93,13,13,0,0,1,0-2.57c0-.18-.13-.27-.33-.19a.67.67,0,0,0-.41.48,14.14,14.14,0,0,0,0,2.68c0,.61.08,1.24.06,1.88A.16.16,0,0,0,14.29,98.23Z" transform="translate(-2.69 -3.18)"/><path class="cls-14" d="M14.71,98.66a.31.31,0,0,0-.28,0,.72.72,0,0,0-.39.45,10.3,10.3,0,0,1-2.49,4.15.6.6,0,0,0-.14.29.16.16,0,0,0,.1.19.3.3,0,0,0,.27,0,.72.72,0,0,0,.23-.17,11.58,11.58,0,0,0,2.76-4.67A.2.2,0,0,0,14.71,98.66Z" transform="translate(-2.69 -3.18)"/><path class="cls-14" d="M31.52,84.82h0a.85.85,0,0,0-.24.26.37.37,0,0,0-.05.26,17,17,0,0,1-.07,8.88c0,.16,0,.27.18.27a.41.41,0,0,0,.18,0,.74.74,0,0,0,.27-.23.62.62,0,0,0,.1-.2A17.58,17.58,0,0,0,32,84.85C31.92,84.71,31.72,84.69,31.52,84.82Z" transform="translate(-2.69 -3.18)"/><path class="cls-14" d="M31.39,84.58a.8.8,0,0,0,.22-.27.32.32,0,0,0,0-.25c-1.45-3-5.28-3.67-9.53-1.74h0a.66.66,0,0,0-.37.49.16.16,0,0,0,.1.17.35.35,0,0,0,.26,0c3.94-1.8,7.49-1.14,8.84,1.64,0,.1.2.12.36,0A.41.41,0,0,0,31.39,84.58Z" transform="translate(-2.69 -3.18)"/><path class="cls-14" d="M20.83,83.59l.15-.07a.66.66,0,0,0,.37-.49c0-.18-.16-.24-.36-.14l-.17.08C16,85.3,12.21,91,11.76,94.65c0,.18.12.27.33.19a.05.05,0,0,1,0,0,.68.68,0,0,0,.37-.47C12.92,91,16.42,85.75,20.83,83.59Z" transform="translate(-2.69 -3.18)"/><path class="cls-14" d="M35.13,85.15c-.42-4.2-2.84-6.56-6.8-6.65a.55.55,0,0,0-.31.13.69.69,0,0,0-.23.29c-.06.18,0,.31.17.31,3.74.09,6,2.33,6.43,6.34.06.57,0,1.63,0,2.41,0,.16.13.23.31.16l.06,0a.73.73,0,0,0,.36-.41.28.28,0,0,0,0-.09A16.43,16.43,0,0,0,35.13,85.15Z" transform="translate(-2.69 -3.18)"/><path class="cls-14" d="M11.17,91.07a23.47,23.47,0,0,1,8.3-9,16.81,16.81,0,0,1,7.42-2.79.67.67,0,0,0,.32-.15.69.69,0,0,0,.2-.3c.05-.18,0-.29-.21-.28a17.86,17.86,0,0,0-7.86,3,25,25,0,0,0-8.83,9.6,13.65,13.65,0,0,0-1.27,6,9.79,9.79,0,0,1-.59,3.61.31.31,0,0,0,0,.23c0,.1.18.12.34,0H9a.7.7,0,0,0,.34-.36A10.77,10.77,0,0,0,10,96.77,12.74,12.74,0,0,1,11.17,91.07Z" transform="translate(-2.69 -3.18)"/><path class="cls-14" d="M21.7,98.33h0s0,0,0,0a.17.17,0,0,0-.11-.2h-.08l-.1,0h0v.09h0v-.08h0l0,0a.84.84,0,0,0-.23.23.71.71,0,0,0-.08.15l0,.1h0A14.49,14.49,0,0,1,18.08,103c-.23.27-.43.5-.59.7a.5.5,0,0,0-.14.39c0,.09.11.13.24.1l.12,0a.74.74,0,0,0,.2-.16l.35-.4a16.13,16.13,0,0,0,3.42-5.16S21.7,98.35,21.7,98.33Zm-.24-.16Zm0,0Z" transform="translate(-2.69 -3.18)"/><path class="cls-14" d="M19.34,98.74a.22.22,0,0,0-.05-.24.28.28,0,0,0-.27,0,.72.72,0,0,0-.4.44c-.47,1.63-1.75,3.13-3.26,4.78l-.18.2a.51.51,0,0,0-.16.35.18.18,0,0,0,.2.16.41.41,0,0,0,.17-.05.69.69,0,0,0,.22-.16l.18-.2C17.36,102.3,18.82,100.6,19.34,98.74Z" transform="translate(-2.69 -3.18)"/><path class="cls-14" d="M27.66,92c0-.18-.17-.24-.37-.15h0a.9.9,0,0,0-.28.24.5.5,0,0,0-.1.26c0,2.18-.93,5-2.77,8.13l-.15.28-.1.18c-.08.15-.08.28,0,.35a.31.31,0,0,0,.31,0l.07,0a.67.67,0,0,0,.24-.26,1.62,1.62,0,0,0,.1-.18c.05-.09.1-.19.16-.28C26.06,98.45,27.8,94.42,27.66,92Z" transform="translate(-2.69 -3.18)"/><path class="cls-14" d="M17.24,98.26A7.44,7.44,0,0,0,17.31,96c0-.24,0-.48,0-.72s0-.45,0-.68a7.13,7.13,0,0,1,1.18-4.91,7.72,7.72,0,0,1,2.66-2.35,4.93,4.93,0,0,1,3.52-.62.58.58,0,0,0,.53-.28.46.46,0,0,0,.09-.28.15.15,0,0,0-.12-.15c-2.17-.61-5.4,1-7.2,3.48A8,8,0,0,0,16.48,95v0l0,.64c0,.25,0,.5.05.74a7.19,7.19,0,0,1-.06,2.11,10.17,10.17,0,0,1-1.86,3.7c-.42.58-.92,1.14-1.34,1.62a.47.47,0,0,0-.15.32.16.16,0,0,0,.14.18.49.49,0,0,0,.23,0,.87.87,0,0,0,.22-.17,22.36,22.36,0,0,0,1.44-1.73A11.32,11.32,0,0,0,17.24,98.26Z" transform="translate(-2.69 -3.18)"/><path class="cls-14" d="M30.06,88a.53.53,0,0,0-.33.13.6.6,0,0,0-.25.46c.37,3.6-1.29,8-2,9.68-.07.16,0,.29.08.33a.36.36,0,0,0,.26,0,.68.68,0,0,0,.18-.13.66.66,0,0,0,.18-.23,21,21,0,0,0,2.06-10A.17.17,0,0,0,30.06,88Z" transform="translate(-2.69 -3.18)"/><path class="cls-14" d="M21.65,97.66l.11,0,.16-.11a.73.73,0,0,0,.19-.29c.59-1.88,1.12-4.28,0-6.14-.08-.13-.29-.11-.49,0a.73.73,0,0,0-.2.27.29.29,0,0,0,0,.24c1,1.64.51,3.74,0,5.75C21.35,97.59,21.46,97.7,21.65,97.66Z" transform="translate(-2.69 -3.18)"/><path class="cls-84" d="M193,75.38V71.91l-2.44-.41a13,13,0,0,0-1.95-1.17c-5.85-2.86-15.33-2.86-21.18,0a10.59,10.59,0,0,0-2.95,2L163,71.91v3.21h0c-.22,2,1.24,4,4.36,5.57,5.85,2.86,15.33,2.86,21.18,0,3-1.47,4.46-3.4,4.39-5.32Z" transform="translate(-2.69 -3.18)"/><ellipse class="cls-85" cx="175.28" cy="68.93" rx="14.98" ry="7.33"/><path class="cls-14" d="M181.73,72.23a3,3,0,0,0-1.39-.28,9.48,9.48,0,0,0-2.11.32,12,12,0,0,1-3,.44,5.38,5.38,0,0,1-2.31-.53c-.69-.34-1.06-.71-1.1-1.13s.25-.81.87-1.2l-1.39-.68,1-.46,1.39.68a6.28,6.28,0,0,1,2.56-.38,6.91,6.91,0,0,1,2.64.72l-1.16.57a4.76,4.76,0,0,0-1.86-.49,3.33,3.33,0,0,0-1.67.3c-.51.25-.76.5-.77.76s.23.5.69.73a3.18,3.18,0,0,0,1.46.3,10.84,10.84,0,0,0,2.09-.34,14.46,14.46,0,0,1,2.2-.4,6.63,6.63,0,0,1,1.68,0,5,5,0,0,1,1.43.45c.72.35,1.08.73,1.08,1.16s-.33.84-1,1.26l1.21.59-.93.46L182,74.53a6.66,6.66,0,0,1-2.69.49,6.31,6.31,0,0,1-2.66-.64l1.18-.58a4,4,0,0,0,3.61,0c.55-.27.85-.55.91-.84S182.19,72.45,181.73,72.23Z" transform="translate(-2.69 -3.18)"/><path class="cls-86" d="M208.24,147.21l-47.08-23a2.51,2.51,0,0,0-2.32-.18h0l-1,.45.49.19a1.55,1.55,0,0,0-.1.59v25.43c0,1.38,1.32,3.15,2.95,4l47.08,23a3.38,3.38,0,0,0,.74.28c-.13,0-.21.07-.2.08l.05,0a3.7,3.7,0,0,1,.5.35l1-.47h0a1.33,1.33,0,0,0,.81-1.33V151.15C211.19,149.77,209.87,148,208.24,147.21Z" transform="translate(-2.69 -3.18)"/><path class="cls-87" d="M207.15,178.13l-47.08-23c-1.63-.8-2.95-2.57-2.95-3.95V125.72c0-1.38,1.32-1.85,2.95-1l47.08,23c1.63.79,2.95,2.56,2.95,3.94v25.43C210.1,178.45,208.78,178.93,207.15,178.13Z" transform="translate(-2.69 -3.18)"/><ellipse class="cls-88" cx="198.23" cy="154.13" rx="4.68" ry="8.1" transform="translate(-52.88 187.54) rotate(-46.25)"/><path class="cls-89" d="M163.8,133.65l-3.48-1.7a1.36,1.36,0,0,1-.79-1v-3c0-.37.35-.5.79-.28l3.48,1.7a1.37,1.37,0,0,1,.78,1v3C164.58,133.74,164.23,133.87,163.8,133.65Z" transform="translate(-2.69 -3.18)"/><path class="cls-90" d="M163.42,152.8l-3.37-1.64a1.34,1.34,0,0,1-.76-1v-2.86c0-.35.34-.47.76-.27l3.37,1.65a1.33,1.33,0,0,1,.75,1v2.85C164.17,152.89,163.83,153,163.42,152.8Z" transform="translate(-2.69 -3.18)"/><path class="cls-91" d="M171,156.45l-3.37-1.65a1.31,1.31,0,0,1-.76-1v-2.85c0-.35.34-.47.76-.27l3.37,1.65a1.29,1.29,0,0,1,.75,1v2.85C171.75,156.53,171.42,156.66,171,156.45Z" transform="translate(-2.69 -3.18)"/><path class="cls-92" d="M178.58,160.1l-3.37-1.65a1.29,1.29,0,0,1-.75-1v-2.85c0-.36.33-.48.75-.27l3.37,1.64a1.32,1.32,0,0,1,.75,1v2.85C179.33,160.18,179,160.3,178.58,160.1Z" transform="translate(-2.69 -3.18)"/><path class="cls-93" d="M186.16,163.75l-3.37-1.65a1.31,1.31,0,0,1-.75-1v-2.85c0-.36.33-.48.75-.27l3.37,1.64a1.34,1.34,0,0,1,.76,1v2.86C186.92,163.83,186.58,164,186.16,163.75Z" transform="translate(-2.69 -3.18)"/><path class="cls-94" d="M193.74,167.4l-3.37-1.65a1.35,1.35,0,0,1-.75-1v-2.86c0-.35.34-.47.75-.27l3.37,1.65a1.34,1.34,0,0,1,.76,1v2.86C194.5,167.48,194.16,167.6,193.74,167.4Z" transform="translate(-2.69 -3.18)"/><path class="cls-95" d="M201.32,171,198,169.4a1.35,1.35,0,0,1-.75-1v-2.86c0-.35.34-.47.75-.27l3.37,1.65a1.32,1.32,0,0,1,.76,1v2.85C202.08,171.13,201.74,171.25,201.32,171Z" transform="translate(-2.69 -3.18)"/><path class="cls-14" d="M184.72,150.21l-24-11.75a2,2,0,0,1-1.15-1.54h0c0-.54.51-.72,1.15-.41l24,11.75a2,2,0,0,1,1.15,1.54h0C185.87,150.34,185.35,150.52,184.72,150.21Z" transform="translate(-2.69 -3.18)"/><path class="cls-14" d="M175.62,150.09l-14.93-7.3a2,2,0,0,1-1.15-1.54h0c0-.54.51-.72,1.15-.41l14.93,7.3a2,2,0,0,1,1.15,1.54h0C176.77,150.22,176.26,150.4,175.62,150.09Z" transform="translate(-2.69 -3.18)"/><ellipse class="cls-14" cx="122.78" cy="120.6" rx="10.07" ry="4.93"/><path class="cls-96" d="M127.05,123v-1.59c0-.43-.71-.77-1.58-.77s-1.58.34-1.58.77V123h-3.26c-.87,0-1.58.35-1.58.78h0c0,.42.71.77,1.58.77h3.26v1.59c0,.43.7.78,1.58.78h0c.87,0,1.58-.35,1.58-.78v-1.59h3.26c.87,0,1.58-.35,1.58-.77s-.71-.78-1.58-.78Z" transform="translate(-2.69 -3.18)"/><ellipse class="cls-14" cx="104.26" cy="129.41" rx="10.07" ry="4.93"/><path class="cls-97" d="M107.07,129.25c-.83.08-1.36.48-1.18.89l1.4,3.22-3.47-.36c-.83-.08-1.64.18-1.82.58h0c-.17.41.36.8,1.18.89l5.59.58a3.17,3.17,0,0,0,.82,0,2.42,2.42,0,0,0,.74-.19l0,0,0,0a.79.79,0,0,0,.38-.36.39.39,0,0,0,0-.4l-1.85-4.26C108.71,129.42,107.89,129.16,107.07,129.25Z" transform="translate(-2.69 -3.18)"/><g class="cls-98"><path class="cls-14" d="M84.36,108.65l1,1.23c.09.12.26.14.46.06l2.25-.82c.51-.18.71.24.34.72L86.8,112a.69.69,0,0,0-.18.55l.38,1.71c.09.38-.44,1-.89,1l-2,.09a.93.93,0,0,0-.58.28l-2,1.88c-.45.42-1,.35-.89-.12l.38-2.08a.3.3,0,0,0-.17-.38l-1.63-.54c-.36-.13-.16-.75.34-1.06l2.25-1.38a1.19,1.19,0,0,0,.46-.51l1-2.22C83.48,108.69,84.14,108.37,84.36,108.65Z" transform="translate(-2.69 -3.18)"/><path class="cls-14" d="M95.92,103l1,1.23a.42.42,0,0,0,.47.06l2.25-.82c.5-.19.7.24.34.72l-1.63,2.14a.77.77,0,0,0-.18.55l.39,1.71c.08.38-.44,1-.9,1l-2,.08a1,1,0,0,0-.57.28l-2,1.88c-.45.42-1,.36-.89-.11l.38-2.08c0-.19,0-.33-.18-.38l-1.62-.55c-.37-.12-.17-.75.34-1.06l2.25-1.37a1.25,1.25,0,0,0,.46-.51l1-2.22C95,103,95.69,102.72,95.92,103Z" transform="translate(-2.69 -3.18)"/><path class="cls-14" d="M107.48,97.34l1,1.24a.4.4,0,0,0,.46.06l2.25-.83c.51-.18.71.25.34.73l-1.62,2.14a.71.71,0,0,0-.18.55l.38,1.7c.09.39-.44,1-.89,1l-2,.09a1,1,0,0,0-.57.28l-2,1.88c-.46.42-1,.35-.9-.11l.39-2.09a.31.31,0,0,0-.18-.37l-1.63-.55c-.36-.12-.16-.75.34-1.06l2.25-1.38a1.13,1.13,0,0,0,.46-.51l1-2.21C106.6,97.39,107.25,97.07,107.48,97.34Z" transform="translate(-2.69 -3.18)"/><path class="cls-14" d="M119,91.69l1,1.23a.39.39,0,0,0,.46.06l2.25-.82c.5-.18.7.24.34.72L121.46,95a.77.77,0,0,0-.18.55l.39,1.71c.09.38-.44,1-.9,1l-2,.09a.93.93,0,0,0-.57.28l-2,1.88c-.45.42-1,.35-.89-.12l.38-2.08a.3.3,0,0,0-.18-.38l-1.62-.54c-.37-.13-.17-.75.34-1.06L116.46,95a1.19,1.19,0,0,0,.46-.51l1-2.22C118.15,91.73,118.8,91.41,119,91.69Z" transform="translate(-2.69 -3.18)"/><path class="cls-14" d="M130.59,86l1,1.23c.09.11.26.13.47.06l2.24-.82c.51-.19.71.24.34.72L133,89.37a.72.72,0,0,0-.18.55l.38,1.71c.09.38-.44,1-.89,1l-2,.08a1,1,0,0,0-.57.28l-2,1.88c-.46.42-1,.36-.9-.11l.39-2.09a.31.31,0,0,0-.18-.37l-1.63-.55c-.36-.12-.16-.75.34-1.06L128,89.31a1.27,1.27,0,0,0,.47-.51l1-2.22C129.71,86.08,130.36,85.76,130.59,86Z" transform="translate(-2.69 -3.18)"/></g><path class="cls-14" d="M98.52,23.39l-.58-1L96,23.72l-.56,1,1.36-.94c-3.43,6-8.06,12.72-11.13,14.27l0,0c-2.19,1.07-3.58-.67-4.92-2.36s-2.84-3.58-5.44-2.49c-2.21.92-4.19,3.58-5.9,7.91a44.39,44.39,0,0,0-1.87,6l.81-.31C69,43.74,71.6,35.32,75.21,33.8c2.1-.88,3.45.83,4.76,2.47,1.44,1.82,2.93,3.7,5.69,2.35l.08,0c4.11-2.09,9.42-10.72,11.82-14.9l.4.69Z" transform="translate(-2.69 -3.18)"/><g class="cls-99"><path class="cls-14" d="M115.76,15.16l-10,4.91c-.65.32-1.18.13-1.18-.43h0a2.08,2.08,0,0,1,1.18-1.58l10-4.91c.66-.32,1.19-.13,1.19.42h0A2.07,2.07,0,0,1,115.76,15.16Z" transform="translate(-2.69 -3.18)"/><path class="cls-14" d="M115.76,18.65l-10,4.91c-.65.32-1.18.13-1.18-.43h0a2.08,2.08,0,0,1,1.18-1.58l10-4.91c.66-.32,1.19-.13,1.19.42h0A2.07,2.07,0,0,1,115.76,18.65Z" transform="translate(-2.69 -3.18)"/><path class="cls-14" d="M115.76,22.14l-10,4.91c-.65.32-1.18.13-1.18-.43h0A2.08,2.08,0,0,1,105.72,25l10-4.91c.66-.32,1.19-.13,1.19.42h0A2.07,2.07,0,0,1,115.76,22.14Z" transform="translate(-2.69 -3.18)"/></g><path class="cls-100" d="M59,39.89V49a25.85,25.85,0,0,0,3,11.22A45,45,0,0,0,70.1,71.5l2.35,2.4,2.35-.1h.09l1.29.61,3.75-1.77h0a10.11,10.11,0,0,0,3-2.16,11.69,11.69,0,0,0,3-8.31V53.09Z" transform="translate(-2.69 -3.18)"/><path class="cls-101" d="M67.18,72.94A45.18,45.18,0,0,1,59,61.61a25.88,25.88,0,0,1-3-11.22V41.32L83,54.53v9.06A10.8,10.8,0,0,1,71.88,75.23l-2.35.1Z" transform="translate(-2.69 -3.18)"/><path class="cls-102" d="M71,73.71l-1.51.06L68,72.22C61.53,65.6,57.6,57.64,57.6,51.15V43.41L81.46,55.09v7.74C81.46,69.32,77.53,73.43,71,73.71Z" transform="translate(-2.69 -3.18)"/><polygon class="cls-103" points="53.34 38.14 56.26 36.7 83.25 49.91 80.33 51.34 53.34 38.14"/><ellipse class="cls-104" cx="69.21" cy="60.18" rx="5.12" ry="8.87" transform="translate(-24.82 65.38) rotate(-46.25)"/><path class="cls-14" d="M72.79,59c-.51-.53-1.2-.74-1.54-.47L68.58,60.7l-1.41-2.51a1.9,1.9,0,0,0-1.54-1h0c-.51,0-.66.54-.32,1.14l2.26,4.06a2,2,0,0,0,.39.57,2.12,2.12,0,0,0,.58.44l0,0h0a1.06,1.06,0,0,0,.58.13.53.53,0,0,0,.4-.19l3.53-2.87C73.45,60.2,73.31,59.54,72.79,59Z" transform="translate(-2.69 -3.18)"/></g></g></svg>